<?xml version="1.0" standalone="no"?>
<!DOCTYPE svg PUBLIC "-//W3C//DTD SVG 1.1//EN" "http://www.w3.org/Graphics/SVG/1.1/DTD/svg11.dtd" >
<svg xmlns="http://www.w3.org/2000/svg" xmlns:xlink="http://www.w3.org/1999/xlink" version="1.1">
<metadata>
Created by FontForge 20201107 at Fri May 24 21:06:22 2024
 By 
Copyright 2016 The Inter Project Authors (https://github.com/rsms/inter)
</metadata>
<defs>
<font id="Inter18pt-Italic" horiz-adv-x="0" >
  <font-face 
    font-family="Inter 18pt"
    font-weight="400"
    font-style="italic"
    font-stretch="normal"
    units-per-em="2048"
    panose-1="2 0 5 3 0 0 0 2 0 4"
    ascent="1638"
    descent="-410"
    x-height="1104"
    cap-height="1490"
    bbox="-1531 -662 5316 2272"
    underline-thickness="140"
    underline-position="-387"
    slope="-9.3988"
    unicode-range="U+0020-1F852"
  />
<missing-glyph horiz-adv-x="1344" 
d="M856 -416h-688l376 2272h688zM389 -192l-10 -64h320l10 64h-215l236 127l11 65h-320l-11 -64h216zM474 320l-42 -256h320l42 256h-320zM698 128h-192l21 128h192zM538 704l-43 -256h320l43 256h-192l-22 -128h64l11 64h64l-21 -128h-192l32 192h-64zM559 832l-11 -64h320
l37 224h-64l-26 -160h-256zM580 960l-11 -64h192l27 160h128l10 64h-320l-10 -64h128l-16 -96h-128zM756 1248h-64l15 96h64zM654 1408l-37 -224h320l11 64h-128l26 160h-192zM675 1536l-10 -64h320l10 64h-144l16 96h144l11 64h-320l-11 -64h112l-16 -96h-112z" />
    <glyph glyph-name=".notdef" horiz-adv-x="1344" 
d="M856 -416h-688l376 2272h688zM389 -192l-10 -64h320l10 64h-215l236 127l11 65h-320l-11 -64h216zM474 320l-42 -256h320l42 256h-320zM698 128h-192l21 128h192zM538 704l-43 -256h320l43 256h-192l-22 -128h64l11 64h64l-21 -128h-192l32 192h-64zM559 832l-11 -64h320
l37 224h-64l-26 -160h-256zM580 960l-11 -64h192l27 160h128l10 64h-320l-10 -64h128l-16 -96h-128zM756 1248h-64l15 96h64zM654 1408l-37 -224h320l11 64h-128l26 160h-192zM675 1536l-10 -64h320l10 64h-144l16 96h144l11 64h-320l-11 -64h112l-16 -96h-112z" />
    <glyph glyph-name=".null" horiz-adv-x="933" 
 />
    <glyph glyph-name="nonmarkingreturn" horiz-adv-x="682" 
 />
    <glyph glyph-name="space" unicode=" " horiz-adv-x="562" 
 />
    <glyph glyph-name="exclam" unicode="!" horiz-adv-x="558" 
d="M174 461l159 1029h200l-184 -1029h-175zM196 -14q-58 0 -93.5 42.5t-26.5 102.5q9 52 50.5 86t90.5 34q60 0 94.5 -42.5t25.5 -99.5q-7 -51 -48 -87t-93 -36z" />
    <glyph glyph-name="quotedbl" unicode="&#x22;" horiz-adv-x="926" 
d="M287 937l71 553h188l-113 -553h-146zM619 937l71 553h188l-113 -553h-146z" />
    <glyph glyph-name="numbersign" unicode="#" horiz-adv-x="1282" 
d="M699 0l319 1490h151l-319 -1490h-151zM43 412l32 148h1115l-34 -148h-1113zM175 0l321 1490h149l-319 -1490h-151zM156 928l32 150h1115l-33 -150h-1114z" />
    <glyph glyph-name="dollar" unicode="$" horiz-adv-x="1300" 
d="M458 -219l319 1928h129l-319 -1928h-129zM571 -26q-163 0 -278 54t-169.5 152t-40.5 230h193q-9 -89 29 -148.5t110.5 -89t166.5 -29.5q104 0 190.5 33.5t143.5 93t70 140.5q11 69 -18.5 113.5t-91 74.5t-144.5 54l-170 49q-173 49 -262.5 141.5t-64.5 248.5
q20 126 99 221t200 147t268 52q148 0 256 -52.5t162 -145.5t38 -213h-183q7 115 -73 179.5t-217 64.5q-97 0 -175.5 -32t-128.5 -87.5t-62 -126.5q-12 -72 23.5 -118.5t97.5 -74.5t126 -46l147 -41q66 -19 135 -49t125 -77t83.5 -117.5t11.5 -170.5q-20 -123 -97 -220
t-203 -153.5t-297 -56.5z" />
    <glyph glyph-name="percent" unicode="%" horiz-adv-x="1948" 
d="M549 825q-95 0 -154.5 42.5t-81.5 113.5t-8 155l11 68q14 84 60.5 155t120 113t167.5 42q96 0 155 -42t81 -113t8 -155l-12 -68q-13 -84 -59 -155t-119 -113.5t-169 -42.5zM571 956q76 0 118 53t55 127l11 68q12 74 -12.5 127t-100.5 53q-73 0 -117 -53t-56 -127l-11 -68
q-13 -74 12 -127t101 -53zM1349 -28q-96 0 -155 42.5t-81 113.5t-9 155l11 68q15 84 61.5 155t120 113t167.5 42q96 0 154.5 -42t80.5 -113t8 -155l-11 -68q-14 -84 -60 -155t-119 -113.5t-168 -42.5zM1371 103q75 0 117.5 53t54.5 127l11 68q13 74 -11.5 127t-100.5 53
q-73 0 -117 -53t-57 -127l-11 -68q-12 -74 13 -127t101 -53zM281 0l1271 1490h170l-1271 -1490h-170z" />
    <glyph glyph-name="ampersand" unicode="&#x26;" horiz-adv-x="1394" 
d="M488 -20q-148 0 -248 55.5t-143.5 151.5t-24.5 216q15 89 62.5 157t125.5 129.5t186 132.5l253 165q34 22 70 51.5t64.5 69t37.5 90.5q11 67 -27.5 110t-115.5 43q-58 0 -107.5 -25t-82 -69t-42.5 -102q-8 -50 6.5 -97.5t48 -102.5t81.5 -128l552 -827h-211l-450 683
q-70 107 -121 186t-73 151.5t-8 158.5q16 97 71.5 170t142 114t194.5 41q113 0 189.5 -44t110 -119t17.5 -168q-10 -63 -42.5 -119.5t-83.5 -105.5t-119 -93l-336 -221q-103 -68 -153 -128t-62 -133q-11 -69 14.5 -123t82 -84.5t136.5 -30.5q90 0 180 38.5t167 108.5
t132 165.5t73 208.5h172q-22 -138 -67.5 -231.5t-97 -152.5t-91.5 -94l-45 -44q-85 -78 -199 -116t-219 -38z" />
    <glyph glyph-name="quotesingle" unicode="'" horiz-adv-x="593" 
d="M287 937l71 553h188l-113 -553h-146z" />
    <glyph glyph-name="parenleft" unicode="(" horiz-adv-x="717" 
d="M211 604q27 164 89 343t147 344t180 287h173q-103 -156 -186.5 -325.5t-140.5 -335.5t-81 -312q-23 -133 -19.5 -270.5t33 -289t86.5 -327.5h-173q-92 216 -118.5 441.5t10.5 444.5z" />
    <glyph glyph-name="parenright" unicode=")" horiz-adv-x="716" 
d="M-51 -283q113 173 193 324t129 289.5t72 273.5q24 147 22 313t-29.5 335t-78.5 325h174q53 -122 83 -287t33 -344t-25 -343q-36 -220 -137 -446t-262 -440h-174z" />
    <glyph glyph-name="asterisk" unicode="*" horiz-adv-x="1011" 
d="M450 652l67 318l-296 -172l-50 126l304 146l-259 146l92 128l242 -172l39 318h143l-64 -318l293 172l53 -128l-305 -146l260 -146l-93 -126l-241 172l-42 -318h-143z" />
    <glyph glyph-name="plus" unicode="+" horiz-adv-x="1341" 
d="M511 100l160 965h168l-160 -965h-168zM179 498l28 170h964l-28 -170h-964z" />
    <glyph glyph-name="comma" unicode="," horiz-adv-x="558" 
d="M-35 -342l179 550h201l-245 -550h-135z" />
    <glyph glyph-name="hyphen" unicode="-" horiz-adv-x="930" 
d="M818 712l-27 -165h-654l28 165h653z" />
    <glyph glyph-name="period" unicode="." horiz-adv-x="558" 
d="M196 -14q-58 0 -93.5 42.5t-26.5 102.5q9 52 50.5 86t90.5 34q60 0 94.5 -42.5t25.5 -99.5q-7 -51 -48 -87t-93 -36z" />
    <glyph glyph-name="slash" unicode="/" horiz-adv-x="722" 
d="M850 1560l-774 -1784h-164l774 1784h164z" />
    <glyph glyph-name="zero" unicode="0" horiz-adv-x="1283" 
d="M547 -21q-166 0 -269 91t-137 262.5t5 411.5q40 241 132 412.5t225 263t298 91.5q164 0 267 -91t138 -262t-5 -412q-39 -242 -130 -414t-224.5 -262.5t-299.5 -90.5zM574 144q111 0 200.5 72t152.5 206.5t94 323.5q31 187 13 321.5t-83.5 207t-176.5 72.5
q-109 0 -198.5 -70.5t-153.5 -205.5t-96 -328q-31 -188 -12.5 -322t84.5 -205.5t176 -71.5z" />
    <glyph glyph-name="one" unicode="1" horiz-adv-x="814" 
d="M796 1490l-247 -1490h-183l217 1312h-8l-406 -263l33 200l375 241h219z" />
    <glyph glyph-name="two" unicode="2" horiz-adv-x="1226" 
d="M46 0l23 140l589 525q102 90 169.5 158.5t105.5 130.5t49 132q13 82 -11 140.5t-80 89.5t-138 31q-87 0 -161 -36.5t-124 -101.5t-65 -155h-178q23 136 99 238.5t189 160.5t248 58q136 0 232.5 -56.5t141.5 -152.5t24 -217q-10 -63 -37 -123t-75.5 -124t-124 -140
t-184.5 -172l-401 -351l-2 -10h693l-26 -165h-956z" />
    <glyph glyph-name="three" unicode="3" horiz-adv-x="1256" 
d="M544 -21q-147 0 -254.5 52.5t-160.5 146.5t-36 218h190q-9 -78 23.5 -135t98 -87t154.5 -30q95 0 175 32.5t132.5 91.5t65.5 138q14 81 -17.5 143.5t-104.5 97.5t-183 35h-121l28 164h120q89 0 161.5 31t120 88t60.5 135q13 75 -11.5 130.5t-80.5 86t-139 30.5
q-81 0 -154 -29t-123 -84t-65 -132h-181q23 122 102 213.5t195 143.5t248 52q138 0 232.5 -55t137.5 -146t25 -199q-21 -125 -104 -214t-204 -124l-2 -10q94 -15 153.5 -65t83.5 -125.5t8 -168.5q-20 -123 -101.5 -218.5t-204 -151t-267.5 -55.5z" />
    <glyph glyph-name="four" unicode="4" horiz-adv-x="1312" 
d="M67 316l25 153l835 1021h114l-38 -230h-75l-629 -769l-2 -10h899l-27 -165h-1102zM729 0l59 361l13 73l175 1056h179l-247 -1490h-179z" />
    <glyph glyph-name="five" unicode="5" horiz-adv-x="1206" 
d="M505 -20q-134 0 -232.5 53.5t-147.5 145.5t-35 209h184q-8 -104 59 -173.5t186 -69.5q91 0 171 42.5t135.5 118t71.5 173.5t-11.5 173.5t-91 118.5t-154.5 43q-80 0 -163.5 -28t-134.5 -76l-174 17l207 763h801l-28 -165h-640l-122 -446h6q59 46 135.5 73.5t159.5 27.5
q137 0 233.5 -65t140 -178t18.5 -259q-24 -144 -105.5 -257t-203 -177t-265.5 -64z" />
    <glyph glyph-name="six" unicode="6" horiz-adv-x="1251" 
d="M558 -21q-100 0 -190.5 37t-154 119.5t-87 218t9.5 333.5q33 195 92 348t143.5 259t192.5 161.5t238 55.5q126 0 220.5 -50t146.5 -139t49 -206h-184q-7 103 -64.5 166t-169.5 63q-117 0 -213 -68.5t-162.5 -196t-95.5 -303.5h9q51 63 111.5 107t129.5 66.5t144 22.5
q130 0 229.5 -63.5t148 -175t24.5 -255.5q-23 -141 -101 -254.5t-197 -179.5t-269 -66zM560 145q90 0 171.5 44t138.5 120t73 169q16 92 -10.5 167t-88.5 119.5t-152 44.5q-69 0 -134 -26.5t-118 -72.5t-88.5 -106t-46.5 -128q-14 -88 13 -164t89.5 -121.5t152.5 -45.5z" />
    <glyph glyph-name="seven" unicode="7" horiz-adv-x="1138" 
d="M89 0l882 1315l2 10h-757l28 165h962l-30 -175l-879 -1315h-208z" />
    <glyph glyph-name="eight" unicode="8" horiz-adv-x="1248" 
d="M538 -21q-151 0 -259.5 53.5t-159.5 148t-31 216.5q16 95 67.5 175t126 134t158.5 69l1 6q-103 28 -151.5 121t-29.5 211q19 116 91.5 205.5t182.5 141t240 51.5t226 -51.5t143 -141t28 -203.5q-13 -80 -54.5 -149.5t-102.5 -118t-134 -67.5l-1 -6q79 -16 136 -70
t83.5 -134t9.5 -176q-21 -121 -100 -214.5t-200.5 -147t-269.5 -53.5zM548 143q98 0 178 32t132 91.5t65 140.5q13 83 -16.5 146t-94 100t-158.5 37q-92 0 -173 -35.5t-136.5 -99t-69.5 -147.5q-14 -79 13 -138.5t92.5 -93t167.5 -33.5zM665 848q80 0 149 32t115 89.5
t58 132.5t-11.5 130t-77.5 85.5t-135 30.5q-80 0 -149 -30t-115 -85t-59 -132q-13 -76 10.5 -133t78.5 -88.5t136 -31.5z" />
    <glyph glyph-name="nine" unicode="9" horiz-adv-x="1252" 
d="M515 -21q-127 0 -223 50t-148 140t-49 208h186q6 -102 63.5 -167t171.5 -65q117 0 213 68.5t162.5 196t95.5 305.5h-10q-49 -61 -110.5 -105t-132 -67.5t-147.5 -23.5q-131 0 -229.5 64t-144.5 176t-23 254q24 137 100 251t196.5 181.5t274.5 65.5q100 -1 189.5 -38.5
t152.5 -120t86 -217.5t-10 -331q-32 -194 -91.5 -347t-143 -260t-191.5 -162.5t-238 -55.5zM631 684q67 0 130 26t115 71.5t87.5 105t47.5 127.5q15 88 -14 163.5t-93.5 121.5t-156.5 46q-89 0 -169 -44t-135 -119.5t-70 -170.5q-14 -89 13.5 -163.5t90.5 -119t154 -44.5z
" />
    <glyph glyph-name="colon" unicode=":" horiz-adv-x="559" 
d="M197 -14q-58 0 -93.5 42.5t-26.5 102.5q9 52 50.5 86t90.5 34q60 0 94.5 -42.5t25.5 -99.5q-7 -51 -48 -87t-93 -36zM329 789q-58 0 -93.5 42.5t-26.5 102.5q9 52 50.5 86t90.5 34q60 0 94.5 -42.5t25.5 -99.5q-7 -51 -48 -87t-93 -36z" />
    <glyph glyph-name="semicolon" unicode=";" horiz-adv-x="580" 
d="M-35 -342l179 550h201l-245 -550h-135zM351 789q-58 0 -93.5 42.5t-26.5 102.5q9 52 50.5 86t90.5 34q60 0 94.5 -42.5t25.5 -99.5q-7 -51 -48 -87t-93 -36z" />
    <glyph glyph-name="less" unicode="&#x3c;" horiz-adv-x="1341" 
d="M164 521l21 124l1020 476l-31 -194l-774 -342l5 12l-2 -28l-6 10l663 -342l-33 -193z" />
    <glyph glyph-name="equal" unicode="=" horiz-adv-x="1341" 
d="M248 717l27 164h903l-27 -164h-903zM176 284l27 164h902l-27 -164h-902z" />
    <glyph glyph-name="greater" unicode="&#x3e;" horiz-adv-x="1341" 
d="M1165 521l-1020 -477l33 193l772 342l-5 -10l2 28l6 -12l-660 342l30 194l863 -476z" />
    <glyph glyph-name="question" unicode="?" horiz-adv-x="1053" 
d="M373 445l5 27q23 130 62.5 201.5t96 114t132.5 85.5q78 45 131 107t66 144q12 71 -12.5 121.5t-76 78.5t-123.5 28q-66 0 -127.5 -27t-106.5 -82.5t-64 -141.5h-187q25 129 95 220.5t173.5 140.5t226.5 49q131 0 223.5 -50.5t135.5 -139t24 -202.5q-20 -118 -87.5 -205.5
t-176.5 -149.5q-72 -41 -116.5 -77t-70 -86t-40.5 -133l-3 -23h-180zM389 -14q-55 0 -87.5 39t-23.5 93q9 55 54 94t101 39q55 0 87 -39t23 -94q-9 -54 -54 -93t-100 -39z" />
    <glyph glyph-name="at" unicode="@" horiz-adv-x="1979" 
d="M892 -397q-219 0 -381.5 63t-264.5 181.5t-137 290t0 387.5q35 212 123.5 381.5t224 289.5t312 183t386.5 63q204 0 352 -66t239 -180.5t124.5 -262t6.5 -311.5q-18 -109 -48.5 -214t-80.5 -190.5t-127.5 -136t-189.5 -50.5q-80 0 -133 23.5t-78.5 62.5t-25.5 86h-6
q-37 -64 -115.5 -114.5t-194.5 -50.5q-132 0 -213.5 65.5t-111 178t-7.5 250.5q23 137 94 244t174 169t222 62q99 0 160.5 -37t80.5 -75h8l15 88h159l-109 -657q-11 -62 11 -106.5t87 -44.5q73 0 123.5 48t85.5 146.5t60 251.5q23 137 0 259t-93.5 215.5t-190 147.5
t-290.5 54q-172 0 -317.5 -53t-258 -153.5t-187 -245t-104.5 -326.5t-5 -324.5t103.5 -241t210 -150.5t315.5 -52q82 0 163.5 15t148 33t101.5 29l21 -141q-47 -18 -119 -37.5t-155.5 -33t-167.5 -13.5zM903 190q94 0 161 39t109 117t60 194q20 115 2.5 184.5t-70 100
t-140.5 30.5q-82 0 -148.5 -41t-111 -112.5t-59.5 -162.5q-15 -97 -2.5 -176.5t61 -126t138.5 -46.5z" />
    <glyph glyph-name="A" unicode="A" horiz-adv-x="1396" 
d="M-47 0l790 1490h217l300 -1490h-190l-168 887q-14 75 -34 200t-44 314h39q-83 -182 -142.5 -306t-102.5 -208l-458 -887h-207zM297 416l27 165h757l-27 -165h-757z" />
    <glyph glyph-name="B" unicode="B" horiz-adv-x="1333" 
d="M81 0l247 1490h524q155 0 250 -53.5t133.5 -145t19.5 -205.5q-14 -89 -57 -150.5t-106 -100t-136 -59.5v-8q73 -6 135 -51t94 -127t13 -198q-18 -115 -84.5 -203t-185.5 -138.5t-295 -50.5h-552zM297 165h348q175 0 266 72.5t108 178.5q12 75 -16.5 133.5t-92.5 92.5
t-160 34h-368zM408 836h331q82 0 153.5 33t120.5 92t62 138q16 97 -40 161.5t-200 64.5h-346z" />
    <glyph glyph-name="C" unicode="C" horiz-adv-x="1491" 
d="M698 -21q-172 0 -299 73.5t-196.5 208.5t-69.5 321q0 177 56 343t160 298.5t251 210t330 77.5q116 0 212.5 -33.5t168 -97.5t111.5 -155t41 -207h-188q-4 77 -31.5 136t-74.5 100t-110 62t-136 21q-142 0 -254 -64t-191 -172t-120.5 -242t-41.5 -273t49 -236t136.5 -147
t203.5 -50q78 0 151 21t136.5 61.5t113 99.5t78.5 136h189q-39 -114 -106.5 -204.5t-157 -155t-194 -98.5t-217.5 -34z" />
    <glyph glyph-name="D" unicode="D" horiz-adv-x="1463" 
d="M576 0h-390l26 166h348q183 0 315 70.5t212.5 201t110.5 310.5t-5.5 309t-138 198t-274.5 69h-383l28 166h366q218 0 363 -89.5t205.5 -256t21.5 -398.5q-39 -234 -143 -401t-270 -256t-392 -89zM516 1490l-247 -1490h-188l247 1490h188z" />
    <glyph glyph-name="E" unicode="E" horiz-adv-x="1221" 
d="M81 0l247 1490h922l-28 -165h-734l-80 -487h683l-28 -166h-683l-84 -507h741l-27 -165h-929z" />
    <glyph glyph-name="F" unicode="F" horiz-adv-x="1193" 
d="M81 0l247 1490h909l-28 -165h-721l-84 -507h655l-27 -165h-655l-108 -653h-188z" />
    <glyph glyph-name="G" unicode="G" horiz-adv-x="1520" 
d="M701 -21q-175 0 -302 73.5t-196.5 208t-69.5 319.5q0 176 55.5 342.5t158.5 299.5t249.5 211t327.5 78q120 0 219 -36t171 -101t111.5 -155t41.5 -199h-193q-9 72 -36.5 130.5t-72.5 100t-107.5 64t-140.5 22.5q-139 0 -249.5 -64.5t-189.5 -172.5t-120.5 -241
t-41.5 -271q0 -210 108 -322.5t284 -112.5q128 0 237.5 55.5t183 156t95.5 234.5l53 -16h-444l28 165h571l-28 -168q-23 -137 -85.5 -247t-156.5 -189.5t-211.5 -122t-249.5 -42.5z" />
    <glyph glyph-name="H" unicode="H" horiz-adv-x="1506" 
d="M81 0l247 1490h188l-107 -645h785l107 645h187l-247 -1490h-187l113 679h-786l-112 -679h-188z" />
    <glyph glyph-name="I" unicode="I" horiz-adv-x="534" 
d="M516 1490l-247 -1490h-188l247 1490h188z" />
    <glyph glyph-name="J" unicode="J" horiz-adv-x="1153" 
d="M454 -20q-174 0 -281 91.5t-107 261.5q0 15 1.5 33t6 51t12.5 89h188q-8 -52 -12.5 -81t-5.5 -43.5t-1 -25.5q0 -102 57.5 -156.5t157.5 -54.5q113 0 196.5 71t106.5 210l177 1064h188l-177 -1064q-35 -213 -172 -329.5t-335 -116.5z" />
    <glyph glyph-name="K" unicode="K" horiz-adv-x="1359" 
d="M280 426l27 210q63 68 124 130t124 122.5t127 119.5l527 482h255l-749 -681l-11 1zM81 0l247 1490h189l-85 -512l-57 -320l-12 -92l-93 -566h-189zM1010 0l-413 760l124 146l496 -906h-207z" />
    <glyph glyph-name="L" unicode="L" horiz-adv-x="1144" 
d="M81 0l247 1490h188l-219 -1324h696l-28 -166h-884z" />
    <glyph glyph-name="M" unicode="M" horiz-adv-x="1829" 
d="M81 0l247 1490h264l213 -946q8 -34 16.5 -83.5t17.5 -106t17 -111t13 -97.5l-41 3q21 45 47.5 100t54 111.5t52 105t42.5 80.5l522 944h265l-246 -1490h-185l141 855q8 50 18.5 110.5t22.5 124.5t24.5 127.5t22.5 119.5l18 -3q-34 -70 -69.5 -140.5t-68 -135
t-60.5 -117.5t-48 -88l-478 -853h-161l-198 855q-10 46 -25 121.5t-32 169.5t-35 191l21 -3q-8 -59 -17 -123.5t-18.5 -128.5t-18.5 -122.5t-17 -106.5l-140 -853h-181z" />
    <glyph glyph-name="N" unicode="N" horiz-adv-x="1523" 
d="M81 0l247 1490h213l451 -957q14 -30 38 -85.5t52 -127t53 -153.5l-21 -8q6 79 15 155t19 141.5t17 109.5l153 925h188l-247 -1490h-214l-402 851q-23 50 -49.5 111.5t-61.5 147.5t-85 209l26 11q-15 -120 -26.5 -213t-20.5 -158.5t-16 -105.5l-140 -853h-189z" />
    <glyph glyph-name="O" unicode="O" horiz-adv-x="1559" 
d="M696 -21q-170 0 -296.5 73.5t-196.5 209t-70 320.5q0 177 56 343.5t161 298t251 209.5t327 78q170 0 296 -73.5t195.5 -208.5t69.5 -321q0 -178 -56 -344t-160.5 -298t-250.5 -209.5t-326 -77.5zM703 153q140 0 252 64t190.5 172t119.5 241.5t41 273.5q0 141 -49.5 237.5
t-136.5 146t-199 49.5q-140 0 -252 -64t-191 -172.5t-120.5 -241.5t-41.5 -273q0 -141 49.5 -237.5t137 -146t200.5 -49.5z" />
    <glyph glyph-name="P" unicode="P" horiz-adv-x="1296" 
d="M81 0l247 1490h514q169 0 272 -61.5t142.5 -167.5t17.5 -240q-22 -135 -96 -241.5t-197.5 -168.5t-293.5 -62h-378l28 166h370q118 0 196.5 40t124 110t59.5 157q14 88 -8.5 156t-89 107.5t-182.5 39.5h-319l-219 -1325h-188z" />
    <glyph glyph-name="Q" unicode="Q" horiz-adv-x="1559" 
d="M737 466h182l130 -218l32 -58l194 -330h-182l-126 218l-33 56zM696 -21q-170 0 -296.5 73.5t-196.5 209t-70 320.5q0 177 56 343.5t161 298t251 209.5t327 78q170 0 296 -73.5t195.5 -208.5t69.5 -321q0 -178 -56 -344t-160.5 -298t-250.5 -209.5t-326 -77.5zM703 153
q140 0 252 64t190.5 172t119.5 241.5t41 273.5q0 141 -49.5 237.5t-136.5 146t-199 49.5q-140 0 -252 -64t-191 -172.5t-120.5 -241.5t-41.5 -273q0 -141 49.5 -237.5t137 -146t200.5 -49.5z" />
    <glyph glyph-name="R" unicode="R" horiz-adv-x="1313" 
d="M81 0l247 1490h518q172 0 275 -59t142 -162.5t17 -236.5q-23 -134 -96.5 -236t-196.5 -159t-292 -57h-413l28 167h407q115 0 193.5 35t123.5 100t59 152q23 138 -45.5 214.5t-236.5 76.5h-323l-219 -1325h-188zM944 0l-249 671h207l255 -671h-213z" />
    <glyph glyph-name="S" unicode="S" horiz-adv-x="1300" 
d="M571 -26q-163 0 -278 54t-169.5 152t-40.5 230h193q-9 -89 29 -148.5t110.5 -89t166.5 -29.5q104 0 190.5 33.5t143.5 93t70 140.5q11 69 -18.5 113.5t-91 74.5t-144.5 54l-170 49q-173 49 -262.5 141.5t-64.5 248.5q20 126 99 221t200 147t268 52q148 0 256 -52.5
t162 -145.5t38 -213h-183q7 115 -73 179.5t-217 64.5q-97 0 -175.5 -32t-128.5 -87.5t-62 -126.5q-12 -72 23.5 -118.5t97.5 -74.5t126 -46l147 -41q66 -19 135 -49t125 -77t83.5 -117.5t11.5 -170.5q-20 -123 -97 -220t-203 -153.5t-297 -56.5z" />
    <glyph glyph-name="T" unicode="T" horiz-adv-x="1308" 
d="M216 1325l28 165h1132l-28 -165h-471l-219 -1325h-188l219 1325h-473z" />
    <glyph glyph-name="U" unicode="U" horiz-adv-x="1505" 
d="M669 -24q-179 0 -301 70.5t-175.5 192.5t-28.5 275l162 976h188l-161 -974q-18 -109 15 -191.5t111 -128.5t197 -46q123 0 222 49.5t162.5 134.5t81.5 194l159 962h188l-164 -989q-25 -154 -115 -272.5t-229 -185.5t-312 -67z" />
    <glyph glyph-name="V" unicode="V" horiz-adv-x="1396" 
d="M501 0l-301 1490h196l169 -887q17 -86 35.5 -207t42.5 -306h-39q83 182 144 307.5t101 205.5l456 887h202l-790 -1490h-216z" />
    <glyph glyph-name="W" unicode="W" horiz-adv-x="2002" 
d="M359 0l-159 1490h190l84 -918q7 -72 11.5 -147t8.5 -151t5 -156h-23q27 80 56 156t59 151t61 147l395 918h214l89 -918q7 -72 12.5 -147t9.5 -151t6 -156h-26q28 80 57 156t59 151t61 147l388 918h195l-655 -1490h-219l-99 948q-10 94 -15 199t-5 240h38
q-42 -129 -81.5 -234t-83.5 -205l-413 -948h-220z" />
    <glyph glyph-name="X" unicode="X" horiz-adv-x="1380" 
d="M-42 0l720 832l-23 -139l-417 797h210l162 -317q33 -65 56 -113t42.5 -94.5t40.5 -107.5h-32q42 61 77.5 107.5t75 95t94.5 112.5l275 317h219l-681 -789l23 138l439 -839h-209l-198 379q-31 59 -52.5 103.5t-40.5 89t-40 103.5h40q-40 -58 -74 -103t-71.5 -89.5
t-87.5 -103.5l-327 -379h-221z" />
    <glyph glyph-name="Y" unicode="Y" horiz-adv-x="1374" 
d="M501 0l101 611l-402 879h204l215 -481q36 -79 63 -152.5t52 -176.5h-76q58 105 110 179t111 150l375 481h230l-694 -879l-101 -611h-188z" />
    <glyph glyph-name="Z" unicode="Z" horiz-adv-x="1274" 
d="M32 0l23 133l995 1192h-807l28 165h1035l-23 -135l-996 -1190h807l-28 -165h-1034z" />
    <glyph glyph-name="bracketleft" unicode="[" horiz-adv-x="717" 
d="M73 -282l308 1860h392l-24 -152h-221l-259 -1557h221l-25 -151h-392z" />
    <glyph glyph-name="backslash" unicode="\" horiz-adv-x="720" 
d="M392 -224l-186 1784h161l184 -1784h-159z" />
    <glyph glyph-name="bracketright" unicode="]" horiz-adv-x="718" 
d="M-24 -282l24 151h222l258 1557h-221l25 152h392l-308 -1860h-392z" />
    <glyph glyph-name="asciicircum" unicode="^" horiz-adv-x="950" 
d="M588 1360h52l-12 -74h-52zM120 814l401 629h201l197 -629h-170l-152 502h17l-312 -502h-182z" />
    <glyph glyph-name="underscore" unicode="_" horiz-adv-x="933" 
d="M841 0l-26 -165h-933l26 165h933z" />
    <glyph glyph-name="grave" unicode="`" horiz-adv-x="622" 
d="M439 1248l-143 295h199l90 -295h-146z" />
    <glyph glyph-name="a" unicode="a" horiz-adv-x="1235" 
d="M472 -23q-139 0 -233.5 71t-132.5 200t-9 303t110 301.5t199 197.5t257 70q99 0 157.5 -32t89.5 -76t47 -82h12l28 174h178l-183 -1104h-173l28 170h-17q-30 -39 -76.5 -84t-115.5 -77t-166 -32zM527 136q101 0 179.5 53t131 146.5t72.5 216.5q21 123 -0.5 215t-83.5 143
t-163 51q-103 0 -183 -53.5t-131.5 -145.5t-71.5 -210q-19 -120 2 -214t83.5 -148t164.5 -54z" />
    <glyph glyph-name="b" unicode="b" horiz-adv-x="1233" 
d="M582 -23q-100 0 -160.5 32t-94 77.5t-52.5 86.5h-14l-30 -173h-172l247 1490h178l-93 -559h12q29 38 72.5 82t109.5 75.5t163 31.5q122 0 211.5 -54t138 -153t48.5 -236q0 -129 -38.5 -254t-111 -225.5t-177 -160.5t-237.5 -60zM559 136q99 0 175 48t128 127t78.5 173.5
t26.5 187.5q0 131 -62 210t-187 79q-100 0 -176 -47t-127 -125t-77 -172.5t-26 -189.5q0 -133 62.5 -212t184.5 -79z" />
    <glyph glyph-name="c" unicode="c" horiz-adv-x="1149" 
d="M518 -24q-134 0 -230.5 56t-148.5 158t-52 238q0 131 41 254.5t119 222.5t188.5 157t249.5 58q85 0 156 -22.5t124 -65.5t86 -103t40 -135l-175 -30q-4 44 -21 80t-46.5 62t-71 40.5t-96.5 14.5q-101 0 -178.5 -47t-130.5 -124.5t-80 -171.5t-27 -187q0 -85 27 -152
t84 -105.5t146 -38.5q58 0 109 16t93 44.5t73 67t51 84.5l168 -45q-32 -75 -83 -135t-116 -102.5t-141 -65.5t-158 -23z" />
    <glyph glyph-name="d" unicode="d" horiz-adv-x="1233" 
d="M482 -23q-182 0 -288.5 120t-106.5 324q0 131 38 255t111 224.5t178 160t237 59.5q102 0 163 -33t93.5 -78.5t48.5 -83.5h10l93 565h178l-246 -1490h-173l29 169h-15q-30 -41 -74.5 -85.5t-112 -75.5t-163.5 -31zM514 136q100 0 175.5 47.5t127 127t78 175t26.5 189.5
q0 132 -62 209t-187 77q-99 0 -174.5 -47t-127 -124.5t-78 -171t-26.5 -189.5q0 -131 62 -212t186 -81z" />
    <glyph glyph-name="e" unicode="e" horiz-adv-x="1157" 
d="M523 -24q-135 0 -232 52.5t-150 153t-53 245.5q0 147 46 274.5t129 223t193 149.5t236 54q108 0 188.5 -36.5t124.5 -104.5t44 -162t-49 -160.5t-151 -108t-260 -61t-376 -19.5l24 138q183 0 305.5 11t194.5 36t103 66t31 101q0 65 -53 103.5t-143 38.5
q-112 0 -190.5 -52t-128.5 -134.5t-73 -177t-23 -180.5q0 -81 25.5 -147t86 -105.5t162.5 -39.5q109 0 192 47.5t125 128.5l167 -37q-60 -136 -192.5 -216.5t-302.5 -80.5z" />
    <glyph glyph-name="f" unicode="f" horiz-adv-x="734" 
d="M756 1104l-24 -146h-645l24 146h645zM-56 -441q-21 0 -38.5 1.5t-34 4t-37.5 7.5l41 161q17 -4 44 -7t43 -3q73 0 112 37.5t52 120.5l220 1325q18 109 68 184.5t129 114.5t182 39q36 0 69 -4.5t67 -10.5l-44 -152q-18 3 -52 4.5t-62 1.5q-78 0 -121 -44t-58 -137
l-219 -1320q-17 -106 -63.5 -178t-121 -108.5t-176.5 -36.5z" />
    <glyph glyph-name="g" unicode="g" horiz-adv-x="1234" 
d="M448 -440q-127 0 -215 34.5t-140 92t-69 126.5l158 65q15 -36 43 -73.5t82 -63t145 -25.5q139 0 238.5 69.5t122.5 205.5l34 204l-13 -3q-30 -39 -74.5 -81.5t-110 -71.5t-162.5 -29q-119 0 -209 50t-140 145.5t-50 229.5q0 128 39 249.5t112 219.5t177.5 157t235.5 59
q76 0 129 -19.5t87 -50.5t55 -64.5t33 -61.5l16 4l30 176h173l-188 -1133q-25 -146 -103 -236.5t-191.5 -132.5t-244.5 -42zM519 168q102 0 177 44.5t125.5 118.5t75.5 164.5t25 182.5q0 130 -62.5 206.5t-186.5 76.5q-97 0 -172.5 -45t-127.5 -120t-79 -167t-27 -186
q0 -127 64 -201t188 -74z" />
    <glyph glyph-name="h" unicode="h" horiz-adv-x="1191" 
d="M346 658l-109 -658h-178l247 1490h178l-109 -653h-35q51 102 113.5 164.5t135 90.5t155.5 28q112 0 192.5 -46.5t116 -140t11.5 -235.5l-116 -698h-178l114 684q22 132 -34.5 203.5t-173.5 71.5q-78 0 -147.5 -34t-118 -100.5t-64.5 -166.5z" />
    <glyph glyph-name="i" unicode="i" horiz-adv-x="481" 
d="M60 0l183 1104h178l-183 -1104h-178zM363 1292q-50 0 -80.5 35t-22.5 84t50 83.5t93 34.5t81.5 -34.5t22.5 -83.5t-50.5 -84t-93.5 -35z" />
    <glyph glyph-name="j" unicode="j" horiz-adv-x="480" 
d="M242 1104h178l-199 -1199q-16 -99 -63.5 -171.5t-124.5 -112t-181 -39.5h-45l27 162h38q75 0 117 42t55 125zM362 1292q-50 0 -80.5 35t-22.5 84t50 83.5t93 34.5t81.5 -34.5t22.5 -83.5t-50.5 -84t-93.5 -35z" />
    <glyph glyph-name="k" unicode="k" horiz-adv-x="1106" 
d="M292 397l36 218h29l561 489h223l-604 -524h-19zM59 0l247 1490h178l-247 -1490h-178zM765 0l-339 541l147 125l420 -666h-228z" />
    <glyph glyph-name="l" unicode="l" horiz-adv-x="480" 
d="M484 1490l-247 -1490h-178l247 1490h178z" />
    <glyph glyph-name="m" unicode="m" horiz-adv-x="1777" 
d="M59 0l184 1104h173l-39 -242l-17 5q39 88 97.5 145t127 84.5t137.5 27.5q85 0 143.5 -36t89 -97t32.5 -137l-25 12q34 79 94 137t138 89.5t164 31.5q100 0 175 -43.5t110 -130t13 -216.5l-121 -734h-178l123 743q14 81 -8.5 129.5t-68 69t-102.5 20.5q-80 0 -143 -33.5
t-102.5 -90t-51.5 -127.5l-118 -711h-178l126 760q16 95 -35 148.5t-140 53.5q-69 0 -134 -31.5t-112 -94t-62 -152.5l-114 -684h-178z" />
    <glyph glyph-name="n" unicode="n" horiz-adv-x="1191" 
d="M346 652l-109 -652h-178l184 1104h171l-44 -267l-31 5q76 150 177.5 214t225.5 64q114 0 195 -48t115.5 -143t10.5 -237l-115 -692h-178l115 690q22 132 -31 200.5t-167 68.5q-81 0 -153 -35.5t-122 -104t-66 -167.5z" />
    <glyph glyph-name="o" unicode="o" horiz-adv-x="1205" 
d="M518 -24q-134 0 -230.5 56.5t-148.5 158.5t-52 238q0 132 41.5 255.5t119.5 222t188.5 156t248.5 57.5q134 0 231 -56t149 -158t52 -240q0 -134 -42 -257.5t-120.5 -221t-189 -154.5t-247.5 -57zM522 135q102 0 180 47.5t130.5 125t79 171t26.5 184.5q0 86 -27 153
t-84 106t-147 39q-101 0 -178 -47t-130 -125t-80 -172t-27 -187q0 -127 61.5 -211t195.5 -84z" />
    <glyph glyph-name="p" unicode="p" horiz-adv-x="1233" 
d="M-10 -418l253 1522h172l-29 -173h7q28 40 74 84t115 74.5t166 30.5q122 0 211.5 -54t138 -153t48.5 -236q0 -129 -38.5 -254t-111 -225.5t-177 -160.5t-237.5 -60q-100 0 -160.5 34t-93 80.5t-48.5 84.5h-14l-98 -594h-178zM559 136q99 0 175 48t128 127t78.5 173.5
t26.5 187.5q0 131 -62 210t-187 79q-100 0 -176 -47t-127 -125t-77 -172.5t-26 -189.5q0 -133 62.5 -212t184.5 -79z" />
    <glyph glyph-name="q" unicode="q" horiz-adv-x="1233" 
d="M921 -418h-178l98 586h-13q-30 -42 -74.5 -86.5t-110.5 -74.5t-161 -30q-121 0 -210 54t-137 154t-48 236q0 131 38 255t111 224.5t178 160t237 59.5q102 0 164 -34t95.5 -80.5t51.5 -84.5h8l31 183h173zM514 136q100 0 175.5 47.5t127 127t78 175t26.5 189.5
q0 132 -62 209t-187 77q-99 0 -174.5 -47t-127 -124.5t-78 -171t-26.5 -189.5q0 -131 62 -212t186 -81z" />
    <glyph glyph-name="r" unicode="r" horiz-adv-x="747" 
d="M60 0l183 1104h171l-28 -170h10q44 84 128.5 135t184.5 51q21 0 46 -1t40 -2l-30 -179q-11 2 -41 6t-64 4q-75 0 -140.5 -32t-110 -90t-57.5 -137l-114 -689h-178z" />
    <glyph glyph-name="s" unicode="s" horiz-adv-x="1056" 
d="M443 -24q-112 0 -195.5 32t-133 94t-56.5 153q-1 8 -1.5 15.5t0.5 15.5l172 22q5 -92 61 -134.5t155 -42.5q79 0 142.5 25t103.5 66.5t46 92.5q7 52 -26 85.5t-108 51.5l-176 44q-141 34 -205 110t-48 193q12 96 75 168.5t160.5 112.5t212.5 40q160 0 247.5 -68
t108.5 -177q2 -11 3.5 -21.5t2.5 -22.5l-166 -23q-7 67 -52 114t-147 47q-70 0 -128.5 -24t-95.5 -64t-44 -91q-7 -55 29.5 -88t124.5 -54l162 -40q142 -35 205 -110t47 -189q-9 -74 -49 -135t-104 -105.5t-146.5 -68.5t-176.5 -24z" />
    <glyph glyph-name="t" unicode="t" horiz-adv-x="664" 
d="M687 1104l-25 -152h-576l25 152h576zM329 1375h177l-180 -1093q-13 -73 12 -104.5t93 -31.5q19 0 46 3t49 6l4 -150q-27 -7 -62 -11.5t-70 -4.5q-144 0 -209 73t-44 206z" />
    <glyph glyph-name="u" unicode="u" horiz-adv-x="1192" 
d="M439 -15q-111 0 -189 46t-111.5 140t-10.5 235l115 698h178l-113 -683q-21 -130 33.5 -203t172.5 -73q78 0 147.5 34t118.5 101t65 166l108 658h179l-183 -1104h-172l44 268h29q-76 -154 -181.5 -218.5t-229.5 -64.5z" />
    <glyph glyph-name="v" unicode="v" horiz-adv-x="1128" 
d="M380 0l-240 1104h185l129 -651q19 -97 29.5 -193.5t23.5 -187.5h-61q43 91 85.5 187.5t94.5 193.5l343 651h202l-605 -1104h-186z" />
    <glyph glyph-name="w" unicode="w" horiz-adv-x="1646" 
d="M307 0l-154 1104h186l55 -482q12 -102 22.5 -225t17.5 -272h-29q53 143 103.5 266.5t98.5 230.5l214 482h187l52 -482q11 -102 20.5 -225t16.5 -272h-31q54 144 105 266.5t99 230.5l216 482h190l-519 -1104h-179l-60 500q-9 71 -16.5 149t-14 162t-13.5 170h41
q-35 -85 -69.5 -168t-68 -162t-66.5 -152l-227 -499h-177z" />
    <glyph glyph-name="x" unicode="x" horiz-adv-x="1100" 
d="M-34 0l546 634l-24 -136l-317 606h200l105 -215q39 -79 66.5 -149.5t58.5 -137.5h-92q54 67 103 137.5t114 149.5l178 215h212l-520 -612l21 132l334 -624h-201l-124 249q-38 77 -65 145t-58 132h93q-52 -64 -99.5 -132t-111.5 -145l-208 -249h-211z" />
    <glyph glyph-name="y" unicode="y" horiz-adv-x="1128" 
d="M-20 -408l62 155l36 -3q50 -10 92.5 -2t80.5 43t74 107l55 105l-240 1107h186l128 -651q19 -97 30 -193.5t24 -187.5h-62q44 91 86 187.5t94 193.5l344 651h201l-702 -1277q-45 -84 -101.5 -140t-123 -83.5t-142.5 -27.5q-40 0 -72.5 5.5t-49.5 10.5z" />
    <glyph glyph-name="z" unicode="z" horiz-adv-x="1097" 
d="M27 0l23 133l740 798l2 10h-593l27 163h827l-24 -141l-722 -790l-2 -9h608l-26 -164h-860z" />
    <glyph glyph-name="braceleft" unicode="{" horiz-adv-x="856" 
d="M152 638l16 99q123 0 180 50.5t76 168.5l38 231q17 101 49.5 175t85 121.5t130 71t184.5 23.5l-24 -150q-127 1 -183 -58.5t-77 -184.5l-48 -288q-9 -56 -32 -103.5t-69.5 -82.5t-125 -54t-200.5 -19zM603 -282q-106 0 -176 22.5t-107 69.5t-45.5 121.5t8.5 176.5l38 229
q20 118 -19.5 169.5t-161.5 52.5l16 99q120 0 192 -20t107 -55t42.5 -82.5t-1.5 -104.5l-47 -285q-21 -127 16 -186t164 -59zM139 558l30 180h179l-31 -180h-178z" />
    <glyph glyph-name="bar" unicode="|" horiz-adv-x="664" 
d="M643 1970l-404 -2450h-155l404 2450h155z" />
    <glyph glyph-name="braceright" unicode="}" horiz-adv-x="855" 
d="M731 638q-121 0 -193.5 19t-107.5 54t-42 82.5t2 103.5l48 288q21 125 -15.5 184.5t-164.5 58.5l25 150q108 0 178 -23.5t106.5 -71t45 -121.5t-8.5 -175l-38 -231q-20 -118 19.5 -168.5t161.5 -50.5zM-25 -282l25 148q127 0 183 59t77 186l47 285q9 57 32.5 104.5
t70 82.5t125 55t199.5 20l-16 -99q-124 -1 -180 -53t-75 -169l-38 -229q-16 -101 -48 -174.5t-84.5 -121.5t-131 -71t-186.5 -23zM718 559l-178 -1l30 180l177 -1z" />
    <glyph glyph-name="asciitilde" unicode="~" horiz-adv-x="1341" 
d="M142 440q19 122 71.5 197t123.5 108.5t147 33.5q74 0 130 -31.5t126 -101.5q45 -46 76 -65t69 -19q63 0 106.5 45t56.5 132h161q-17 -121 -69 -194.5t-123.5 -107t-147.5 -33.5q-75 0 -130 33.5t-124 100.5q-45 46 -77.5 62.5t-71.5 16.5q-58 0 -102 -41t-59 -136h-163z
" />
    <glyph glyph-name="uni00A0" unicode="&#xa0;" horiz-adv-x="562" 
 />
    <glyph glyph-name="exclamdown" unicode="&#xa1;" horiz-adv-x="561" 
d="M27 -374l183 1025h177l-158 -1025h-202zM332 861q-55 0 -88 39t-23 95q9 55 54.5 94t100.5 39t88 -39t24 -94q-10 -56 -55.5 -95t-100.5 -39z" />
    <glyph glyph-name="cent" unicode="&#xa2;" horiz-adv-x="1149" 
d="M439 0l247 1490h124l-247 -1490h-124zM550 172q-133 0 -229.5 56t-148.5 157.5t-52 238.5q0 131 41 254.5t118.5 222.5t188 157t250.5 58q84 0 155.5 -22.5t124.5 -65.5t85.5 -103t40.5 -135l-175 -30q-4 44 -21 80t-46.5 62t-71 40.5t-97.5 14.5q-100 0 -177.5 -47
t-130.5 -125t-80 -171.5t-27 -187.5q0 -84 26.5 -151t83.5 -105.5t146 -38.5q59 0 110 16t92.5 44.5t73 67t51.5 84.5l168 -45q-32 -75 -83 -135t-116 -102.5t-141 -65.5t-159 -23z" />
    <glyph glyph-name="sterling" unicode="&#xa3;" horiz-adv-x="1237" 
d="M32 118l7 47q80 0 132.5 46.5t66.5 153.5l90 686q17 135 87 238.5t179.5 162t246.5 58.5q118 0 206.5 -49t136 -136.5t41.5 -204.5l-175 -22q4 116 -53.5 181.5t-167.5 65.5q-87 0 -155.5 -35.5t-112 -100t-55.5 -153.5l-90 -685q-9 -67 -40.5 -112t-75.5 -73t-93 -43
t-95 -20t-80 -5zM12 0l27 165h777q44 0 67.5 19.5t30.5 65.5l10 62h169l-8 -47q-23 -135 -97.5 -200t-204.5 -65h-771zM123 670l24 150h801l-24 -150h-801z" />
    <glyph glyph-name="currency" unicode="&#xa4;" horiz-adv-x="1469" 
d="M636 -20q-123 0 -223 47.5t-167 133t-94 200t-6 247.5q22 133 86.5 247t160 199t211 132.5t238.5 47.5q122 0 222.5 -47t169.5 -131.5t97.5 -198.5t6.5 -248t-88 -248.5t-162.5 -200t-212.5 -133t-239 -47.5zM662 142q89 0 173 36t154 100t118 148t63 180q23 130 -18 236
t-129 169t-207 63t-227 -62.5t-183.5 -168t-97.5 -235.5q-22 -127 19 -233t128.5 -169.5t206.5 -63.5zM1215 925l-97 124l235 206l102 -124zM1142 -15l-166 206l139 122l168 -204zM135 -15l-97 124l236 204l100 -122zM376 925l-166 206l137 124l169 -206z" />
    <glyph glyph-name="yen" unicode="&#xa5;" horiz-adv-x="1113" 
d="M387 1490l241 -825l-155 -65l-293 890h207zM527 665l513 825h207l-589 -890zM691 782l-131 -782h-188l132 782h187zM1007 744l-21 -136h-838l21 136h838zM960 456l-21 -136h-837l21 136h837z" />
    <glyph glyph-name="brokenbar" unicode="&#xa6;" horiz-adv-x="537" 
d="M160 403h167l-114 -683h-167zM507 1490l-114 -679h-167l114 679h167z" />
    <glyph glyph-name="section" unicode="&#xa7;" horiz-adv-x="1147" 
d="M413 -302q-116 0 -192 38t-114 110t-38 172l168 32q5 -92 50 -145t155 -53q93 0 157 40.5t77 119.5q9 55 -10 92t-50.5 63t-62.5 45l-255 164q-58 38 -97.5 89t-56.5 110t-7 120q10 60 46.5 117t93 95.5t125.5 43.5l3 4q-54 56 -77.5 112.5t-10.5 134.5q16 95 73.5 164
t147 106.5t200.5 37.5t181.5 -38t106.5 -109.5t41 -175.5l-162 -31q-10 96 -49.5 148t-140.5 52q-95 0 -155 -43t-72 -116q-8 -53 10.5 -90.5t51 -63.5t63.5 -47l254 -166q60 -39 98.5 -90.5t55 -108.5t6.5 -116q-10 -62 -47.5 -118t-94 -92.5t-122.5 -43.5l-3 -6
q39 -35 62 -73.5t30 -82.5t-1 -93q-15 -94 -75 -163.5t-153.5 -107t-209.5 -37.5zM650 350q28 -18 75 -5.5t88.5 53.5t52.5 107q7 41 -3 76t-35 65.5t-66 55.5l-259 164q-29 19 -73 5t-82 -55.5t-49 -106.5q-6 -40 2.5 -75.5t34.5 -67.5t70 -60z" />
    <glyph glyph-name="dieresis" unicode="&#xa8;" horiz-adv-x="1191" 
d="M928 1292q-48 0 -77 35t-21 84q8 48 48.5 82.5t89.5 34.5t77.5 -34.5t20.5 -82.5q-8 -49 -48.5 -84t-89.5 -35zM508 1292q-49 0 -77.5 35t-20.5 84q7 48 48 82.5t90 34.5q48 0 76.5 -34.5t20.5 -82.5q-7 -49 -47.5 -84t-89.5 -35z" />
    <glyph glyph-name="copyright" unicode="&#xa9;" horiz-adv-x="1859" 
d="M536 744q20 120 94 218t181.5 156t226.5 58q104 0 184.5 -44.5t126 -120.5t43.5 -173h-176q-3 74 -61.5 122t-142.5 48q-72 0 -138 -35.5t-112 -95.5t-58 -133q-12 -72 14 -131.5t80.5 -95t126.5 -35.5q84 0 150 47.5t94 122.5h176q-29 -97 -95 -174t-156.5 -121.5
t-194.5 -44.5q-119 0 -208 58.5t-131.5 156.5t-23.5 217zM834 -23q-141 0 -260 49t-206.5 136.5t-136.5 204.5t-49 252q0 177 73.5 338t200 286.5t289.5 197.5t343 72q142 0 261 -49t206.5 -136t136 -203.5t48.5 -252.5q0 -177 -73 -338.5t-199.5 -286.5t-290 -197.5
t-343.5 -72.5zM863 150q140 0 266 56t224.5 153t155 222t56.5 263q0 140 -65.5 252.5t-179.5 178t-259 65.5q-140 0 -266.5 -56t-225 -153t-155 -221.5t-56.5 -261.5q0 -141 65.5 -253.5t180 -178.5t259.5 -66z" />
    <glyph glyph-name="ordfeminine" unicode="&#xaa;" horiz-adv-x="915" 
d="M382 645q-84 0 -148 29.5t-94 86.5t-17 139q16 96 75.5 147t142 73.5t167.5 31.5q121 13 174.5 22.5t60.5 54.5l1 4q11 67 -27 105.5t-123 38.5q-57 0 -102 -16.5t-76 -43t-47 -58.5l-156 30q38 77 101 127t141 74t160 24q59 0 117 -14t104 -47t68 -88.5t7 -140.5
l-92 -562h-165l19 116h-8q-34 -50 -104 -91.5t-179 -41.5zM439 779q75 0 130.5 27t89.5 70t42 92l18 104q-14 -10 -55 -19t-88.5 -14.5t-81.5 -10.5q-77 -10 -135 -38.5t-69 -91.5q-10 -57 32.5 -88t116.5 -31z" />
    <glyph glyph-name="guillemotleft" unicode="&#xab;" horiz-adv-x="1166" 
d="M417 144l-317 465l471 465h204l-464 -465l310 -465h-204zM823 144l-317 465l471 465h204l-464 -465l310 -465h-204z" />
    <glyph glyph-name="logicalnot" unicode="&#xac;" horiz-adv-x="1341" 
d="M850 315l45 272h-668l26 158h836l-71 -430h-168z" />
    <glyph glyph-name="registered" unicode="&#xae;" horiz-adv-x="1348" 
d="M639 346q-120 0 -218 45.5t-165 125.5t-94.5 185.5t-7.5 225.5t82.5 225.5t156 185.5t206.5 125.5t233 45.5q121 0 219 -45.5t164.5 -125.5t94.5 -185.5t8 -225.5t-83 -225.5t-156 -185.5t-206 -125.5t-234 -45.5zM663 487q92 0 177.5 34t156 95t118 141t62.5 171
q20 122 -23 222t-133 159.5t-212 59.5q-91 0 -176.5 -34t-156.5 -95t-118.5 -140.5t-62.5 -171.5q-20 -122 23 -222t133.5 -159.5t211.5 -59.5zM811 661l-89 252h133l91 -252h-135zM484 661l89 536h264q41 0 79 -19t59 -57.5t11 -96.5t-45 -99t-81 -62.5t-90 -21.5h-183
l15 94h155q28 0 58.5 22.5t38.5 66.5q7 45 -17 63t-50 18h-106l-74 -444h-123z" />
    <glyph glyph-name="macron" unicode="&#xaf;" horiz-adv-x="946" 
d="M903 1474l-24 -141h-554l24 141h554z" />
    <glyph glyph-name="degree" unicode="&#xb0;" horiz-adv-x="918" 
d="M550 830q-93 0 -167.5 45t-117 121t-39.5 168q3 93 51.5 170t126 122.5t170.5 45.5t167 -45.5t116.5 -122.5t39.5 -170q-4 -92 -51.5 -168t-125.5 -121t-170 -45zM555 979q52 0 94.5 25t69.5 67t28 93q2 53 -21.5 95t-64 67.5t-92.5 25.5t-95.5 -25t-70.5 -67.5
t-29 -95.5q-2 -51 22 -93t66 -67t93 -25z" />
    <glyph glyph-name="plusminus" unicode="&#xb1;" horiz-adv-x="1341" 
d="M120 69l27 167h942l-27 -167h-942zM218 658l27 167h941l-26 -167h-942zM556 363l124 757h169l-125 -757h-168z" />
    <glyph glyph-name="two.sups" unicode="&#xb2;" horiz-adv-x="880" 
d="M166 893l20 124l382 265q52 37 88.5 65.5t57 55.5t25.5 59q9 54 -31 86t-109 32q-71 0 -121 -33.5t-60 -91.5h-164q19 118 121.5 189t246.5 71q148 0 227 -67t61 -173q-6 -35 -21.5 -69.5t-48.5 -71.5t-88.5 -80t-139.5 -98l-181 -118l-1 -6h428l-23 -139h-669z" />
    <glyph glyph-name="three.sups" unicode="&#xb3;" horiz-adv-x="892" 
d="M503 882q-100 0 -174 31t-110.5 86t-25.5 127h174q-6 -47 40 -75.5t121 -28.5q77 0 131 31.5t62 79.5q8 50 -40 80.5t-137 30.5h-77l20 124h77q76 0 130 30t62 78q8 46 -30 75t-106 29q-70 0 -122.5 -29t-61.5 -76h-166q13 71 65.5 125t133 84.5t175.5 30.5
q143 0 220.5 -65.5t61.5 -163.5q-11 -68 -69 -113.5t-141 -57.5l-1 -5q101 -13 148.5 -63t35.5 -126q-12 -69 -66.5 -123.5t-139.5 -85t-190 -30.5z" />
    <glyph glyph-name="acute" unicode="&#xb4;" horiz-adv-x="420" 
d="M160 1273l186 275h199l-240 -275h-145z" />
    <glyph glyph-name="uni00B5" unicode="&#xb5;" horiz-adv-x="1186" 
d="M-9 -418l252 1522h177l-109 -664q-18 -106 7.5 -172t82 -96.5t131.5 -30.5q77 0 141.5 31.5t109 97.5t61.5 170l110 664h178l-141 -852q-9 -55 11 -77t81 -22h29l-26 -153h-34q-138 0 -197 63.5t-38 186.5l17 101h41q-18 -111 -61 -182.5t-98.5 -111.5t-111 -56.5
t-100.5 -16.5t-95.5 16.5t-92 56.5t-60 111.5t-0.5 182.5h40l-127 -769h-178z" />
    <glyph glyph-name="paragraph" unicode="&#xb6;" horiz-adv-x="1216" 
d="M1157 1325h-352l-128 -773h-84q-159 0 -259 61.5t-139 168t-17 240.5q23 135 97.5 240.5t194.5 166.5t278 61h436zM766 0l247 1490h185l-248 -1490h-184z" />
    <glyph glyph-name="periodcentered" unicode="&#xb7;" horiz-adv-x="558" 
d="M293 575q-58 0 -93.5 42.5t-26.5 102.5q9 52 50.5 86t90.5 34q60 0 94.5 -42.5t25.5 -99.5q-7 -51 -48 -87t-93 -36z" />
    <glyph glyph-name="cedilla" unicode="&#xb8;" horiz-adv-x="534" 
d="M-11 -418l17 105h118q54 0 78.5 15t30.5 50t-13 50.5t-74 15.5h-82l68 230h95l-8 -48l-14 -86q93 -4 133.5 -43t27.5 -117q-14 -88 -77 -130t-181 -42h-119z" />
    <glyph glyph-name="one.sups" unicode="&#xb9;" horiz-adv-x="604" 
d="M676 1705l-134 -812h-172l110 662h-7l-239 -127l26 152l231 125h185z" />
    <glyph glyph-name="ordmasculine" unicode="&#xba;" horiz-adv-x="971" 
d="M500 645q-124 0 -207.5 55t-119 152.5t-13.5 226.5q22 131 89 229t169.5 152.5t226.5 54.5t207.5 -54.5t119.5 -152.5t14 -229q-21 -129 -89.5 -227t-170.5 -152.5t-226 -54.5zM524 788q81 0 141 39t98 104.5t51 147.5q14 82 -2 148t-63 105.5t-128 39.5q-80 0 -140 -39
t-98 -105.5t-51 -148.5q-14 -82 2 -148t63 -104.5t127 -38.5z" />
    <glyph glyph-name="guillemotright" unicode="&#xbb;" horiz-adv-x="1167" 
d="M4 144l464 465l-310 465h204l317 -465l-471 -465h-204zM410 144l464 465l-310 465h204l317 -465l-471 -465h-204z" />
    <glyph glyph-name="onequarter" unicode="&#xbc;" horiz-adv-x="1588" 
d="M578 1490l-134 -812h-156l114 679h-8l-204 -131l23 140l194 124h171zM69 0l1271 1490h170l-1271 -1490h-170zM811 138l20 122l434 552h108l-29 -179h-67l-285 -362l-1 -8h476l-21 -125h-635zM1175 0l29 175l14 54l96 583h145l-135 -812h-149z" />
    <glyph glyph-name="onehalf" unicode="&#xbd;" horiz-adv-x="1691" 
d="M578 1490l-134 -812h-156l114 679h-8l-204 -131l23 140l194 124h171zM69 0l1271 1490h170l-1271 -1490h-170zM940 0l18 111l331 276q50 41 81 73t48.5 61.5t21.5 60.5q9 57 -22.5 88t-86.5 31q-58 0 -101.5 -34t-53.5 -90h-148q19 112 103 178.5t207 66.5
q127 0 199 -65.5t53 -168.5q-6 -30 -20 -61t-43 -68.5t-78.5 -87t-125.5 -116.5l-141 -122l-1 -7h353l-21 -126h-573z" />
    <glyph glyph-name="threequarters" unicode="&#xbe;" horiz-adv-x="1749" 
d="M406 668q-82 0 -146.5 28t-97.5 79t-23 118h157q-5 -41 32.5 -68.5t96.5 -27.5q60 0 105.5 32t55.5 84q11 56 -28 89.5t-112 33.5h-66l18 113h67q63 0 108.5 33t53.5 84q7 49 -21.5 79.5t-83.5 30.5q-57 0 -102 -29t-53 -77h-150q12 69 58.5 120.5t115 80.5t148.5 29
q123 0 189.5 -66t50.5 -163q-11 -68 -62 -113.5t-124 -58.5l-1 -6q91 -13 130.5 -63t25.5 -127q-18 -103 -113 -169t-229 -66zM230 0l1271 1490h170l-1271 -1490h-170zM971 138l20 122l434 552h108l-29 -179h-67l-285 -362l-1 -8h476l-21 -125h-635zM1335 0l29 175l14 54
l96 583h145l-135 -812h-149z" />
    <glyph glyph-name="questiondown" unicode="&#xbf;" horiz-adv-x="1024" 
d="M651 669l-5 -27q-22 -130 -62 -201.5t-96.5 -113.5t-133.5 -86q-77 -45 -130 -107t-66 -144q-11 -70 13 -121t76 -79t123 -28q66 0 127.5 27t106.5 83t64 141h187q-24 -128 -95 -220t-174 -141t-227 -49q-129 0 -222 50.5t-136 139t-24 202.5q19 118 87.5 205.5
t176.5 149.5q72 42 116.5 77.5t70 85.5t39.5 133l4 23h180zM635 1128q55 0 87.5 -38.5t23.5 -93.5t-54 -94t-101 -39q-54 0 -86.5 39t-23.5 94t54 93.5t100 38.5z" />
    <glyph glyph-name="Agrave" unicode="&#xc0;" horiz-adv-x="1396" 
d="M-47 0l790 1490h217l300 -1490h-190l-168 887q-14 75 -34 200t-44 314h39q-83 -182 -142.5 -306t-102.5 -208l-458 -887h-207zM297 416l27 165h757l-27 -165h-757zM807 1634l-143 295h199l90 -295h-146z" />
    <glyph glyph-name="Aacute" unicode="&#xc1;" horiz-adv-x="1396" 
d="M-47 0l790 1490h217l300 -1490h-190l-168 887q-14 75 -34 200t-44 314h39q-83 -182 -142.5 -306t-102.5 -208l-458 -887h-207zM297 416l27 165h757l-27 -165h-757zM796 1659l186 275h199l-240 -275h-145z" />
    <glyph glyph-name="Acircumflex" unicode="&#xc2;" horiz-adv-x="1396" 
d="M-47 0l790 1490h217l300 -1490h-190l-168 887q-14 75 -34 200t-44 314h39q-83 -182 -142.5 -306t-102.5 -208l-458 -887h-207zM297 416l27 165h757l-27 -165h-757zM737 1653h-176l2 8l278 268h170l191 -268l-2 -8h-177l-113 176z" />
    <glyph glyph-name="Atilde" unicode="&#xc3;" horiz-adv-x="1396" 
d="M-47 0l790 1490h217l300 -1490h-190l-168 887q-14 75 -34 200t-44 314h39q-83 -182 -142.5 -306t-102.5 -208l-458 -887h-207zM297 416l27 165h757l-27 -165h-757zM1018 1687q-37 0 -70.5 12.5t-62.5 29t-53 29t-43 12.5q-27 0 -43.5 -25.5t-22.5 -53.5h-126
q19 91 68 149t128 58q39 0 70 -13t57.5 -29.5t50.5 -29.5t49 -13q26 0 41.5 19.5t27.5 61.5h122q-19 -96 -70 -151.5t-123 -55.5z" />
    <glyph glyph-name="Adieresis" unicode="&#xc4;" horiz-adv-x="1396" 
d="M-47 0l790 1490h217l300 -1490h-190l-168 887q-14 75 -34 200t-44 314h39q-83 -182 -142.5 -306t-102.5 -208l-458 -887h-207zM297 416l27 165h757l-27 -165h-757zM1095 1678q-48 0 -77 35t-21 84q8 48 48.5 82.5t89.5 34.5t77.5 -34.5t20.5 -82.5q-8 -49 -48.5 -84
t-89.5 -35zM675 1678q-49 0 -77.5 35t-20.5 84q7 48 48 82.5t90 34.5q48 0 76.5 -34.5t20.5 -82.5q-7 -49 -47.5 -84t-89.5 -35z" />
    <glyph glyph-name="Aring" unicode="&#xc5;" horiz-adv-x="1396" 
d="M-47 0l790 1490h217l300 -1490h-190l-168 887q-14 75 -34 200t-44 314h39q-83 -182 -142.5 -306t-102.5 -208l-458 -887h-207zM297 416l27 165h757l-27 -165h-757zM874 1550q-75 0 -130.5 35t-81.5 94t-14 129q11 65 52 118.5t102.5 84.5t131.5 31q75 0 130 -34.5
t81.5 -93t15.5 -129.5q-11 -66 -53.5 -119.5t-103.5 -84.5t-130 -31zM884 1674q49 0 91 34.5t51 85.5q10 52 -19.5 88.5t-81.5 36.5q-51 0 -92.5 -35.5t-50.5 -86.5q-9 -50 20.5 -86.5t81.5 -36.5z" />
    <glyph glyph-name="AE" unicode="&#xc6;" horiz-adv-x="2010" 
d="M-47 0l954 1490h1128l-28 -165h-717l-81 -495h669l-27 -166h-670l-83 -499h728l-28 -165h-915l219 1321h-115l-829 -1321h-205zM364 423l27 165h685l-27 -165h-685z" />
    <glyph glyph-name="Ccedilla" unicode="&#xc7;" horiz-adv-x="1491" 
d="M698 -21q-172 0 -299 73.5t-196.5 208.5t-69.5 321q0 177 56 343t160 298.5t251 210t330 77.5q116 0 212.5 -33.5t168 -97.5t111.5 -155t41 -207h-188q-4 77 -31.5 136t-74.5 100t-110 62t-136 21q-142 0 -254 -64t-191 -172t-120.5 -242t-41.5 -273t49 -236t136.5 -147
t203.5 -50q78 0 151 21t136.5 61.5t113 99.5t78.5 136h189q-39 -114 -106.5 -204.5t-157 -155t-194 -98.5t-217.5 -34zM503 -427l17 105h118q54 0 78.5 15t30.5 50t-13 50.5t-74 15.5h-82l68 230h95l-8 -48l-14 -86q93 -4 133.5 -43t27.5 -117q-14 -88 -77 -130t-181 -42
h-119z" />
    <glyph glyph-name="Egrave" unicode="&#xc8;" horiz-adv-x="1221" 
d="M81 0l247 1490h922l-28 -165h-734l-80 -487h683l-28 -166h-683l-84 -507h741l-27 -165h-929zM746 1634l-143 295h199l90 -295h-146z" />
    <glyph glyph-name="Eacute" unicode="&#xc9;" horiz-adv-x="1221" 
d="M81 0l247 1490h922l-28 -165h-734l-80 -487h683l-28 -166h-683l-84 -507h741l-27 -165h-929zM735 1659l186 275h199l-240 -275h-145z" />
    <glyph glyph-name="Ecircumflex" unicode="&#xca;" horiz-adv-x="1221" 
d="M81 0l247 1490h922l-28 -165h-734l-80 -487h683l-28 -166h-683l-84 -507h741l-27 -165h-929zM676 1653h-176l2 8l278 268h170l191 -268l-2 -8h-177l-113 176z" />
    <glyph glyph-name="Edieresis" unicode="&#xcb;" horiz-adv-x="1221" 
d="M81 0l247 1490h922l-28 -165h-734l-80 -487h683l-28 -166h-683l-84 -507h741l-27 -165h-929zM1034 1678q-48 0 -77 35t-21 84q8 48 48.5 82.5t89.5 34.5t77.5 -34.5t20.5 -82.5q-8 -49 -48.5 -84t-89.5 -35zM614 1678q-49 0 -77.5 35t-20.5 84q7 48 48 82.5t90 34.5
q48 0 76.5 -34.5t20.5 -82.5q-7 -49 -47.5 -84t-89.5 -35z" />
    <glyph glyph-name="Igrave" unicode="&#xcc;" horiz-adv-x="534" 
d="M516 1490l-247 -1490h-188l247 1490h188zM375 1634l-143 295h199l90 -295h-146z" />
    <glyph glyph-name="Iacute" unicode="&#xcd;" horiz-adv-x="534" 
d="M516 1490l-247 -1490h-188l247 1490h188zM365 1659l186 275h199l-240 -275h-145z" />
    <glyph glyph-name="Icircumflex" unicode="&#xce;" horiz-adv-x="534" 
d="M516 1490l-247 -1490h-188l247 1490h188zM305 1653h-176l2 8l278 268h170l191 -268l-2 -8h-177l-113 176z" />
    <glyph glyph-name="Idieresis" unicode="&#xcf;" horiz-adv-x="534" 
d="M516 1490l-247 -1490h-188l247 1490h188zM663 1678q-48 0 -77 35t-21 84q8 48 48.5 82.5t89.5 34.5t77.5 -34.5t20.5 -82.5q-8 -49 -48.5 -84t-89.5 -35zM243 1678q-49 0 -77.5 35t-20.5 84q7 48 48 82.5t90 34.5q48 0 76.5 -34.5t20.5 -82.5q-7 -49 -47.5 -84t-89.5 -35
z" />
    <glyph glyph-name="Eth" unicode="&#xd0;" horiz-adv-x="1499" 
d="M612 0h-390l26 166h348q183 0 315 70.5t212.5 201t110.5 310.5t-5.5 309t-138 198t-274.5 69h-383l28 166h366q218 0 363 -89.5t205.5 -256t21.5 -398.5q-39 -234 -143 -401t-270 -256t-392 -89zM552 1490l-247 -1490h-188l247 1490h188zM44 667l25 156h770l-25 -156
h-770z" />
    <glyph glyph-name="Ntilde" unicode="&#xd1;" horiz-adv-x="1523" 
d="M81 0l247 1490h213l451 -957q14 -30 38 -85.5t52 -127t53 -153.5l-21 -8q6 79 15 155t19 141.5t17 109.5l153 925h188l-247 -1490h-214l-402 851q-23 50 -49.5 111.5t-61.5 147.5t-85 209l26 11q-15 -120 -26.5 -213t-20.5 -158.5t-16 -105.5l-140 -853h-189zM1082 1687
q-37 0 -70.5 12.5t-62.5 29t-53 29t-43 12.5q-27 0 -43.5 -25.5t-22.5 -53.5h-126q19 91 68 149t128 58q39 0 70 -13t57.5 -29.5t50.5 -29.5t49 -13q26 0 41.5 19.5t27.5 61.5h122q-19 -96 -70 -151.5t-123 -55.5z" />
    <glyph glyph-name="Ograve" unicode="&#xd2;" horiz-adv-x="1559" 
d="M696 -21q-170 0 -296.5 73.5t-196.5 209t-70 320.5q0 177 56 343.5t161 298t251 209.5t327 78q170 0 296 -73.5t195.5 -208.5t69.5 -321q0 -178 -56 -344t-160.5 -298t-250.5 -209.5t-326 -77.5zM703 153q140 0 252 64t190.5 172t119.5 241.5t41 273.5q0 141 -49.5 237.5
t-136.5 146t-199 49.5q-140 0 -252 -64t-191 -172.5t-120.5 -241.5t-41.5 -273q0 -141 49.5 -237.5t137 -146t200.5 -49.5zM888 1634l-143 295h199l90 -295h-146z" />
    <glyph glyph-name="Oacute" unicode="&#xd3;" horiz-adv-x="1559" 
d="M696 -21q-170 0 -296.5 73.5t-196.5 209t-70 320.5q0 177 56 343.5t161 298t251 209.5t327 78q170 0 296 -73.5t195.5 -208.5t69.5 -321q0 -178 -56 -344t-160.5 -298t-250.5 -209.5t-326 -77.5zM703 153q140 0 252 64t190.5 172t119.5 241.5t41 273.5q0 141 -49.5 237.5
t-136.5 146t-199 49.5q-140 0 -252 -64t-191 -172.5t-120.5 -241.5t-41.5 -273q0 -141 49.5 -237.5t137 -146t200.5 -49.5zM878 1659l186 275h199l-240 -275h-145z" />
    <glyph glyph-name="Ocircumflex" unicode="&#xd4;" horiz-adv-x="1559" 
d="M696 -21q-170 0 -296.5 73.5t-196.5 209t-70 320.5q0 177 56 343.5t161 298t251 209.5t327 78q170 0 296 -73.5t195.5 -208.5t69.5 -321q0 -178 -56 -344t-160.5 -298t-250.5 -209.5t-326 -77.5zM703 153q140 0 252 64t190.5 172t119.5 241.5t41 273.5q0 141 -49.5 237.5
t-136.5 146t-199 49.5q-140 0 -252 -64t-191 -172.5t-120.5 -241.5t-41.5 -273q0 -141 49.5 -237.5t137 -146t200.5 -49.5zM819 1653h-176l2 8l278 268h170l191 -268l-2 -8h-177l-113 176z" />
    <glyph glyph-name="Otilde" unicode="&#xd5;" horiz-adv-x="1559" 
d="M696 -21q-170 0 -296.5 73.5t-196.5 209t-70 320.5q0 177 56 343.5t161 298t251 209.5t327 78q170 0 296 -73.5t195.5 -208.5t69.5 -321q0 -178 -56 -344t-160.5 -298t-250.5 -209.5t-326 -77.5zM703 153q140 0 252 64t190.5 172t119.5 241.5t41 273.5q0 141 -49.5 237.5
t-136.5 146t-199 49.5q-140 0 -252 -64t-191 -172.5t-120.5 -241.5t-41.5 -273q0 -141 49.5 -237.5t137 -146t200.5 -49.5zM1100 1687q-37 0 -70.5 12.5t-62.5 29t-53 29t-43 12.5q-27 0 -43.5 -25.5t-22.5 -53.5h-126q19 91 68 149t128 58q39 0 70 -13t57.5 -29.5
t50.5 -29.5t49 -13q26 0 41.5 19.5t27.5 61.5h122q-19 -96 -70 -151.5t-123 -55.5z" />
    <glyph glyph-name="Odieresis" unicode="&#xd6;" horiz-adv-x="1559" 
d="M696 -21q-170 0 -296.5 73.5t-196.5 209t-70 320.5q0 177 56 343.5t161 298t251 209.5t327 78q170 0 296 -73.5t195.5 -208.5t69.5 -321q0 -178 -56 -344t-160.5 -298t-250.5 -209.5t-326 -77.5zM703 153q140 0 252 64t190.5 172t119.5 241.5t41 273.5q0 141 -49.5 237.5
t-136.5 146t-199 49.5q-140 0 -252 -64t-191 -172.5t-120.5 -241.5t-41.5 -273q0 -141 49.5 -237.5t137 -146t200.5 -49.5zM1176 1678q-48 0 -77 35t-21 84q8 48 48.5 82.5t89.5 34.5t77.5 -34.5t20.5 -82.5q-8 -49 -48.5 -84t-89.5 -35zM756 1678q-49 0 -77.5 35t-20.5 84
q7 48 48 82.5t90 34.5q48 0 76.5 -34.5t20.5 -82.5q-7 -49 -47.5 -84t-89.5 -35z" />
    <glyph glyph-name="multiply" unicode="&#xd7;" horiz-adv-x="1341" 
d="M954 112l-686 823l125 109l687 -823zM262 116l-107 124l938 801l107 -125z" />
    <glyph glyph-name="Oslash" unicode="&#xd8;" horiz-adv-x="1559" 
d="M696 -21q-170 0 -296.5 73.5t-196.5 209t-70 320.5q0 177 56 343.5t161 298t251 209.5t327 78q170 0 296 -73.5t195.5 -208.5t69.5 -321q0 -178 -56 -344t-160.5 -298t-250.5 -209.5t-326 -77.5zM703 153q140 0 252 64t190.5 172t119.5 241.5t41 273.5q0 141 -49.5 237.5
t-136.5 146t-199 49.5q-140 0 -252 -64t-191 -172.5t-120.5 -241.5t-41.5 -273q0 -141 49.5 -237.5t137 -146t200.5 -49.5zM204 -48l-115 94l1333 1492l114 -95z" />
    <glyph glyph-name="Ugrave" unicode="&#xd9;" horiz-adv-x="1505" 
d="M669 -24q-179 0 -301 70.5t-175.5 192.5t-28.5 275l162 976h188l-161 -974q-18 -109 15 -191.5t111 -128.5t197 -46q123 0 222 49.5t162.5 134.5t81.5 194l159 962h188l-164 -989q-25 -154 -115 -272.5t-229 -185.5t-312 -67zM861 1634l-143 295h199l90 -295h-146z" />
    <glyph glyph-name="Uacute" unicode="&#xda;" horiz-adv-x="1505" 
d="M669 -24q-179 0 -301 70.5t-175.5 192.5t-28.5 275l162 976h188l-161 -974q-18 -109 15 -191.5t111 -128.5t197 -46q123 0 222 49.5t162.5 134.5t81.5 194l159 962h188l-164 -989q-25 -154 -115 -272.5t-229 -185.5t-312 -67zM850 1659l186 275h199l-240 -275h-145z" />
    <glyph glyph-name="Ucircumflex" unicode="&#xdb;" horiz-adv-x="1505" 
d="M669 -24q-179 0 -301 70.5t-175.5 192.5t-28.5 275l162 976h188l-161 -974q-18 -109 15 -191.5t111 -128.5t197 -46q123 0 222 49.5t162.5 134.5t81.5 194l159 962h188l-164 -989q-25 -154 -115 -272.5t-229 -185.5t-312 -67zM791 1653h-176l2 8l278 268h170l191 -268
l-2 -8h-177l-113 176z" />
    <glyph glyph-name="Udieresis" unicode="&#xdc;" horiz-adv-x="1505" 
d="M669 -24q-179 0 -301 70.5t-175.5 192.5t-28.5 275l162 976h188l-161 -974q-18 -109 15 -191.5t111 -128.5t197 -46q123 0 222 49.5t162.5 134.5t81.5 194l159 962h188l-164 -989q-25 -154 -115 -272.5t-229 -185.5t-312 -67zM1149 1678q-48 0 -77 35t-21 84
q8 48 48.5 82.5t89.5 34.5t77.5 -34.5t20.5 -82.5q-8 -49 -48.5 -84t-89.5 -35zM729 1678q-49 0 -77.5 35t-20.5 84q7 48 48 82.5t90 34.5q48 0 76.5 -34.5t20.5 -82.5q-7 -49 -47.5 -84t-89.5 -35z" />
    <glyph glyph-name="Yacute" unicode="&#xdd;" horiz-adv-x="1374" 
d="M501 0l101 611l-402 879h204l215 -481q36 -79 63 -152.5t52 -176.5h-76q58 105 110 179t111 150l375 481h230l-694 -879l-101 -611h-188zM784 1659l186 275h199l-240 -275h-145z" />
    <glyph glyph-name="Thorn" unicode="&#xde;" horiz-adv-x="1286" 
d="M316 1490h190l-248 -1490h-188zM353 1184h384q160 0 260.5 -58t142 -153.5t23.5 -211.5q-17 -118 -89.5 -217.5t-192.5 -159t-283 -59.5h-385l27 165h385q103 0 178.5 31.5t121.5 90.5t59 140q14 83 -13 142.5t-92.5 92t-168.5 32.5h-384z" />
    <glyph glyph-name="germandbls" unicode="&#xdf;" horiz-adv-x="1244" 
d="M81 0l184 1107q21 124 90.5 214t176 139.5t234.5 49.5q125 0 217 -46t135.5 -132.5t23.5 -207.5q-21 -127 -100.5 -213t-189.5 -122l-2 -14q140 -14 214.5 -113t47.5 -254q-20 -118 -90 -210.5t-176.5 -145t-237.5 -52.5h-165l29 165h164q78 0 140 31.5t103 86.5t53 127
q20 114 -44 188t-198 74h-129l28 168h91q73 0 131.5 37t97 96t49.5 125q17 103 -39.5 175t-175.5 72q-110 0 -195 -66t-103 -174l-184 -1105h-180z" />
    <glyph glyph-name="agrave" unicode="&#xe0;" horiz-adv-x="1235" 
d="M472 -23q-139 0 -233.5 71t-132.5 200t-9 303t110 301.5t199 197.5t257 70q99 0 157.5 -32t89.5 -76t47 -82h12l28 174h178l-183 -1104h-173l28 170h-17q-30 -39 -76.5 -84t-115.5 -77t-166 -32zM527 136q101 0 179.5 53t131 146.5t72.5 216.5q21 123 -0.5 215t-83.5 143
t-163 51q-103 0 -183 -53.5t-131.5 -145.5t-71.5 -210q-19 -120 2 -214t83.5 -148t164.5 -54zM658 1248l-143 295h199l90 -295h-146z" />
    <glyph glyph-name="aacute" unicode="&#xe1;" horiz-adv-x="1235" 
d="M472 -23q-139 0 -233.5 71t-132.5 200t-9 303t110 301.5t199 197.5t257 70q99 0 157.5 -32t89.5 -76t47 -82h12l28 174h178l-183 -1104h-173l28 170h-17q-30 -39 -76.5 -84t-115.5 -77t-166 -32zM527 136q101 0 179.5 53t131 146.5t72.5 216.5q21 123 -0.5 215t-83.5 143
t-163 51q-103 0 -183 -53.5t-131.5 -145.5t-71.5 -210q-19 -120 2 -214t83.5 -148t164.5 -54zM647 1273l186 275h199l-240 -275h-145z" />
    <glyph glyph-name="acircumflex" unicode="&#xe2;" horiz-adv-x="1235" 
d="M472 -23q-139 0 -233.5 71t-132.5 200t-9 303t110 301.5t199 197.5t257 70q99 0 157.5 -32t89.5 -76t47 -82h12l28 174h178l-183 -1104h-173l28 170h-17q-30 -39 -76.5 -84t-115.5 -77t-166 -32zM527 136q101 0 179.5 53t131 146.5t72.5 216.5q21 123 -0.5 215t-83.5 143
t-163 51q-103 0 -183 -53.5t-131.5 -145.5t-71.5 -210q-19 -120 2 -214t83.5 -148t164.5 -54zM588 1267h-176l2 8l278 268h170l191 -268l-2 -8h-177l-113 176z" />
    <glyph glyph-name="atilde" unicode="&#xe3;" horiz-adv-x="1235" 
d="M472 -23q-139 0 -233.5 71t-132.5 200t-9 303t110 301.5t199 197.5t257 70q99 0 157.5 -32t89.5 -76t47 -82h12l28 174h178l-183 -1104h-173l28 170h-17q-30 -39 -76.5 -84t-115.5 -77t-166 -32zM527 136q101 0 179.5 53t131 146.5t72.5 216.5q21 123 -0.5 215t-83.5 143
t-163 51q-103 0 -183 -53.5t-131.5 -145.5t-71.5 -210q-19 -120 2 -214t83.5 -148t164.5 -54zM869 1301q-37 0 -70.5 12.5t-62.5 29t-53 29t-43 12.5q-27 0 -43.5 -25.5t-22.5 -53.5h-126q19 91 68 149t128 58q39 0 70 -13t57.5 -29.5t50.5 -29.5t49 -13q26 0 41.5 19.5
t27.5 61.5h122q-19 -96 -70 -151.5t-123 -55.5z" />
    <glyph glyph-name="adieresis" unicode="&#xe4;" horiz-adv-x="1235" 
d="M472 -23q-139 0 -233.5 71t-132.5 200t-9 303t110 301.5t199 197.5t257 70q99 0 157.5 -32t89.5 -76t47 -82h12l28 174h178l-183 -1104h-173l28 170h-17q-30 -39 -76.5 -84t-115.5 -77t-166 -32zM527 136q101 0 179.5 53t131 146.5t72.5 216.5q21 123 -0.5 215t-83.5 143
t-163 51q-103 0 -183 -53.5t-131.5 -145.5t-71.5 -210q-19 -120 2 -214t83.5 -148t164.5 -54zM946 1292q-48 0 -77 35t-21 84q8 48 48.5 82.5t89.5 34.5t77.5 -34.5t20.5 -82.5q-8 -49 -48.5 -84t-89.5 -35zM526 1292q-49 0 -77.5 35t-20.5 84q7 48 48 82.5t90 34.5
q48 0 76.5 -34.5t20.5 -82.5q-7 -49 -47.5 -84t-89.5 -35z" />
    <glyph glyph-name="aring" unicode="&#xe5;" horiz-adv-x="1235" 
d="M472 -23q-139 0 -233.5 71t-132.5 200t-9 303t110 301.5t199 197.5t257 70q99 0 157.5 -32t89.5 -76t47 -82h12l28 174h178l-183 -1104h-173l28 170h-17q-30 -39 -76.5 -84t-115.5 -77t-166 -32zM527 136q101 0 179.5 53t131 146.5t72.5 216.5q21 123 -0.5 215t-83.5 143
t-163 51q-103 0 -183 -53.5t-131.5 -145.5t-71.5 -210q-19 -120 2 -214t83.5 -148t164.5 -54zM718 1179q-72 0 -125 33.5t-78.5 90t-14.5 124.5q12 69 56 124.5t108 89t135 33.5q72 0 125 -33.5t78.5 -89t13.5 -124.5q-10 -68 -54.5 -124.5t-108 -90t-135.5 -33.5zM737 1304
q53 0 94.5 36t49.5 88t-21.5 86.5t-79.5 34.5q-52 0 -93.5 -35t-50.5 -86q-9 -52 20 -88t81 -36z" />
    <glyph glyph-name="ae" unicode="&#xe6;" horiz-adv-x="1837" 
d="M384 -16q-173 0 -262 92t-63 246q13 81 61 148.5t141 108t241 40.5q55 0 103 -0.5t104.5 -1t134.5 -0.5l-12 -138q-78 0 -161.5 0.5t-156.5 0.5q-110 0 -188 -38.5t-92 -123.5q-14 -89 32 -134t148 -45q106 0 178 38.5t113 100t53 128.5l64 352q20 108 -29 161t-177 53
q-70 0 -127.5 -22.5t-96 -64t-53.5 -98.5l-180 2q21 101 87.5 177t167 118.5t224.5 42.5q125 0 210.5 -45t123.5 -124.5t20 -185.5l-86 -520l-17 -1q-40 -77 -109 -137.5t-167.5 -95t-228.5 -34.5zM1205 -24q-135 0 -230 52.5t-144.5 153.5t-49.5 246q0 148 44.5 275.5
t125 223t187 148.5t232.5 53q108 0 189 -37.5t125.5 -106t44.5 -163.5q0 -92 -49 -157.5t-151 -106.5t-260 -59.5t-376 -18.5l22 135q183 0 306 11t195 36t103.5 67t31.5 104q0 65 -53 101.5t-140 36.5q-97 0 -179 -47t-137.5 -128.5t-72.5 -184.5q-10 -57 -15.5 -92.5
t-8 -58t-2.5 -40.5q0 -138 67.5 -211.5t200.5 -73.5q110 0 194 48.5t125 128.5l169 -35q-61 -141 -193 -220.5t-301 -79.5z" />
    <glyph glyph-name="ccedilla" unicode="&#xe7;" horiz-adv-x="1149" 
d="M518 -24q-134 0 -230.5 56t-148.5 158t-52 238q0 131 41 254.5t119 222.5t188.5 157t249.5 58q85 0 156 -22.5t124 -65.5t86 -103t40 -135l-175 -30q-4 44 -21 80t-46.5 62t-71 40.5t-96.5 14.5q-101 0 -178.5 -47t-130.5 -124.5t-80 -171.5t-27 -187q0 -85 27 -152
t84 -105.5t146 -38.5q58 0 109 16t93 44.5t73 67t51 84.5l168 -45q-32 -75 -83 -135t-116 -102.5t-141 -65.5t-158 -23zM330 -418l17 105h118q54 0 78.5 15t30.5 50t-13 50.5t-74 15.5h-82l68 230h95l-8 -48l-14 -86q93 -4 133.5 -43t27.5 -117q-14 -88 -77 -130t-181 -42
h-119z" />
    <glyph glyph-name="egrave" unicode="&#xe8;" horiz-adv-x="1157" 
d="M523 -24q-135 0 -232 52.5t-150 153t-53 245.5q0 147 46 274.5t129 223t193 149.5t236 54q108 0 188.5 -36.5t124.5 -104.5t44 -162t-49 -160.5t-151 -108t-260 -61t-376 -19.5l24 138q183 0 305.5 11t194.5 36t103 66t31 101q0 65 -53 103.5t-143 38.5
q-112 0 -190.5 -52t-128.5 -134.5t-73 -177t-23 -180.5q0 -81 25.5 -147t86 -105.5t162.5 -39.5q109 0 192 47.5t125 128.5l167 -37q-60 -136 -192.5 -216.5t-302.5 -80.5zM644 1248l-143 295h199l90 -295h-146z" />
    <glyph glyph-name="eacute" unicode="&#xe9;" horiz-adv-x="1157" 
d="M523 -24q-135 0 -232 52.5t-150 153t-53 245.5q0 147 46 274.5t129 223t193 149.5t236 54q108 0 188.5 -36.5t124.5 -104.5t44 -162t-49 -160.5t-151 -108t-260 -61t-376 -19.5l24 138q183 0 305.5 11t194.5 36t103 66t31 101q0 65 -53 103.5t-143 38.5
q-112 0 -190.5 -52t-128.5 -134.5t-73 -177t-23 -180.5q0 -81 25.5 -147t86 -105.5t162.5 -39.5q109 0 192 47.5t125 128.5l167 -37q-60 -136 -192.5 -216.5t-302.5 -80.5zM634 1273l186 275h199l-240 -275h-145z" />
    <glyph glyph-name="ecircumflex" unicode="&#xea;" horiz-adv-x="1157" 
d="M523 -24q-135 0 -232 52.5t-150 153t-53 245.5q0 147 46 274.5t129 223t193 149.5t236 54q108 0 188.5 -36.5t124.5 -104.5t44 -162t-49 -160.5t-151 -108t-260 -61t-376 -19.5l24 138q183 0 305.5 11t194.5 36t103 66t31 101q0 65 -53 103.5t-143 38.5
q-112 0 -190.5 -52t-128.5 -134.5t-73 -177t-23 -180.5q0 -81 25.5 -147t86 -105.5t162.5 -39.5q109 0 192 47.5t125 128.5l167 -37q-60 -136 -192.5 -216.5t-302.5 -80.5zM575 1267h-176l2 8l278 268h170l191 -268l-2 -8h-177l-113 176z" />
    <glyph glyph-name="edieresis" unicode="&#xeb;" horiz-adv-x="1157" 
d="M523 -24q-135 0 -232 52.5t-150 153t-53 245.5q0 147 46 274.5t129 223t193 149.5t236 54q108 0 188.5 -36.5t124.5 -104.5t44 -162t-49 -160.5t-151 -108t-260 -61t-376 -19.5l24 138q183 0 305.5 11t194.5 36t103 66t31 101q0 65 -53 103.5t-143 38.5
q-112 0 -190.5 -52t-128.5 -134.5t-73 -177t-23 -180.5q0 -81 25.5 -147t86 -105.5t162.5 -39.5q109 0 192 47.5t125 128.5l167 -37q-60 -136 -192.5 -216.5t-302.5 -80.5zM933 1292q-48 0 -77 35t-21 84q8 48 48.5 82.5t89.5 34.5t77.5 -34.5t20.5 -82.5q-8 -49 -48.5 -84
t-89.5 -35zM513 1292q-49 0 -77.5 35t-20.5 84q7 48 48 82.5t90 34.5q48 0 76.5 -34.5t20.5 -82.5q-7 -49 -47.5 -84t-89.5 -35z" />
    <glyph glyph-name="igrave" unicode="&#xec;" horiz-adv-x="481" 
d="M60 0l183 1104h178l-183 -1104h-178zM285 1248l-143 295h199l90 -295h-146z" />
    <glyph glyph-name="iacute" unicode="&#xed;" horiz-adv-x="481" 
d="M60 0l183 1104h178l-183 -1104h-178zM275 1273l186 275h199l-240 -275h-145z" />
    <glyph glyph-name="icircumflex" unicode="&#xee;" horiz-adv-x="481" 
d="M60 0l183 1104h178l-183 -1104h-178zM216 1267h-176l2 8l278 268h170l191 -268l-2 -8h-177l-113 176z" />
    <glyph glyph-name="idieresis" unicode="&#xef;" horiz-adv-x="481" 
d="M60 0l183 1104h178l-183 -1104h-178zM574 1292q-48 0 -77 35t-21 84q8 48 48.5 82.5t89.5 34.5t77.5 -34.5t20.5 -82.5q-8 -49 -48.5 -84t-89.5 -35zM154 1292q-49 0 -77.5 35t-20.5 84q7 48 48 82.5t90 34.5q48 0 76.5 -34.5t20.5 -82.5q-7 -49 -47.5 -84t-89.5 -35z
" />
    <glyph glyph-name="eth" unicode="&#xf0;" horiz-adv-x="1176" 
d="M1103 1415l-651 -291l-29 110l649 291zM493 -24q-150 0 -249 69t-139 190t-15 276q26 158 105.5 279t192 189t236.5 68q84 0 142 -28.5t94.5 -71.5t54.5 -87h14q-17 92 -65.5 197.5t-142 209t-250.5 190.5l94 124q112 -60 217 -156.5t183 -226t111.5 -291.5t2.5 -355
q-29 -183 -112 -311.5t-205 -196.5t-269 -68zM521 135q105 0 184 49t128.5 132.5t65.5 185.5q16 95 -2 186.5t-77.5 151.5t-171.5 60q-106 0 -185.5 -54.5t-128 -142.5t-65.5 -191q-16 -98 2.5 -184.5t79 -139.5t170.5 -53z" />
    <glyph glyph-name="ntilde" unicode="&#xf1;" horiz-adv-x="1191" 
d="M346 652l-109 -652h-178l184 1104h171l-44 -267l-31 5q76 150 177.5 214t225.5 64q114 0 195 -48t115.5 -143t10.5 -237l-115 -692h-178l115 690q22 132 -31 200.5t-167 68.5q-81 0 -153 -35.5t-122 -104t-66 -167.5zM851 1301q-37 0 -70.5 12.5t-62.5 29t-53 29
t-43 12.5q-27 0 -43.5 -25.5t-22.5 -53.5h-126q19 91 68 149t128 58q39 0 70 -13t57.5 -29.5t50.5 -29.5t49 -13q26 0 41.5 19.5t27.5 61.5h122q-19 -96 -70 -151.5t-123 -55.5z" />
    <glyph glyph-name="ograve" unicode="&#xf2;" horiz-adv-x="1205" 
d="M518 -24q-134 0 -230.5 56.5t-148.5 158.5t-52 238q0 132 41.5 255.5t119.5 222t188.5 156t248.5 57.5q134 0 231 -56t149 -158t52 -240q0 -134 -42 -257.5t-120.5 -221t-189 -154.5t-247.5 -57zM522 135q102 0 180 47.5t130.5 125t79 171t26.5 184.5q0 86 -27 153
t-84 106t-147 39q-101 0 -178 -47t-130 -125t-80 -172t-27 -187q0 -127 61.5 -211t195.5 -84zM646 1248l-143 295h199l90 -295h-146z" />
    <glyph glyph-name="oacute" unicode="&#xf3;" horiz-adv-x="1205" 
d="M518 -24q-134 0 -230.5 56.5t-148.5 158.5t-52 238q0 132 41.5 255.5t119.5 222t188.5 156t248.5 57.5q134 0 231 -56t149 -158t52 -240q0 -134 -42 -257.5t-120.5 -221t-189 -154.5t-247.5 -57zM522 135q102 0 180 47.5t130.5 125t79 171t26.5 184.5q0 86 -27 153
t-84 106t-147 39q-101 0 -178 -47t-130 -125t-80 -172t-27 -187q0 -127 61.5 -211t195.5 -84zM636 1273l186 275h199l-240 -275h-145z" />
    <glyph glyph-name="ocircumflex" unicode="&#xf4;" horiz-adv-x="1205" 
d="M518 -24q-134 0 -230.5 56.5t-148.5 158.5t-52 238q0 132 41.5 255.5t119.5 222t188.5 156t248.5 57.5q134 0 231 -56t149 -158t52 -240q0 -134 -42 -257.5t-120.5 -221t-189 -154.5t-247.5 -57zM522 135q102 0 180 47.5t130.5 125t79 171t26.5 184.5q0 86 -27 153
t-84 106t-147 39q-101 0 -178 -47t-130 -125t-80 -172t-27 -187q0 -127 61.5 -211t195.5 -84zM577 1267h-176l2 8l278 268h170l191 -268l-2 -8h-177l-113 176z" />
    <glyph glyph-name="otilde" unicode="&#xf5;" horiz-adv-x="1205" 
d="M518 -24q-134 0 -230.5 56.5t-148.5 158.5t-52 238q0 132 41.5 255.5t119.5 222t188.5 156t248.5 57.5q134 0 231 -56t149 -158t52 -240q0 -134 -42 -257.5t-120.5 -221t-189 -154.5t-247.5 -57zM522 135q102 0 180 47.5t130.5 125t79 171t26.5 184.5q0 86 -27 153
t-84 106t-147 39q-101 0 -178 -47t-130 -125t-80 -172t-27 -187q0 -127 61.5 -211t195.5 -84zM858 1301q-37 0 -70.5 12.5t-62.5 29t-53 29t-43 12.5q-27 0 -43.5 -25.5t-22.5 -53.5h-126q19 91 68 149t128 58q39 0 70 -13t57.5 -29.5t50.5 -29.5t49 -13q26 0 41.5 19.5
t27.5 61.5h122q-19 -96 -70 -151.5t-123 -55.5z" />
    <glyph glyph-name="odieresis" unicode="&#xf6;" horiz-adv-x="1205" 
d="M518 -24q-134 0 -230.5 56.5t-148.5 158.5t-52 238q0 132 41.5 255.5t119.5 222t188.5 156t248.5 57.5q134 0 231 -56t149 -158t52 -240q0 -134 -42 -257.5t-120.5 -221t-189 -154.5t-247.5 -57zM522 135q102 0 180 47.5t130.5 125t79 171t26.5 184.5q0 86 -27 153
t-84 106t-147 39q-101 0 -178 -47t-130 -125t-80 -172t-27 -187q0 -127 61.5 -211t195.5 -84zM934 1292q-48 0 -77 35t-21 84q8 48 48.5 82.5t89.5 34.5t77.5 -34.5t20.5 -82.5q-8 -49 -48.5 -84t-89.5 -35zM514 1292q-49 0 -77.5 35t-20.5 84q7 48 48 82.5t90 34.5
q48 0 76.5 -34.5t20.5 -82.5q-7 -49 -47.5 -84t-89.5 -35z" />
    <glyph glyph-name="divide" unicode="&#xf7;" horiz-adv-x="1341" 
d="M1157 667l-27 -169h-936l27 169h936zM600 73q-61 0 -93.5 42t-24.5 98q4 34 25 62t53 44.5t66 16.5q53 0 88 -39t28 -99q-7 -55 -50.5 -90t-91.5 -35zM725 830q-39 0 -68 18.5t-43.5 50.5t-8.5 71q8 52 51.5 87.5t96.5 35.5q54 0 89 -40.5t25 -98.5q-8 -52 -50 -88
t-92 -36z" />
    <glyph glyph-name="oslash" unicode="&#xf8;" horiz-adv-x="1205" 
d="M518 -24q-134 0 -230.5 56.5t-148.5 158.5t-52 238q0 132 41.5 255.5t119.5 222t188.5 156t248.5 57.5q134 0 231 -56t149 -158t52 -240q0 -134 -42 -257.5t-120.5 -221t-189 -154.5t-247.5 -57zM522 135q102 0 180 47.5t130.5 125t79 171t26.5 184.5q0 86 -27 153
t-84 106t-147 39q-101 0 -178 -47t-130 -125t-80 -172t-27 -187q0 -127 61.5 -211t195.5 -84zM83 -45l-92 90l1130 1104l92 -90z" />
    <glyph glyph-name="ugrave" unicode="&#xf9;" horiz-adv-x="1192" 
d="M439 -15q-111 0 -189 46t-111.5 140t-10.5 235l115 698h178l-113 -683q-21 -130 33.5 -203t172.5 -73q78 0 147.5 34t118.5 101t65 166l108 658h179l-183 -1104h-172l44 268h29q-76 -154 -181.5 -218.5t-229.5 -64.5zM640 1248l-143 295h199l90 -295h-146z" />
    <glyph glyph-name="uacute" unicode="&#xfa;" horiz-adv-x="1192" 
d="M439 -15q-111 0 -189 46t-111.5 140t-10.5 235l115 698h178l-113 -683q-21 -130 33.5 -203t172.5 -73q78 0 147.5 34t118.5 101t65 166l108 658h179l-183 -1104h-172l44 268h29q-76 -154 -181.5 -218.5t-229.5 -64.5zM629 1273l186 275h199l-240 -275h-145z" />
    <glyph glyph-name="ucircumflex" unicode="&#xfb;" horiz-adv-x="1192" 
d="M439 -15q-111 0 -189 46t-111.5 140t-10.5 235l115 698h178l-113 -683q-21 -130 33.5 -203t172.5 -73q78 0 147.5 34t118.5 101t65 166l108 658h179l-183 -1104h-172l44 268h29q-76 -154 -181.5 -218.5t-229.5 -64.5zM570 1267h-176l2 8l278 268h170l191 -268l-2 -8h-177
l-113 176z" />
    <glyph glyph-name="udieresis" unicode="&#xfc;" horiz-adv-x="1192" 
d="M439 -15q-111 0 -189 46t-111.5 140t-10.5 235l115 698h178l-113 -683q-21 -130 33.5 -203t172.5 -73q78 0 147.5 34t118.5 101t65 166l108 658h179l-183 -1104h-172l44 268h29q-76 -154 -181.5 -218.5t-229.5 -64.5zM928 1292q-48 0 -77 35t-21 84q8 48 48.5 82.5
t89.5 34.5t77.5 -34.5t20.5 -82.5q-8 -49 -48.5 -84t-89.5 -35zM508 1292q-49 0 -77.5 35t-20.5 84q7 48 48 82.5t90 34.5q48 0 76.5 -34.5t20.5 -82.5q-7 -49 -47.5 -84t-89.5 -35z" />
    <glyph glyph-name="yacute" unicode="&#xfd;" horiz-adv-x="1128" 
d="M-20 -408l62 155l36 -3q50 -10 92.5 -2t80.5 43t74 107l55 105l-240 1107h186l128 -651q19 -97 30 -193.5t24 -187.5h-62q44 91 86 187.5t94 193.5l344 651h201l-702 -1277q-45 -84 -101.5 -140t-123 -83.5t-142.5 -27.5q-40 0 -72.5 5.5t-49.5 10.5zM596 1273l186 275
h199l-240 -275h-145z" />
    <glyph glyph-name="thorn" unicode="&#xfe;" horiz-adv-x="1232" 
d="M570 -23q-96 0 -154 32t-89.5 77t-49.5 84h-12l-97 -588h-178l316 1908h178l-93 -560h12q29 38 74 82t114 76t168 32q139 0 233.5 -69.5t133 -197t10.5 -302.5q-29 -176 -110.5 -305t-199.5 -199t-256 -70zM570 136q103 0 182 54t131.5 148t71.5 214q20 118 -1 210.5
t-82 145.5t-165 53q-101 0 -180 -51t-130.5 -143t-72.5 -215q-20 -122 1 -216t82.5 -147t162.5 -53z" />
    <glyph glyph-name="ydieresis" unicode="&#xff;" horiz-adv-x="1128" 
d="M-20 -408l62 155l36 -3q50 -10 92.5 -2t80.5 43t74 107l55 105l-240 1107h186l128 -651q19 -97 30 -193.5t24 -187.5h-62q44 91 86 187.5t94 193.5l344 651h201l-702 -1277q-45 -84 -101.5 -140t-123 -83.5t-142.5 -27.5q-40 0 -72.5 5.5t-49.5 10.5zM895 1292
q-48 0 -77 35t-21 84q8 48 48.5 82.5t89.5 34.5t77.5 -34.5t20.5 -82.5q-8 -49 -48.5 -84t-89.5 -35zM475 1292q-49 0 -77.5 35t-20.5 84q7 48 48 82.5t90 34.5q48 0 76.5 -34.5t20.5 -82.5q-7 -49 -47.5 -84t-89.5 -35z" />
    <glyph glyph-name="Amacron" unicode="&#x100;" horiz-adv-x="1396" 
d="M-47 0l790 1490h217l300 -1490h-190l-168 887q-14 75 -34 200t-44 314h39q-83 -182 -142.5 -306t-102.5 -208l-458 -887h-207zM297 416l27 165h757l-27 -165h-757zM1193 1860l-24 -141h-554l24 141h554z" />
    <glyph glyph-name="amacron" unicode="&#x101;" horiz-adv-x="1235" 
d="M472 -23q-139 0 -233.5 71t-132.5 200t-9 303t110 301.5t199 197.5t257 70q99 0 157.5 -32t89.5 -76t47 -82h12l28 174h178l-183 -1104h-173l28 170h-17q-30 -39 -76.5 -84t-115.5 -77t-166 -32zM527 136q101 0 179.5 53t131 146.5t72.5 216.5q21 123 -0.5 215t-83.5 143
t-163 51q-103 0 -183 -53.5t-131.5 -145.5t-71.5 -210q-19 -120 2 -214t83.5 -148t164.5 -54zM1044 1474l-24 -141h-554l24 141h554z" />
    <glyph glyph-name="Abreve" unicode="&#x102;" horiz-adv-x="1396" 
d="M-47 0l790 1490h217l300 -1490h-190l-168 887q-14 75 -34 200t-44 314h39q-83 -182 -142.5 -306t-102.5 -208l-458 -887h-207zM297 416l27 165h757l-27 -165h-757zM878 1647q-80 0 -139.5 37.5t-87 101.5t-14.5 143h131q-11 -69 26 -112t106 -43q46 0 85 19.5t65.5 54.5
t33.5 81h131q-13 -79 -62.5 -143t-121 -101.5t-153.5 -37.5z" />
    <glyph glyph-name="abreve" unicode="&#x103;" horiz-adv-x="1235" 
d="M472 -23q-139 0 -233.5 71t-132.5 200t-9 303t110 301.5t199 197.5t257 70q99 0 157.5 -32t89.5 -76t47 -82h12l28 174h178l-183 -1104h-173l28 170h-17q-30 -39 -76.5 -84t-115.5 -77t-166 -32zM527 136q101 0 179.5 53t131 146.5t72.5 216.5q21 123 -0.5 215t-83.5 143
t-163 51q-103 0 -183 -53.5t-131.5 -145.5t-71.5 -210q-19 -120 2 -214t83.5 -148t164.5 -54zM730 1261q-80 0 -139.5 37.5t-87 101.5t-14.5 143h131q-11 -69 26 -112t106 -43q46 0 85 19.5t65.5 54.5t33.5 81h131q-13 -79 -62.5 -143t-121 -101.5t-153.5 -37.5z" />
    <glyph glyph-name="Aogonek" unicode="&#x104;" horiz-adv-x="1396" 
d="M-47 0l790 1490h217l300 -1490h-190l-168 887q-14 75 -34 200t-44 314h39q-83 -182 -142.5 -306t-102.5 -208l-458 -887h-207zM297 416l27 165h757l-27 -165h-757zM1073 -432q-93 0 -152.5 48.5t-43.5 144.5q12 74 67 138t144 121l171 -20q-83 -56 -135 -102t-62 -102
q-7 -38 11.5 -58t59.5 -20q26 0 49.5 7t40.5 15l24 -133q-32 -13 -75.5 -26t-98.5 -13z" />
    <glyph glyph-name="aogonek" unicode="&#x105;" horiz-adv-x="1235" 
d="M472 -23q-139 0 -233.5 71t-132.5 200t-9 303t110 301.5t199 197.5t257 70q99 0 157.5 -32t89.5 -76t47 -82h12l28 174h178l-183 -1104h-173l28 170h-17q-30 -39 -76.5 -84t-115.5 -77t-166 -32zM527 136q101 0 179.5 53t131 146.5t72.5 216.5q21 123 -0.5 215t-83.5 143
t-163 51q-103 0 -183 -53.5t-131.5 -145.5t-71.5 -210q-19 -120 2 -214t83.5 -148t164.5 -54zM808 -424q-96 0 -153.5 49.5t-41.5 142.5q12 74 67 134.5t141 113.5l172 -16q-73 -50 -129.5 -94.5t-66.5 -103.5q-6 -36 11.5 -56t59.5 -20q25 0 48 6.5t42 14.5l24 -132
q-32 -14 -75.5 -26.5t-98.5 -12.5z" />
    <glyph glyph-name="Cacute" unicode="&#x106;" horiz-adv-x="1491" 
d="M698 -21q-172 0 -299 73.5t-196.5 208.5t-69.5 321q0 177 56 343t160 298.5t251 210t330 77.5q116 0 212.5 -33.5t168 -97.5t111.5 -155t41 -207h-188q-4 77 -31.5 136t-74.5 100t-110 62t-136 21q-142 0 -254 -64t-191 -172t-120.5 -242t-41.5 -273t49 -236t136.5 -147
t203.5 -50q78 0 151 21t136.5 61.5t113 99.5t78.5 136h189q-39 -114 -106.5 -204.5t-157 -155t-194 -98.5t-217.5 -34zM875 1659l186 275h199l-240 -275h-145z" />
    <glyph glyph-name="cacute" unicode="&#x107;" horiz-adv-x="1149" 
d="M518 -24q-134 0 -230.5 56t-148.5 158t-52 238q0 131 41 254.5t119 222.5t188.5 157t249.5 58q85 0 156 -22.5t124 -65.5t86 -103t40 -135l-175 -30q-4 44 -21 80t-46.5 62t-71 40.5t-96.5 14.5q-101 0 -178.5 -47t-130.5 -124.5t-80 -171.5t-27 -187q0 -85 27 -152
t84 -105.5t146 -38.5q58 0 109 16t93 44.5t73 67t51 84.5l168 -45q-32 -75 -83 -135t-116 -102.5t-141 -65.5t-158 -23zM634 1273l186 275h199l-240 -275h-145z" />
    <glyph glyph-name="Ccircumflex" unicode="&#x108;" horiz-adv-x="1491" 
d="M698 -21q-172 0 -299 73.5t-196.5 208.5t-69.5 321q0 177 56 343t160 298.5t251 210t330 77.5q116 0 212.5 -33.5t168 -97.5t111.5 -155t41 -207h-188q-4 77 -31.5 136t-74.5 100t-110 62t-136 21q-142 0 -254 -64t-191 -172t-120.5 -242t-41.5 -273t49 -236t136.5 -147
t203.5 -50q78 0 151 21t136.5 61.5t113 99.5t78.5 136h189q-39 -114 -106.5 -204.5t-157 -155t-194 -98.5t-217.5 -34zM816 1653h-176l2 8l278 268h170l191 -268l-2 -8h-177l-113 176z" />
    <glyph glyph-name="ccircumflex" unicode="&#x109;" horiz-adv-x="1149" 
d="M518 -24q-134 0 -230.5 56t-148.5 158t-52 238q0 131 41 254.5t119 222.5t188.5 157t249.5 58q85 0 156 -22.5t124 -65.5t86 -103t40 -135l-175 -30q-4 44 -21 80t-46.5 62t-71 40.5t-96.5 14.5q-101 0 -178.5 -47t-130.5 -124.5t-80 -171.5t-27 -187q0 -85 27 -152
t84 -105.5t146 -38.5q58 0 109 16t93 44.5t73 67t51 84.5l168 -45q-32 -75 -83 -135t-116 -102.5t-141 -65.5t-158 -23zM575 1267h-176l2 8l278 268h170l191 -268l-2 -8h-177l-113 176z" />
    <glyph glyph-name="Cdotaccent" unicode="&#x10a;" horiz-adv-x="1491" 
d="M698 -21q-172 0 -299 73.5t-196.5 208.5t-69.5 321q0 177 56 343t160 298.5t251 210t330 77.5q116 0 212.5 -33.5t168 -97.5t111.5 -155t41 -207h-188q-4 77 -31.5 136t-74.5 100t-110 62t-136 21q-142 0 -254 -64t-191 -172t-120.5 -242t-41.5 -273t49 -236t136.5 -147
t203.5 -50q78 0 151 21t136.5 61.5t113 99.5t78.5 136h189q-39 -114 -106.5 -204.5t-157 -155t-194 -98.5t-217.5 -34zM963 1678q-50 0 -80.5 35t-22.5 84t50 83.5t93 34.5t81.5 -34.5t22.5 -83.5t-50.5 -84t-93.5 -35z" />
    <glyph glyph-name="cdotaccent" unicode="&#x10b;" horiz-adv-x="1149" 
d="M518 -24q-134 0 -230.5 56t-148.5 158t-52 238q0 131 41 254.5t119 222.5t188.5 157t249.5 58q85 0 156 -22.5t124 -65.5t86 -103t40 -135l-175 -30q-4 44 -21 80t-46.5 62t-71 40.5t-96.5 14.5q-101 0 -178.5 -47t-130.5 -124.5t-80 -171.5t-27 -187q0 -85 27 -152
t84 -105.5t146 -38.5q58 0 109 16t93 44.5t73 67t51 84.5l168 -45q-32 -75 -83 -135t-116 -102.5t-141 -65.5t-158 -23zM722 1292q-50 0 -80.5 35t-22.5 84t50 83.5t93 34.5t81.5 -34.5t22.5 -83.5t-50.5 -84t-93.5 -35z" />
    <glyph glyph-name="Ccaron" unicode="&#x10c;" horiz-adv-x="1491" 
d="M698 -21q-172 0 -299 73.5t-196.5 208.5t-69.5 321q0 177 56 343t160 298.5t251 210t330 77.5q116 0 212.5 -33.5t168 -97.5t111.5 -155t41 -207h-188q-4 77 -31.5 136t-74.5 100t-110 62t-136 21q-142 0 -254 -64t-191 -172t-120.5 -242t-41.5 -273t49 -236t136.5 -147
t203.5 -50q78 0 151 21t136.5 61.5t113 99.5t78.5 136h189q-39 -114 -106.5 -204.5t-157 -155t-194 -98.5t-217.5 -34zM861 1929l115 -175l171 175h178l-2 -7l-280 -269h-170l-189 269l2 7h175z" />
    <glyph glyph-name="ccaron" unicode="&#x10d;" horiz-adv-x="1149" 
d="M518 -24q-134 0 -230.5 56t-148.5 158t-52 238q0 131 41 254.5t119 222.5t188.5 157t249.5 58q85 0 156 -22.5t124 -65.5t86 -103t40 -135l-175 -30q-4 44 -21 80t-46.5 62t-71 40.5t-96.5 14.5q-101 0 -178.5 -47t-130.5 -124.5t-80 -171.5t-27 -187q0 -85 27 -152
t84 -105.5t146 -38.5q58 0 109 16t93 44.5t73 67t51 84.5l168 -45q-32 -75 -83 -135t-116 -102.5t-141 -65.5t-158 -23zM620 1543l115 -175l171 175h178l-2 -7l-280 -269h-170l-189 269l2 7h175z" />
    <glyph glyph-name="Dcaron" unicode="&#x10e;" horiz-adv-x="1463" 
d="M576 0h-390l26 166h348q183 0 315 70.5t212.5 201t110.5 310.5t-5.5 309t-138 198t-274.5 69h-383l28 166h366q218 0 363 -89.5t205.5 -256t21.5 -398.5q-39 -234 -143 -401t-270 -256t-392 -89zM516 1490l-247 -1490h-188l247 1490h188zM695 1929l115 -175l171 175h178
l-2 -7l-280 -269h-170l-189 269l2 7h175z" />
    <glyph glyph-name="dcaron" unicode="&#x10f;" horiz-adv-x="1390" 
d="M482 -23q-182 0 -288.5 120t-106.5 324q0 131 38 255t111 224.5t178 160t237 59.5q102 0 163 -33t93.5 -78.5t48.5 -83.5h10l93 565h178l-246 -1490h-173l29 169h-15q-30 -41 -74.5 -85.5t-112 -75.5t-163.5 -31zM514 136q100 0 175.5 47.5t127 127t78 175t26.5 189.5
q0 132 -62 209t-187 77q-99 0 -174.5 -47t-127 -124.5t-78 -171t-26.5 -189.5q0 -131 62 -212t186 -81zM1331 1182l62 378h179l-114 -378h-127z" />
    <glyph glyph-name="Dcroat" unicode="&#x110;" horiz-adv-x="1499" 
d="M612 0h-390l26 166h348q183 0 315 70.5t212.5 201t110.5 310.5t-5.5 309t-138 198t-274.5 69h-383l28 166h366q218 0 363 -89.5t205.5 -256t21.5 -398.5q-39 -234 -143 -401t-270 -256t-392 -89zM552 1490l-247 -1490h-188l247 1490h188zM44 667l25 156h770l-25 -156
h-770z" />
    <glyph glyph-name="dcroat" unicode="&#x111;" horiz-adv-x="1233" 
d="M482 -23q-182 0 -288.5 120t-106.5 324q0 131 38 255t111 224.5t178 160t237 59.5q102 0 163 -33t93.5 -78.5t48.5 -83.5h10l93 565h178l-246 -1490h-173l29 169h-15q-30 -41 -74.5 -85.5t-112 -75.5t-163.5 -31zM514 136q100 0 175.5 47.5t127 127t78 175t26.5 189.5
q0 132 -62 209t-187 77q-99 0 -174.5 -47t-127 -124.5t-78 -171t-26.5 -189.5q0 -131 62 -212t186 -81zM697 1225l23 140h645l-23 -140h-645z" />
    <glyph glyph-name="Emacron" unicode="&#x112;" horiz-adv-x="1221" 
d="M81 0l247 1490h922l-28 -165h-734l-80 -487h683l-28 -166h-683l-84 -507h741l-27 -165h-929zM1132 1860l-24 -141h-554l24 141h554z" />
    <glyph glyph-name="emacron" unicode="&#x113;" horiz-adv-x="1157" 
d="M523 -24q-135 0 -232 52.5t-150 153t-53 245.5q0 147 46 274.5t129 223t193 149.5t236 54q108 0 188.5 -36.5t124.5 -104.5t44 -162t-49 -160.5t-151 -108t-260 -61t-376 -19.5l24 138q183 0 305.5 11t194.5 36t103 66t31 101q0 65 -53 103.5t-143 38.5
q-112 0 -190.5 -52t-128.5 -134.5t-73 -177t-23 -180.5q0 -81 25.5 -147t86 -105.5t162.5 -39.5q109 0 192 47.5t125 128.5l167 -37q-60 -136 -192.5 -216.5t-302.5 -80.5zM1031 1474l-24 -141h-554l24 141h554z" />
    <glyph glyph-name="Ebreve" unicode="&#x114;" horiz-adv-x="1221" 
d="M81 0l247 1490h922l-28 -165h-734l-80 -487h683l-28 -166h-683l-84 -507h741l-27 -165h-929zM817 1647q-80 0 -139.5 37.5t-87 101.5t-14.5 143h131q-11 -69 26 -112t106 -43q46 0 85 19.5t65.5 54.5t33.5 81h131q-13 -79 -62.5 -143t-121 -101.5t-153.5 -37.5z" />
    <glyph glyph-name="ebreve" unicode="&#x115;" horiz-adv-x="1157" 
d="M523 -24q-135 0 -232 52.5t-150 153t-53 245.5q0 147 46 274.5t129 223t193 149.5t236 54q108 0 188.5 -36.5t124.5 -104.5t44 -162t-49 -160.5t-151 -108t-260 -61t-376 -19.5l24 138q183 0 305.5 11t194.5 36t103 66t31 101q0 65 -53 103.5t-143 38.5
q-112 0 -190.5 -52t-128.5 -134.5t-73 -177t-23 -180.5q0 -81 25.5 -147t86 -105.5t162.5 -39.5q109 0 192 47.5t125 128.5l167 -37q-60 -136 -192.5 -216.5t-302.5 -80.5zM716 1261q-80 0 -139.5 37.5t-87 101.5t-14.5 143h131q-11 -69 26 -112t106 -43q46 0 85 19.5
t65.5 54.5t33.5 81h131q-13 -79 -62.5 -143t-121 -101.5t-153.5 -37.5z" />
    <glyph glyph-name="Edotaccent" unicode="&#x116;" horiz-adv-x="1221" 
d="M81 0l247 1490h922l-28 -165h-734l-80 -487h683l-28 -166h-683l-84 -507h741l-27 -165h-929zM824 1678q-50 0 -80.5 35t-22.5 84t50 83.5t93 34.5t81.5 -34.5t22.5 -83.5t-50.5 -84t-93.5 -35z" />
    <glyph glyph-name="edotaccent" unicode="&#x117;" horiz-adv-x="1157" 
d="M523 -24q-135 0 -232 52.5t-150 153t-53 245.5q0 147 46 274.5t129 223t193 149.5t236 54q108 0 188.5 -36.5t124.5 -104.5t44 -162t-49 -160.5t-151 -108t-260 -61t-376 -19.5l24 138q183 0 305.5 11t194.5 36t103 66t31 101q0 65 -53 103.5t-143 38.5
q-112 0 -190.5 -52t-128.5 -134.5t-73 -177t-23 -180.5q0 -81 25.5 -147t86 -105.5t162.5 -39.5q109 0 192 47.5t125 128.5l167 -37q-60 -136 -192.5 -216.5t-302.5 -80.5zM722 1292q-50 0 -80.5 35t-22.5 84t50 83.5t93 34.5t81.5 -34.5t22.5 -83.5t-50.5 -84t-93.5 -35z
" />
    <glyph glyph-name="Eogonek" unicode="&#x118;" horiz-adv-x="1221" 
d="M81 0l247 1490h922l-28 -165h-734l-80 -487h683l-28 -166h-683l-84 -507h741l-27 -165h-929zM824 -432q-95 0 -153 49.5t-42 143.5q12 73 69 139.5t157 124.5l155 -25q-82 -55 -135.5 -102t-62.5 -104q-6 -37 12 -56.5t59 -19.5q25 0 48.5 6.5t41.5 15.5l25 -133
q-32 -13 -75.5 -26t-98.5 -13z" />
    <glyph glyph-name="eogonek" unicode="&#x119;" horiz-adv-x="1157" 
d="M523 -24q-135 0 -232 52.5t-150 153t-53 245.5q0 147 46 274.5t129 223t193 149.5t236 54q108 0 188.5 -36.5t124.5 -104.5t44 -162t-49 -160.5t-151 -108t-260 -61t-376 -19.5l24 138q183 0 305.5 11t194.5 36t103 66t31 101q0 65 -53 103.5t-143 38.5
q-112 0 -190.5 -52t-128.5 -134.5t-73 -177t-23 -180.5q0 -81 25.5 -147t86 -105.5t162.5 -39.5q109 0 192 47.5t125 128.5l167 -37q-60 -136 -192.5 -216.5t-302.5 -80.5zM707 -432q-100 0 -157.5 49t-42.5 143q13 74 64.5 143.5t124.5 146.5l323 223q-39 -85 -91.5 -153.5
t-104 -124.5t-88.5 -105t-44 -96q-5 -34 11.5 -55t63.5 -21q26 0 49.5 7t40.5 15l24 -133q-32 -13 -75.5 -26t-97.5 -13z" />
    <glyph glyph-name="Ecaron" unicode="&#x11a;" horiz-adv-x="1221" 
d="M81 0l247 1490h922l-28 -165h-734l-80 -487h683l-28 -166h-683l-84 -507h741l-27 -165h-929zM721 1929l115 -175l171 175h178l-2 -7l-280 -269h-170l-189 269l2 7h175z" />
    <glyph glyph-name="ecaron" unicode="&#x11b;" horiz-adv-x="1157" 
d="M523 -24q-135 0 -232 52.5t-150 153t-53 245.5q0 147 46 274.5t129 223t193 149.5t236 54q108 0 188.5 -36.5t124.5 -104.5t44 -162t-49 -160.5t-151 -108t-260 -61t-376 -19.5l24 138q183 0 305.5 11t194.5 36t103 66t31 101q0 65 -53 103.5t-143 38.5
q-112 0 -190.5 -52t-128.5 -134.5t-73 -177t-23 -180.5q0 -81 25.5 -147t86 -105.5t162.5 -39.5q109 0 192 47.5t125 128.5l167 -37q-60 -136 -192.5 -216.5t-302.5 -80.5zM620 1543l115 -175l171 175h178l-2 -7l-280 -269h-170l-189 269l2 7h175z" />
    <glyph glyph-name="Gcircumflex" unicode="&#x11c;" horiz-adv-x="1520" 
d="M701 -21q-175 0 -302 73.5t-196.5 208t-69.5 319.5q0 176 55.5 342.5t158.5 299.5t249.5 211t327.5 78q120 0 219 -36t171 -101t111.5 -155t41.5 -199h-193q-9 72 -36.5 130.5t-72.5 100t-107.5 64t-140.5 22.5q-139 0 -249.5 -64.5t-189.5 -172.5t-120.5 -241
t-41.5 -271q0 -210 108 -322.5t284 -112.5q128 0 237.5 55.5t183 156t95.5 234.5l53 -16h-444l28 165h571l-28 -168q-23 -137 -85.5 -247t-156.5 -189.5t-211.5 -122t-249.5 -42.5zM811 1653h-176l2 8l278 268h170l191 -268l-2 -8h-177l-113 176z" />
    <glyph glyph-name="gcircumflex" unicode="&#x11d;" horiz-adv-x="1234" 
d="M448 -440q-127 0 -215 34.5t-140 92t-69 126.5l158 65q15 -36 43 -73.5t82 -63t145 -25.5q139 0 238.5 69.5t122.5 205.5l34 204l-13 -3q-30 -39 -74.5 -81.5t-110 -71.5t-162.5 -29q-119 0 -209 50t-140 145.5t-50 229.5q0 128 39 249.5t112 219.5t177.5 157t235.5 59
q76 0 129 -19.5t87 -50.5t55 -64.5t33 -61.5l16 4l30 176h173l-188 -1133q-25 -146 -103 -236.5t-191.5 -132.5t-244.5 -42zM519 168q102 0 177 44.5t125.5 118.5t75.5 164.5t25 182.5q0 130 -62.5 206.5t-186.5 76.5q-97 0 -172.5 -45t-127.5 -120t-79 -167t-27 -186
q0 -127 64 -201t188 -74zM568 1267h-176l2 8l278 268h170l191 -268l-2 -8h-177l-113 176z" />
    <glyph glyph-name="Gbreve" unicode="&#x11e;" horiz-adv-x="1520" 
d="M701 -21q-175 0 -302 73.5t-196.5 208t-69.5 319.5q0 176 55.5 342.5t158.5 299.5t249.5 211t327.5 78q120 0 219 -36t171 -101t111.5 -155t41.5 -199h-193q-9 72 -36.5 130.5t-72.5 100t-107.5 64t-140.5 22.5q-139 0 -249.5 -64.5t-189.5 -172.5t-120.5 -241
t-41.5 -271q0 -210 108 -322.5t284 -112.5q128 0 237.5 55.5t183 156t95.5 234.5l53 -16h-444l28 165h571l-28 -168q-23 -137 -85.5 -247t-156.5 -189.5t-211.5 -122t-249.5 -42.5zM953 1647q-80 0 -139.5 37.5t-87 101.5t-14.5 143h131q-11 -69 26 -112t106 -43
q46 0 85 19.5t65.5 54.5t33.5 81h131q-13 -79 -62.5 -143t-121 -101.5t-153.5 -37.5z" />
    <glyph glyph-name="gbreve" unicode="&#x11f;" horiz-adv-x="1234" 
d="M448 -440q-127 0 -215 34.5t-140 92t-69 126.5l158 65q15 -36 43 -73.5t82 -63t145 -25.5q139 0 238.5 69.5t122.5 205.5l34 204l-13 -3q-30 -39 -74.5 -81.5t-110 -71.5t-162.5 -29q-119 0 -209 50t-140 145.5t-50 229.5q0 128 39 249.5t112 219.5t177.5 157t235.5 59
q76 0 129 -19.5t87 -50.5t55 -64.5t33 -61.5l16 4l30 176h173l-188 -1133q-25 -146 -103 -236.5t-191.5 -132.5t-244.5 -42zM519 168q102 0 177 44.5t125.5 118.5t75.5 164.5t25 182.5q0 130 -62.5 206.5t-186.5 76.5q-97 0 -172.5 -45t-127.5 -120t-79 -167t-27 -186
q0 -127 64 -201t188 -74zM710 1261q-80 0 -139.5 37.5t-87 101.5t-14.5 143h131q-11 -69 26 -112t106 -43q46 0 85 19.5t65.5 54.5t33.5 81h131q-13 -79 -62.5 -143t-121 -101.5t-153.5 -37.5z" />
    <glyph glyph-name="Gdotaccent" unicode="&#x120;" horiz-adv-x="1520" 
d="M701 -21q-175 0 -302 73.5t-196.5 208t-69.5 319.5q0 176 55.5 342.5t158.5 299.5t249.5 211t327.5 78q120 0 219 -36t171 -101t111.5 -155t41.5 -199h-193q-9 72 -36.5 130.5t-72.5 100t-107.5 64t-140.5 22.5q-139 0 -249.5 -64.5t-189.5 -172.5t-120.5 -241
t-41.5 -271q0 -210 108 -322.5t284 -112.5q128 0 237.5 55.5t183 156t95.5 234.5l53 -16h-444l28 165h571l-28 -168q-23 -137 -85.5 -247t-156.5 -189.5t-211.5 -122t-249.5 -42.5zM959 1678q-50 0 -80.5 35t-22.5 84t50 83.5t93 34.5t81.5 -34.5t22.5 -83.5t-50.5 -84
t-93.5 -35z" />
    <glyph glyph-name="gdotaccent" unicode="&#x121;" horiz-adv-x="1234" 
d="M448 -440q-127 0 -215 34.5t-140 92t-69 126.5l158 65q15 -36 43 -73.5t82 -63t145 -25.5q139 0 238.5 69.5t122.5 205.5l34 204l-13 -3q-30 -39 -74.5 -81.5t-110 -71.5t-162.5 -29q-119 0 -209 50t-140 145.5t-50 229.5q0 128 39 249.5t112 219.5t177.5 157t235.5 59
q76 0 129 -19.5t87 -50.5t55 -64.5t33 -61.5l16 4l30 176h173l-188 -1133q-25 -146 -103 -236.5t-191.5 -132.5t-244.5 -42zM519 168q102 0 177 44.5t125.5 118.5t75.5 164.5t25 182.5q0 130 -62.5 206.5t-186.5 76.5q-97 0 -172.5 -45t-127.5 -120t-79 -167t-27 -186
q0 -127 64 -201t188 -74zM716 1292q-50 0 -80.5 35t-22.5 84t50 83.5t93 34.5t81.5 -34.5t22.5 -83.5t-50.5 -84t-93.5 -35z" />
    <glyph glyph-name="uni0122" unicode="&#x122;" horiz-adv-x="1520" 
d="M701 -21q-175 0 -302 73.5t-196.5 208t-69.5 319.5q0 176 55.5 342.5t158.5 299.5t249.5 211t327.5 78q120 0 219 -36t171 -101t111.5 -155t41.5 -199h-193q-9 72 -36.5 130.5t-72.5 100t-107.5 64t-140.5 22.5q-139 0 -249.5 -64.5t-189.5 -172.5t-120.5 -241
t-41.5 -271q0 -210 108 -322.5t284 -112.5q128 0 237.5 55.5t183 156t95.5 234.5l53 -16h-444l28 165h571l-28 -168q-23 -137 -85.5 -247t-156.5 -189.5t-211.5 -122t-249.5 -42.5zM423 -493l144 375h183l-188 -375h-139z" />
    <glyph glyph-name="uni0123" unicode="&#x123;" horiz-adv-x="1234" 
d="M448 -440q-127 0 -215 34.5t-140 92t-69 126.5l158 65q15 -36 43 -73.5t82 -63t145 -25.5q139 0 238.5 69.5t122.5 205.5l34 204l-13 -3q-30 -39 -74.5 -81.5t-110 -71.5t-162.5 -29q-119 0 -209 50t-140 145.5t-50 229.5q0 128 39 249.5t112 219.5t177.5 157t235.5 59
q76 0 129 -19.5t87 -50.5t55 -64.5t33 -61.5l16 4l30 176h173l-188 -1133q-25 -146 -103 -236.5t-191.5 -132.5t-244.5 -42zM519 168q102 0 177 44.5t125.5 118.5t75.5 164.5t25 182.5q0 130 -62.5 206.5t-186.5 76.5q-97 0 -172.5 -45t-127.5 -120t-79 -167t-27 -186
q0 -127 64 -201t188 -74zM626 1225l21 129q11 66 41 122t68 101t72 75l99 -75q-49 -62 -80 -114t-42 -118l-21 -120h-158z" />
    <glyph glyph-name="Hcircumflex" unicode="&#x124;" horiz-adv-x="1506" 
d="M81 0l247 1490h188l-107 -645h785l107 645h187l-247 -1490h-187l113 679h-786l-112 -679h-188zM791 1653h-176l2 8l278 268h170l191 -268l-2 -8h-177l-113 176z" />
    <glyph glyph-name="hcircumflex" unicode="&#x125;" horiz-adv-x="1191" 
d="M346 658l-109 -658h-178l247 1490h178l-109 -653h-35q51 102 113.5 164.5t135 90.5t155.5 28q112 0 192.5 -46.5t116 -140t11.5 -235.5l-116 -698h-178l114 684q22 132 -34.5 203.5t-173.5 71.5q-78 0 -147.5 -34t-118 -100.5t-64.5 -166.5zM278 1653h-176l2 8l278 268
h170l191 -268l-2 -8h-177l-113 176z" />
    <glyph glyph-name="Hbar" unicode="&#x126;" horiz-adv-x="1571" 
d="M1586 1176l-24 -152h-1393l23 152h1394zM117 0l247 1490h188l-107 -645h785l107 645h187l-247 -1490h-187l113 679h-786l-112 -679h-188z" />
    <glyph glyph-name="hbar" unicode="&#x127;" horiz-adv-x="1191" 
d="M346 658l-109 -658h-178l247 1490h178l-109 -653h-35q51 102 113.5 164.5t135 90.5t155.5 28q112 0 192.5 -46.5t116 -140t11.5 -235.5l-116 -698h-178l114 684q22 132 -34.5 203.5t-173.5 71.5q-78 0 -147.5 -34t-118 -100.5t-64.5 -166.5zM112 1225l23 140h645
l-23 -140h-645z" />
    <glyph glyph-name="Itilde" unicode="&#x128;" horiz-adv-x="534" 
d="M516 1490l-247 -1490h-188l247 1490h188zM586 1687q-37 0 -70.5 12.5t-62.5 29t-53 29t-43 12.5q-27 0 -43.5 -25.5t-22.5 -53.5h-126q19 91 68 149t128 58q39 0 70 -13t57.5 -29.5t50.5 -29.5t49 -13q26 0 41.5 19.5t27.5 61.5h122q-19 -96 -70 -151.5t-123 -55.5z" />
    <glyph glyph-name="itilde" unicode="&#x129;" horiz-adv-x="481" 
d="M60 0l183 1104h178l-183 -1104h-178zM497 1301q-37 0 -70.5 12.5t-62.5 29t-53 29t-43 12.5q-27 0 -43.5 -25.5t-22.5 -53.5h-126q19 91 68 149t128 58q39 0 70 -13t57.5 -29.5t50.5 -29.5t49 -13q26 0 41.5 19.5t27.5 61.5h122q-19 -96 -70 -151.5t-123 -55.5z" />
    <glyph glyph-name="Imacron" unicode="&#x12a;" horiz-adv-x="534" 
d="M516 1490l-247 -1490h-188l247 1490h188zM761 1860l-24 -141h-554l24 141h554z" />
    <glyph glyph-name="imacron" unicode="&#x12b;" horiz-adv-x="481" 
d="M60 0l183 1104h178l-183 -1104h-178zM672 1474l-24 -141h-554l24 141h554z" />
    <glyph glyph-name="Ibreve" unicode="&#x12c;" horiz-adv-x="534" 
d="M516 1490l-247 -1490h-188l247 1490h188zM447 1647q-80 0 -139.5 37.5t-87 101.5t-14.5 143h131q-11 -69 26 -112t106 -43q46 0 85 19.5t65.5 54.5t33.5 81h131q-13 -79 -62.5 -143t-121 -101.5t-153.5 -37.5z" />
    <glyph glyph-name="ibreve" unicode="&#x12d;" horiz-adv-x="481" 
d="M60 0l183 1104h178l-183 -1104h-178zM357 1261q-80 0 -139.5 37.5t-87 101.5t-14.5 143h131q-11 -69 26 -112t106 -43q46 0 85 19.5t65.5 54.5t33.5 81h131q-13 -79 -62.5 -143t-121 -101.5t-153.5 -37.5z" />
    <glyph glyph-name="Iogonek" unicode="&#x12e;" horiz-adv-x="534" 
d="M516 1490l-247 -1490h-188l247 1490h188zM83 -432q-95 0 -153 49.5t-42 143.5q12 73 69 139.5t157 124.5l155 -25q-82 -55 -135.5 -102t-62.5 -104q-6 -37 12 -56.5t59 -19.5q25 0 48.5 6.5t41.5 15.5l25 -133q-32 -13 -75.5 -26t-98.5 -13z" />
    <glyph glyph-name="iogonek" unicode="&#x12f;" horiz-adv-x="481" 
d="M60 0l183 1104h178l-183 -1104h-178zM52 -432q-95 0 -153 49.5t-42 143.5q12 73 69 139.5t157 124.5l155 -25q-82 -55 -135.5 -102t-62.5 -104q-6 -37 12 -56.5t59 -19.5q25 0 48.5 6.5t41.5 15.5l25 -133q-32 -13 -75.5 -26t-98.5 -13zM363 1292q-50 0 -80.5 35
t-22.5 84t50 83.5t93 34.5t81.5 -34.5t22.5 -83.5t-50.5 -84t-93.5 -35z" />
    <glyph glyph-name="Idotaccent" unicode="&#x130;" horiz-adv-x="534" 
d="M516 1490l-247 -1490h-188l247 1490h188zM453 1678q-50 0 -80.5 35t-22.5 84t50 83.5t93 34.5t81.5 -34.5t22.5 -83.5t-50.5 -84t-93.5 -35z" />
    <glyph glyph-name="dotlessi" unicode="&#x131;" horiz-adv-x="481" 
d="M60 0l183 1104h178l-183 -1104h-178z" />
    <glyph glyph-name="IJ" unicode="&#x132;" horiz-adv-x="1687" 
d="M516 1490l-247 -1490h-188l247 1490h188zM988 -20q-174 0 -281 91.5t-107 261.5q0 15 1.5 33t6 51t12.5 89h188q-8 -52 -12.5 -81t-5.5 -43.5t-1 -25.5q0 -102 57.5 -156.5t157.5 -54.5q113 0 196.5 71t106.5 210l177 1064h188l-177 -1064q-35 -213 -172 -329.5
t-335 -116.5z" />
    <glyph glyph-name="ij" unicode="&#x133;" horiz-adv-x="960" 
d="M60 0l183 1104h178l-183 -1104h-178zM363 1292q-50 0 -80.5 35t-22.5 84t50 83.5t93 34.5t81.5 -34.5t22.5 -83.5t-50.5 -84t-93.5 -35zM723 1104h178l-199 -1199q-16 -99 -63.5 -171.5t-124.5 -112t-181 -39.5h-45l27 162h38q75 0 117 42t55 125zM843 1292
q-50 0 -80.5 35t-22.5 84t50 83.5t93 34.5t81.5 -34.5t22.5 -83.5t-50.5 -84t-93.5 -35z" />
    <glyph glyph-name="Jcircumflex" unicode="&#x134;" horiz-adv-x="1153" 
d="M454 -20q-174 0 -281 91.5t-107 261.5q0 15 1.5 33t6 51t12.5 89h188q-8 -52 -12.5 -81t-5.5 -43.5t-1 -25.5q0 -102 57.5 -156.5t157.5 -54.5q113 0 196.5 71t106.5 210l177 1064h188l-177 -1064q-35 -213 -172 -329.5t-335 -116.5zM927 1653h-176l2 8l278 268h170
l191 -268l-2 -8h-177l-113 176z" />
    <glyph glyph-name="jcircumflex" unicode="&#x135;" horiz-adv-x="480" 
d="M242 1104h178l-199 -1199q-16 -99 -63.5 -171.5t-124.5 -112t-181 -39.5h-45l27 162h38q75 0 117 42t55 125zM215 1267h-176l2 8l278 268h170l191 -268l-2 -8h-177l-113 176z" />
    <glyph glyph-name="uni0136" unicode="&#x136;" horiz-adv-x="1359" 
d="M280 426l27 210q63 68 124 130t124 122.5t127 119.5l527 482h255l-749 -681l-11 1zM81 0l247 1490h189l-85 -512l-57 -320l-12 -92l-93 -566h-189zM1010 0l-413 760l124 146l496 -906h-207zM348 -493l144 375h183l-188 -375h-139z" />
    <glyph glyph-name="uni0137" unicode="&#x137;" horiz-adv-x="1106" 
d="M292 397l36 218h29l561 489h223l-604 -524h-19zM59 0l247 1490h178l-247 -1490h-178zM765 0l-339 541l147 125l420 -666h-228zM226 -493l144 375h183l-188 -375h-139z" />
    <glyph glyph-name="kgreenlandic" unicode="&#x138;" horiz-adv-x="1059" 
d="M421 1104l-183 -1104h-178l183 1104h178zM1129 1104l-644 -632h-237l26 158h168l471 474h216zM720 0l-331 477l118 143l434 -620h-221z" />
    <glyph glyph-name="Lacute" unicode="&#x139;" horiz-adv-x="1144" 
d="M81 0l247 1490h188l-219 -1324h696l-28 -166h-884zM365 1659l186 275h199l-240 -275h-145z" />
    <glyph glyph-name="lacute" unicode="&#x13a;" horiz-adv-x="480" 
d="M484 1490l-247 -1490h-178l247 1490h178zM338 1659l186 275h199l-240 -275h-145z" />
    <glyph glyph-name="uni013B" unicode="&#x13b;" horiz-adv-x="1144" 
d="M81 0l247 1490h188l-219 -1324h696l-28 -166h-884zM265 -493l144 375h183l-188 -375h-139z" />
    <glyph glyph-name="uni013C" unicode="&#x13c;" horiz-adv-x="480" 
d="M484 1490l-247 -1490h-178l247 1490h178zM-108 -493l144 375h183l-188 -375h-139z" />
    <glyph glyph-name="Lcaron" unicode="&#x13d;" horiz-adv-x="1144" 
d="M81 0l247 1490h188l-219 -1324h696l-28 -166h-884zM719 1182l62 378h179l-114 -378h-127z" />
    <glyph glyph-name="lcaron" unicode="&#x13e;" horiz-adv-x="610" 
d="M484 1490l-247 -1490h-178l247 1490h178zM577 1182l62 378h179l-114 -378h-127z" />
    <glyph glyph-name="Ldot" unicode="&#x13f;" horiz-adv-x="1138" 
d="M81 0l247 1490h188l-219 -1324h696l-28 -166h-884zM738 724q-50 0 -80.5 35t-22.5 84t50 83.5t93 34.5t81.5 -34.5t22.5 -83.5t-50.5 -84t-93.5 -35z" />
    <glyph glyph-name="ldot" unicode="&#x140;" horiz-adv-x="722" 
d="M484 1490l-247 -1490h-178l247 1490h178zM608 612q-58 0 -93.5 42.5t-26.5 102.5q9 52 50.5 86t90.5 34q60 0 94.5 -42.5t25.5 -99.5q-7 -51 -48 -87t-93 -36z" />
    <glyph glyph-name="Lslash" unicode="&#x141;" horiz-adv-x="1144" 
d="M81 0l247 1490h188l-219 -1324h696l-28 -166h-884zM121 501l31 187l814 429l-31 -188z" />
    <glyph glyph-name="lslash" unicode="&#x142;" horiz-adv-x="480" 
d="M484 1490l-247 -1490h-178l247 1490h178zM-3 653l26 160l566 299l-26 -159z" />
    <glyph glyph-name="Nacute" unicode="&#x143;" horiz-adv-x="1523" 
d="M81 0l247 1490h213l451 -957q14 -30 38 -85.5t52 -127t53 -153.5l-21 -8q6 79 15 155t19 141.5t17 109.5l153 925h188l-247 -1490h-214l-402 851q-23 50 -49.5 111.5t-61.5 147.5t-85 209l26 11q-15 -120 -26.5 -213t-20.5 -158.5t-16 -105.5l-140 -853h-189zM860 1659
l186 275h199l-240 -275h-145z" />
    <glyph glyph-name="nacute" unicode="&#x144;" horiz-adv-x="1191" 
d="M346 652l-109 -652h-178l184 1104h171l-44 -267l-31 5q76 150 177.5 214t225.5 64q114 0 195 -48t115.5 -143t10.5 -237l-115 -692h-178l115 690q22 132 -31 200.5t-167 68.5q-81 0 -153 -35.5t-122 -104t-66 -167.5zM629 1273l186 275h199l-240 -275h-145z" />
    <glyph glyph-name="uni0145" unicode="&#x145;" horiz-adv-x="1523" 
d="M81 0l247 1490h213l451 -957q14 -30 38 -85.5t52 -127t53 -153.5l-21 -8q6 79 15 155t19 141.5t17 109.5l153 925h188l-247 -1490h-214l-402 851q-23 50 -49.5 111.5t-61.5 147.5t-85 209l26 11q-15 -120 -26.5 -213t-20.5 -158.5t-16 -105.5l-140 -853h-189zM415 -493
l144 375h183l-188 -375h-139z" />
    <glyph glyph-name="uni0146" unicode="&#x146;" horiz-adv-x="1191" 
d="M346 652l-109 -652h-178l184 1104h171l-44 -267l-31 5q76 150 177.5 214t225.5 64q114 0 195 -48t115.5 -143t10.5 -237l-115 -692h-178l115 690q22 132 -31 200.5t-167 68.5q-81 0 -153 -35.5t-122 -104t-66 -167.5zM248 -493l144 375h183l-188 -375h-139z" />
    <glyph glyph-name="Ncaron" unicode="&#x147;" horiz-adv-x="1523" 
d="M81 0l247 1490h213l451 -957q14 -30 38 -85.5t52 -127t53 -153.5l-21 -8q6 79 15 155t19 141.5t17 109.5l153 925h188l-247 -1490h-214l-402 851q-23 50 -49.5 111.5t-61.5 147.5t-85 209l26 11q-15 -120 -26.5 -213t-20.5 -158.5t-16 -105.5l-140 -853h-189zM846 1929
l115 -175l171 175h178l-2 -7l-280 -269h-170l-189 269l2 7h175z" />
    <glyph glyph-name="ncaron" unicode="&#x148;" horiz-adv-x="1191" 
d="M346 652l-109 -652h-178l184 1104h171l-44 -267l-31 5q76 150 177.5 214t225.5 64q114 0 195 -48t115.5 -143t10.5 -237l-115 -692h-178l115 690q22 132 -31 200.5t-167 68.5q-81 0 -153 -35.5t-122 -104t-66 -167.5zM615 1543l115 -175l171 175h178l-2 -7l-280 -269
h-170l-189 269l2 7h175z" />
    <glyph glyph-name="Eng" unicode="&#x14a;" horiz-adv-x="1523" 
d="M803 -418l26 158q16 -2 36 -3t32 -1q81 0 114 25.5t41 75.5l48 291h188l-50 -299q-20 -124 -105 -189t-226 -65q-33 0 -60.5 2t-43.5 5zM81 0l247 1490h213l451 -957q14 -30 38 -85.5t52 -127t53 -153.5l-21 -8q6 79 15 155t19 141.5t17 109.5l153 925h188l-247 -1490
h-214l-402 851q-23 50 -49.5 111.5t-61.5 147.5t-85 209l26 11q-15 -120 -26.5 -213t-20.5 -158.5t-16 -105.5l-140 -853h-189z" />
    <glyph glyph-name="eng" unicode="&#x14b;" horiz-adv-x="1191" 
d="M484 -418l26 158q16 -2 41 -3t36 -1q76 0 111.5 23.5t44.5 77.5l27 163h178l-29 -171q-21 -126 -107 -190t-224 -64q-33 0 -60.5 2t-43.5 5zM346 652l-109 -652h-178l184 1104h171l-44 -267l-31 5q76 150 177.5 214t225.5 64q114 0 195 -48t115.5 -143t10.5 -237
l-115 -692h-178l115 690q22 132 -31 200.5t-167 68.5q-81 0 -153 -35.5t-122 -104t-66 -167.5z" />
    <glyph glyph-name="Omacron" unicode="&#x14c;" horiz-adv-x="1559" 
d="M696 -21q-170 0 -296.5 73.5t-196.5 209t-70 320.5q0 177 56 343.5t161 298t251 209.5t327 78q170 0 296 -73.5t195.5 -208.5t69.5 -321q0 -178 -56 -344t-160.5 -298t-250.5 -209.5t-326 -77.5zM703 153q140 0 252 64t190.5 172t119.5 241.5t41 273.5q0 141 -49.5 237.5
t-136.5 146t-199 49.5q-140 0 -252 -64t-191 -172.5t-120.5 -241.5t-41.5 -273q0 -141 49.5 -237.5t137 -146t200.5 -49.5zM1274 1860l-24 -141h-554l24 141h554z" />
    <glyph glyph-name="omacron" unicode="&#x14d;" horiz-adv-x="1205" 
d="M518 -24q-134 0 -230.5 56.5t-148.5 158.5t-52 238q0 132 41.5 255.5t119.5 222t188.5 156t248.5 57.5q134 0 231 -56t149 -158t52 -240q0 -134 -42 -257.5t-120.5 -221t-189 -154.5t-247.5 -57zM522 135q102 0 180 47.5t130.5 125t79 171t26.5 184.5q0 86 -27 153
t-84 106t-147 39q-101 0 -178 -47t-130 -125t-80 -172t-27 -187q0 -127 61.5 -211t195.5 -84zM1032 1474l-24 -141h-554l24 141h554z" />
    <glyph glyph-name="Obreve" unicode="&#x14e;" horiz-adv-x="1559" 
d="M696 -21q-170 0 -296.5 73.5t-196.5 209t-70 320.5q0 177 56 343.5t161 298t251 209.5t327 78q170 0 296 -73.5t195.5 -208.5t69.5 -321q0 -178 -56 -344t-160.5 -298t-250.5 -209.5t-326 -77.5zM703 153q140 0 252 64t190.5 172t119.5 241.5t41 273.5q0 141 -49.5 237.5
t-136.5 146t-199 49.5q-140 0 -252 -64t-191 -172.5t-120.5 -241.5t-41.5 -273q0 -141 49.5 -237.5t137 -146t200.5 -49.5zM960 1647q-80 0 -139.5 37.5t-87 101.5t-14.5 143h131q-11 -69 26 -112t106 -43q46 0 85 19.5t65.5 54.5t33.5 81h131q-13 -79 -62.5 -143
t-121 -101.5t-153.5 -37.5z" />
    <glyph glyph-name="obreve" unicode="&#x14f;" horiz-adv-x="1205" 
d="M518 -24q-134 0 -230.5 56.5t-148.5 158.5t-52 238q0 132 41.5 255.5t119.5 222t188.5 156t248.5 57.5q134 0 231 -56t149 -158t52 -240q0 -134 -42 -257.5t-120.5 -221t-189 -154.5t-247.5 -57zM522 135q102 0 180 47.5t130.5 125t79 171t26.5 184.5q0 86 -27 153
t-84 106t-147 39q-101 0 -178 -47t-130 -125t-80 -172t-27 -187q0 -127 61.5 -211t195.5 -84zM718 1261q-80 0 -139.5 37.5t-87 101.5t-14.5 143h131q-11 -69 26 -112t106 -43q46 0 85 19.5t65.5 54.5t33.5 81h131q-13 -79 -62.5 -143t-121 -101.5t-153.5 -37.5z" />
    <glyph glyph-name="Ohungarumlaut" unicode="&#x150;" horiz-adv-x="1559" 
d="M696 -21q-170 0 -296.5 73.5t-196.5 209t-70 320.5q0 177 56 343.5t161 298t251 209.5t327 78q170 0 296 -73.5t195.5 -208.5t69.5 -321q0 -178 -56 -344t-160.5 -298t-250.5 -209.5t-326 -77.5zM703 153q140 0 252 64t190.5 172t119.5 241.5t41 273.5q0 141 -49.5 237.5
t-136.5 146t-199 49.5q-140 0 -252 -64t-191 -172.5t-120.5 -241.5t-41.5 -273q0 -141 49.5 -237.5t137 -146t200.5 -49.5zM797 1634h-146l167 295h198zM1116 1634h-147l217 295h199z" />
    <glyph glyph-name="ohungarumlaut" unicode="&#x151;" horiz-adv-x="1205" 
d="M518 -24q-134 0 -230.5 56.5t-148.5 158.5t-52 238q0 132 41.5 255.5t119.5 222t188.5 156t248.5 57.5q134 0 231 -56t149 -158t52 -240q0 -134 -42 -257.5t-120.5 -221t-189 -154.5t-247.5 -57zM522 135q102 0 180 47.5t130.5 125t79 171t26.5 184.5q0 86 -27 153
t-84 106t-147 39q-101 0 -178 -47t-130 -125t-80 -172t-27 -187q0 -127 61.5 -211t195.5 -84zM555 1248h-146l167 295h198zM874 1248h-147l217 295h199z" />
    <glyph glyph-name="OE" unicode="&#x152;" horiz-adv-x="1970" 
d="M690 0q-202 0 -337.5 92.5t-189.5 260t-17 392.5q38 226 147.5 393.5t274 259.5t364.5 92h222l-26 -160h-219q-150 0 -272.5 -72.5t-204.5 -203.5t-112 -309q-29 -176 9.5 -307.5t138.5 -204.5t253 -73h212l-29 -160h-214zM830 0l247 1490h922l-28 -165h-734l-80 -487
h683l-28 -166h-683l-84 -507h740l-26 -165h-929z" />
    <glyph glyph-name="oe" unicode="&#x153;" horiz-adv-x="1997" 
d="M518 -24q-134 0 -230.5 56.5t-148.5 158.5t-52 238q0 132 41.5 255.5t119.5 222t188.5 156t248.5 57.5q134 0 231 -56t149 -158t52 -240q0 -134 -42 -257.5t-120.5 -221t-189 -154.5t-247.5 -57zM522 135q102 0 180 47.5t130.5 125t79 171t26.5 184.5q0 86 -27 153
t-84 106t-147 39q-101 0 -178 -47t-130 -125t-80 -172t-27 -187q0 -127 61.5 -211t195.5 -84zM1363 -24q-135 0 -232 52.5t-150 153t-53 245.5q0 147 46 274.5t129 223t193 149.5t236 54q108 0 188.5 -36.5t124.5 -104.5t44 -162t-49 -160.5t-151 -108t-260 -61t-376 -19.5
l24 138q183 0 305.5 11t194.5 36t103 66t31 101q0 65 -53 103.5t-143 38.5q-112 0 -190.5 -52t-128.5 -134.5t-73 -177t-23 -180.5q0 -81 25.5 -147t86 -105.5t162.5 -39.5q109 0 192 47.5t125 128.5l167 -37q-60 -136 -192.5 -216.5t-302.5 -80.5z" />
    <glyph glyph-name="Racute" unicode="&#x154;" horiz-adv-x="1313" 
d="M81 0l247 1490h518q172 0 275 -59t142 -162.5t17 -236.5q-23 -134 -96.5 -236t-196.5 -159t-292 -57h-413l28 167h407q115 0 193.5 35t123.5 100t59 152q23 138 -45.5 214.5t-236.5 76.5h-323l-219 -1325h-188zM944 0l-249 671h207l255 -671h-213zM745 1659l186 275h199
l-240 -275h-145z" />
    <glyph glyph-name="racute" unicode="&#x155;" horiz-adv-x="747" 
d="M60 0l183 1104h171l-28 -170h10q44 84 128.5 135t184.5 51q21 0 46 -1t40 -2l-30 -179q-11 2 -41 6t-64 4q-75 0 -140.5 -32t-110 -90t-57.5 -137l-114 -689h-178zM448 1273l186 275h199l-240 -275h-145z" />
    <glyph glyph-name="uni0156" unicode="&#x156;" horiz-adv-x="1313" 
d="M81 0l247 1490h518q172 0 275 -59t142 -162.5t17 -236.5q-23 -134 -96.5 -236t-196.5 -159t-292 -57h-413l28 167h407q115 0 193.5 35t123.5 100t59 152q23 138 -45.5 214.5t-236.5 76.5h-323l-219 -1325h-188zM944 0l-249 671h207l255 -671h-213zM325 -493l144 375h183
l-188 -375h-139z" />
    <glyph glyph-name="uni0157" unicode="&#x157;" horiz-adv-x="747" 
d="M60 0l183 1104h171l-28 -170h10q44 84 128.5 135t184.5 51q21 0 46 -1t40 -2l-30 -179q-11 2 -41 6t-64 4q-75 0 -140.5 -32t-110 -90t-57.5 -137l-114 -689h-178zM-107 -493l144 375h183l-188 -375h-139z" />
    <glyph glyph-name="Rcaron" unicode="&#x158;" horiz-adv-x="1313" 
d="M81 0l247 1490h518q172 0 275 -59t142 -162.5t17 -236.5q-23 -134 -96.5 -236t-196.5 -159t-292 -57h-413l28 167h407q115 0 193.5 35t123.5 100t59 152q23 138 -45.5 214.5t-236.5 76.5h-323l-219 -1325h-188zM944 0l-249 671h207l255 -671h-213zM731 1929l115 -175
l171 175h178l-2 -7l-280 -269h-170l-189 269l2 7h175z" />
    <glyph glyph-name="rcaron" unicode="&#x159;" horiz-adv-x="747" 
d="M60 0l183 1104h171l-28 -170h10q44 84 128.5 135t184.5 51q21 0 46 -1t40 -2l-30 -179q-11 2 -41 6t-64 4q-75 0 -140.5 -32t-110 -90t-57.5 -137l-114 -689h-178zM434 1543l115 -175l171 175h178l-2 -7l-280 -269h-170l-189 269l2 7h175z" />
    <glyph glyph-name="Sacute" unicode="&#x15a;" horiz-adv-x="1300" 
d="M571 -26q-163 0 -278 54t-169.5 152t-40.5 230h193q-9 -89 29 -148.5t110.5 -89t166.5 -29.5q104 0 190.5 33.5t143.5 93t70 140.5q11 69 -18.5 113.5t-91 74.5t-144.5 54l-170 49q-173 49 -262.5 141.5t-64.5 248.5q20 126 99 221t200 147t268 52q148 0 256 -52.5
t162 -145.5t38 -213h-183q7 115 -73 179.5t-217 64.5q-97 0 -175.5 -32t-128.5 -87.5t-62 -126.5q-12 -72 23.5 -118.5t97.5 -74.5t126 -46l147 -41q66 -19 135 -49t125 -77t83.5 -117.5t11.5 -170.5q-20 -123 -97 -220t-203 -153.5t-297 -56.5zM746 1659l186 275h199
l-240 -275h-145z" />
    <glyph glyph-name="sacute" unicode="&#x15b;" horiz-adv-x="1056" 
d="M443 -24q-112 0 -195.5 32t-133 94t-56.5 153q-1 8 -1.5 15.5t0.5 15.5l172 22q5 -92 61 -134.5t155 -42.5q79 0 142.5 25t103.5 66.5t46 92.5q7 52 -26 85.5t-108 51.5l-176 44q-141 34 -205 110t-48 193q12 96 75 168.5t160.5 112.5t212.5 40q160 0 247.5 -68
t108.5 -177q2 -11 3.5 -21.5t2.5 -22.5l-166 -23q-7 67 -52 114t-147 47q-70 0 -128.5 -24t-95.5 -64t-44 -91q-7 -55 29.5 -88t124.5 -54l162 -40q142 -35 205 -110t47 -189q-9 -74 -49 -135t-104 -105.5t-146.5 -68.5t-176.5 -24zM564 1273l186 275h199l-240 -275h-145z
" />
    <glyph glyph-name="Scircumflex" unicode="&#x15c;" horiz-adv-x="1300" 
d="M571 -26q-163 0 -278 54t-169.5 152t-40.5 230h193q-9 -89 29 -148.5t110.5 -89t166.5 -29.5q104 0 190.5 33.5t143.5 93t70 140.5q11 69 -18.5 113.5t-91 74.5t-144.5 54l-170 49q-173 49 -262.5 141.5t-64.5 248.5q20 126 99 221t200 147t268 52q148 0 256 -52.5
t162 -145.5t38 -213h-183q7 115 -73 179.5t-217 64.5q-97 0 -175.5 -32t-128.5 -87.5t-62 -126.5q-12 -72 23.5 -118.5t97.5 -74.5t126 -46l147 -41q66 -19 135 -49t125 -77t83.5 -117.5t11.5 -170.5q-20 -123 -97 -220t-203 -153.5t-297 -56.5zM687 1653h-176l2 8l278 268
h170l191 -268l-2 -8h-177l-113 176z" />
    <glyph glyph-name="scircumflex" unicode="&#x15d;" horiz-adv-x="1056" 
d="M443 -24q-112 0 -195.5 32t-133 94t-56.5 153q-1 8 -1.5 15.5t0.5 15.5l172 22q5 -92 61 -134.5t155 -42.5q79 0 142.5 25t103.5 66.5t46 92.5q7 52 -26 85.5t-108 51.5l-176 44q-141 34 -205 110t-48 193q12 96 75 168.5t160.5 112.5t212.5 40q160 0 247.5 -68
t108.5 -177q2 -11 3.5 -21.5t2.5 -22.5l-166 -23q-7 67 -52 114t-147 47q-70 0 -128.5 -24t-95.5 -64t-44 -91q-7 -55 29.5 -88t124.5 -54l162 -40q142 -35 205 -110t47 -189q-9 -74 -49 -135t-104 -105.5t-146.5 -68.5t-176.5 -24zM505 1267h-176l2 8l278 268h170l191 -268
l-2 -8h-177l-113 176z" />
    <glyph glyph-name="Scedilla" unicode="&#x15e;" horiz-adv-x="1300" 
d="M571 -26q-163 0 -278 54t-169.5 152t-40.5 230h193q-9 -89 29 -148.5t110.5 -89t166.5 -29.5q104 0 190.5 33.5t143.5 93t70 140.5q11 69 -18.5 113.5t-91 74.5t-144.5 54l-170 49q-173 49 -262.5 141.5t-64.5 248.5q20 126 99 221t200 147t268 52q148 0 256 -52.5
t162 -145.5t38 -213h-183q7 115 -73 179.5t-217 64.5q-97 0 -175.5 -32t-128.5 -87.5t-62 -126.5q-12 -72 23.5 -118.5t97.5 -74.5t126 -46l147 -41q66 -19 135 -49t125 -77t83.5 -117.5t11.5 -170.5q-20 -123 -97 -220t-203 -153.5t-297 -56.5zM380 -418l17 105h118
q54 0 78.5 15t30.5 50t-13 50.5t-74 15.5h-82l68 230h95l-8 -48l-14 -86q93 -4 133.5 -43t27.5 -117q-14 -88 -77 -130t-181 -42h-119z" />
    <glyph glyph-name="scedilla" unicode="&#x15f;" horiz-adv-x="1056" 
d="M443 -24q-112 0 -195.5 32t-133 94t-56.5 153q-1 8 -1.5 15.5t0.5 15.5l172 22q5 -92 61 -134.5t155 -42.5q79 0 142.5 25t103.5 66.5t46 92.5q7 52 -26 85.5t-108 51.5l-176 44q-141 34 -205 110t-48 193q12 96 75 168.5t160.5 112.5t212.5 40q160 0 247.5 -68
t108.5 -177q2 -11 3.5 -21.5t2.5 -22.5l-166 -23q-7 67 -52 114t-147 47q-70 0 -128.5 -24t-95.5 -64t-44 -91q-7 -55 29.5 -88t124.5 -54l162 -40q142 -35 205 -110t47 -189q-9 -74 -49 -135t-104 -105.5t-146.5 -68.5t-176.5 -24zM258 -418l17 105h118q54 0 78.5 15
t30.5 50t-13 50.5t-74 15.5h-82l68 230h95l-8 -48l-14 -86q93 -4 133.5 -43t27.5 -117q-14 -88 -77 -130t-181 -42h-119z" />
    <glyph glyph-name="Scaron" unicode="&#x160;" horiz-adv-x="1300" 
d="M571 -26q-163 0 -278 54t-169.5 152t-40.5 230h193q-9 -89 29 -148.5t110.5 -89t166.5 -29.5q104 0 190.5 33.5t143.5 93t70 140.5q11 69 -18.5 113.5t-91 74.5t-144.5 54l-170 49q-173 49 -262.5 141.5t-64.5 248.5q20 126 99 221t200 147t268 52q148 0 256 -52.5
t162 -145.5t38 -213h-183q7 115 -73 179.5t-217 64.5q-97 0 -175.5 -32t-128.5 -87.5t-62 -126.5q-12 -72 23.5 -118.5t97.5 -74.5t126 -46l147 -41q66 -19 135 -49t125 -77t83.5 -117.5t11.5 -170.5q-20 -123 -97 -220t-203 -153.5t-297 -56.5zM732 1929l115 -175l171 175
h178l-2 -7l-280 -269h-170l-189 269l2 7h175z" />
    <glyph glyph-name="scaron" unicode="&#x161;" horiz-adv-x="1056" 
d="M443 -24q-112 0 -195.5 32t-133 94t-56.5 153q-1 8 -1.5 15.5t0.5 15.5l172 22q5 -92 61 -134.5t155 -42.5q79 0 142.5 25t103.5 66.5t46 92.5q7 52 -26 85.5t-108 51.5l-176 44q-141 34 -205 110t-48 193q12 96 75 168.5t160.5 112.5t212.5 40q160 0 247.5 -68
t108.5 -177q2 -11 3.5 -21.5t2.5 -22.5l-166 -23q-7 67 -52 114t-147 47q-70 0 -128.5 -24t-95.5 -64t-44 -91q-7 -55 29.5 -88t124.5 -54l162 -40q142 -35 205 -110t47 -189q-9 -74 -49 -135t-104 -105.5t-146.5 -68.5t-176.5 -24zM550 1543l115 -175l171 175h178l-2 -7
l-280 -269h-170l-189 269l2 7h175z" />
    <glyph glyph-name="uni021A" unicode="&#x162;" horiz-adv-x="1308" 
d="M216 1325l28 165h1132l-28 -165h-471l-219 -1325h-188l219 1325h-473zM385 -418l17 105h118q54 0 78.5 15t30.5 50t-13 50.5t-74 15.5h-82l68 230h95l-8 -48l-14 -86q93 -4 133.5 -43t27.5 -117q-14 -88 -77 -130t-181 -42h-119z" />
    <glyph glyph-name="uni0163" unicode="&#x163;" horiz-adv-x="664" 
d="M687 1104l-25 -152h-576l25 152h576zM329 1375h177l-180 -1093q-13 -73 12 -104.5t93 -31.5q19 0 46 3t49 6l4 -150q-27 -7 -62 -11.5t-70 -4.5q-144 0 -209 73t-44 206zM154 -418l17 105h118q54 0 78.5 15t30.5 50t-13 50.5t-74 15.5h-82l68 230h95l-8 -48l-14 -86
q93 -4 133.5 -43t27.5 -117q-14 -88 -77 -130t-181 -42h-119z" />
    <glyph glyph-name="Tcaron" unicode="&#x164;" horiz-adv-x="1308" 
d="M216 1325l28 165h1132l-28 -165h-471l-219 -1325h-188l219 1325h-473zM739 1929l115 -175l171 175h178l-2 -7l-280 -269h-170l-189 269l2 7h175z" />
    <glyph glyph-name="tcaron" unicode="&#x165;" horiz-adv-x="664" 
d="M687 1104l-25 -152h-576l25 152h576zM329 1375h177l-180 -1093q-13 -73 12 -104.5t93 -31.5q19 0 46 3t49 6l4 -150q-27 -7 -62 -11.5t-70 -4.5q-144 0 -209 73t-44 206zM603 1238l62 378h179l-114 -378h-127z" />
    <glyph glyph-name="Tbar" unicode="&#x166;" horiz-adv-x="1308" 
d="M216 1325l28 165h1132l-28 -165h-471l-219 -1325h-188l219 1325h-473zM272 686l25 156h812l-25 -156h-812z" />
    <glyph glyph-name="tbar" unicode="&#x167;" horiz-adv-x="665" 
d="M629 751l-25 -152h-577l26 152h576zM688 1104l-25 -152h-576l25 152h576zM330 1375h177l-180 -1093q-13 -73 12 -104.5t93 -31.5q19 0 46 3t49 6l4 -150q-27 -7 -62 -11.5t-70 -4.5q-144 0 -209 73t-44 206z" />
    <glyph glyph-name="Utilde" unicode="&#x168;" horiz-adv-x="1505" 
d="M669 -24q-179 0 -301 70.5t-175.5 192.5t-28.5 275l162 976h188l-161 -974q-18 -109 15 -191.5t111 -128.5t197 -46q123 0 222 49.5t162.5 134.5t81.5 194l159 962h188l-164 -989q-25 -154 -115 -272.5t-229 -185.5t-312 -67zM1072 1687q-37 0 -70.5 12.5t-62.5 29
t-53 29t-43 12.5q-27 0 -43.5 -25.5t-22.5 -53.5h-126q19 91 68 149t128 58q39 0 70 -13t57.5 -29.5t50.5 -29.5t49 -13q26 0 41.5 19.5t27.5 61.5h122q-19 -96 -70 -151.5t-123 -55.5z" />
    <glyph glyph-name="utilde" unicode="&#x169;" horiz-adv-x="1192" 
d="M439 -15q-111 0 -189 46t-111.5 140t-10.5 235l115 698h178l-113 -683q-21 -130 33.5 -203t172.5 -73q78 0 147.5 34t118.5 101t65 166l108 658h179l-183 -1104h-172l44 268h29q-76 -154 -181.5 -218.5t-229.5 -64.5zM851 1301q-37 0 -70.5 12.5t-62.5 29t-53 29
t-43 12.5q-27 0 -43.5 -25.5t-22.5 -53.5h-126q19 91 68 149t128 58q39 0 70 -13t57.5 -29.5t50.5 -29.5t49 -13q26 0 41.5 19.5t27.5 61.5h122q-19 -96 -70 -151.5t-123 -55.5z" />
    <glyph glyph-name="Umacron" unicode="&#x16a;" horiz-adv-x="1505" 
d="M669 -24q-179 0 -301 70.5t-175.5 192.5t-28.5 275l162 976h188l-161 -974q-18 -109 15 -191.5t111 -128.5t197 -46q123 0 222 49.5t162.5 134.5t81.5 194l159 962h188l-164 -989q-25 -154 -115 -272.5t-229 -185.5t-312 -67zM1247 1860l-24 -141h-554l24 141h554z" />
    <glyph glyph-name="umacron" unicode="&#x16b;" horiz-adv-x="1192" 
d="M439 -15q-111 0 -189 46t-111.5 140t-10.5 235l115 698h178l-113 -683q-21 -130 33.5 -203t172.5 -73q78 0 147.5 34t118.5 101t65 166l108 658h179l-183 -1104h-172l44 268h29q-76 -154 -181.5 -218.5t-229.5 -64.5zM1026 1474l-24 -141h-554l24 141h554z" />
    <glyph glyph-name="Ubreve" unicode="&#x16c;" horiz-adv-x="1505" 
d="M669 -24q-179 0 -301 70.5t-175.5 192.5t-28.5 275l162 976h188l-161 -974q-18 -109 15 -191.5t111 -128.5t197 -46q123 0 222 49.5t162.5 134.5t81.5 194l159 962h188l-164 -989q-25 -154 -115 -272.5t-229 -185.5t-312 -67zM932 1647q-80 0 -139.5 37.5t-87 101.5
t-14.5 143h131q-11 -69 26 -112t106 -43q46 0 85 19.5t65.5 54.5t33.5 81h131q-13 -79 -62.5 -143t-121 -101.5t-153.5 -37.5z" />
    <glyph glyph-name="ubreve" unicode="&#x16d;" horiz-adv-x="1192" 
d="M439 -15q-111 0 -189 46t-111.5 140t-10.5 235l115 698h178l-113 -683q-21 -130 33.5 -203t172.5 -73q78 0 147.5 34t118.5 101t65 166l108 658h179l-183 -1104h-172l44 268h29q-76 -154 -181.5 -218.5t-229.5 -64.5zM712 1261q-80 0 -139.5 37.5t-87 101.5t-14.5 143
h131q-11 -69 26 -112t106 -43q46 0 85 19.5t65.5 54.5t33.5 81h131q-13 -79 -62.5 -143t-121 -101.5t-153.5 -37.5z" />
    <glyph glyph-name="Uring" unicode="&#x16e;" horiz-adv-x="1505" 
d="M669 -24q-179 0 -301 70.5t-175.5 192.5t-28.5 275l162 976h188l-161 -974q-18 -109 15 -191.5t111 -128.5t197 -46q123 0 222 49.5t162.5 134.5t81.5 194l159 962h188l-164 -989q-25 -154 -115 -272.5t-229 -185.5t-312 -67zM928 1550q-75 0 -130.5 35t-81.5 94t-14 129
q11 65 52 118.5t102.5 84.5t131.5 31q75 0 130 -34.5t81.5 -93t15.5 -129.5q-11 -66 -53.5 -119.5t-103.5 -84.5t-130 -31zM938 1674q49 0 91 34.5t51 85.5q10 52 -19.5 88.5t-81.5 36.5q-51 0 -92.5 -35.5t-50.5 -86.5q-9 -50 20.5 -86.5t81.5 -36.5z" />
    <glyph glyph-name="uring" unicode="&#x16f;" horiz-adv-x="1192" 
d="M439 -15q-111 0 -189 46t-111.5 140t-10.5 235l115 698h178l-113 -683q-21 -130 33.5 -203t172.5 -73q78 0 147.5 34t118.5 101t65 166l108 658h179l-183 -1104h-172l44 268h29q-76 -154 -181.5 -218.5t-229.5 -64.5zM700 1179q-72 0 -125 33.5t-78.5 90t-14.5 124.5
q12 69 56 124.5t108 89t135 33.5q72 0 125 -33.5t78.5 -89t13.5 -124.5q-10 -68 -54.5 -124.5t-108 -90t-135.5 -33.5zM719 1304q53 0 94.5 36t49.5 88t-21.5 86.5t-79.5 34.5q-52 0 -93.5 -35t-50.5 -86q-9 -52 20 -88t81 -36z" />
    <glyph glyph-name="Uhungarumlaut" unicode="&#x170;" horiz-adv-x="1505" 
d="M669 -24q-179 0 -301 70.5t-175.5 192.5t-28.5 275l162 976h188l-161 -974q-18 -109 15 -191.5t111 -128.5t197 -46q123 0 222 49.5t162.5 134.5t81.5 194l159 962h188l-164 -989q-25 -154 -115 -272.5t-229 -185.5t-312 -67zM769 1634h-146l167 295h198zM1088 1634h-147
l217 295h199z" />
    <glyph glyph-name="uhungarumlaut" unicode="&#x171;" horiz-adv-x="1192" 
d="M439 -15q-111 0 -189 46t-111.5 140t-10.5 235l115 698h178l-113 -683q-21 -130 33.5 -203t172.5 -73q78 0 147.5 34t118.5 101t65 166l108 658h179l-183 -1104h-172l44 268h29q-76 -154 -181.5 -218.5t-229.5 -64.5zM548 1248h-146l167 295h198zM867 1248h-147l217 295
h199z" />
    <glyph glyph-name="Uogonek" unicode="&#x172;" horiz-adv-x="1505" 
d="M669 -24q-179 0 -301 70.5t-175.5 192.5t-28.5 275l162 976h188l-161 -974q-18 -109 15 -191.5t111 -128.5t197 -46q123 0 222 49.5t162.5 134.5t81.5 194l159 962h188l-164 -989q-25 -154 -115 -272.5t-229 -185.5t-312 -67zM651 -432q-94 0 -153.5 49t-43.5 144
q11 65 55 111.5t110.5 83.5t144 72t156 75.5t147.5 94.5t118 129t66 180l74 -6q-22 -130 -78 -219.5t-131 -150t-154.5 -102.5t-150 -76.5t-117.5 -71t-55 -87.5q-6 -36 12 -56t59 -20q26 0 49.5 7t40.5 15l24 -133q-32 -13 -75 -26t-98 -13z" />
    <glyph glyph-name="uogonek" unicode="&#x173;" horiz-adv-x="1192" 
d="M439 -15q-111 0 -189 46t-111.5 140t-10.5 235l115 698h178l-113 -683q-21 -130 33.5 -203t172.5 -73q78 0 147.5 34t118.5 101t65 166l108 658h179l-183 -1104h-172l44 268h29q-76 -154 -181.5 -218.5t-229.5 -64.5zM763 -432q-95 0 -153 49.5t-42 143.5q12 73 69 139.5
t157 124.5l155 -25q-82 -55 -135.5 -102t-62.5 -104q-6 -37 12 -56.5t59 -19.5q25 0 48.5 6.5t41.5 15.5l25 -133q-32 -13 -75.5 -26t-98.5 -13z" />
    <glyph glyph-name="Wcircumflex" unicode="&#x174;" horiz-adv-x="2002" 
d="M359 0l-159 1490h190l84 -918q7 -72 11.5 -147t8.5 -151t5 -156h-23q27 80 56 156t59 151t61 147l395 918h214l89 -918q7 -72 12.5 -147t9.5 -151t6 -156h-26q28 80 57 156t59 151t61 147l388 918h195l-655 -1490h-219l-99 948q-10 94 -15 199t-5 240h38
q-42 -129 -81.5 -234t-83.5 -205l-413 -948h-220zM1039 1653h-176l2 8l278 268h170l191 -268l-2 -8h-177l-113 176z" />
    <glyph glyph-name="wcircumflex" unicode="&#x175;" horiz-adv-x="1646" 
d="M307 0l-154 1104h186l55 -482q12 -102 22.5 -225t17.5 -272h-29q53 143 103.5 266.5t98.5 230.5l214 482h187l52 -482q11 -102 20.5 -225t16.5 -272h-31q54 144 105 266.5t99 230.5l216 482h190l-519 -1104h-179l-60 500q-9 71 -16.5 149t-14 162t-13.5 170h41
q-35 -85 -69.5 -168t-68 -162t-66.5 -152l-227 -499h-177zM798 1267h-176l2 8l278 268h170l191 -268l-2 -8h-177l-113 176z" />
    <glyph glyph-name="Ycircumflex" unicode="&#x176;" horiz-adv-x="1374" 
d="M501 0l101 611l-402 879h204l215 -481q36 -79 63 -152.5t52 -176.5h-76q58 105 110 179t111 150l375 481h230l-694 -879l-101 -611h-188zM725 1653h-176l2 8l278 268h170l191 -268l-2 -8h-177l-113 176z" />
    <glyph glyph-name="ycircumflex" unicode="&#x177;" horiz-adv-x="1128" 
d="M-20 -408l62 155l36 -3q50 -10 92.5 -2t80.5 43t74 107l55 105l-240 1107h186l128 -651q19 -97 30 -193.5t24 -187.5h-62q44 91 86 187.5t94 193.5l344 651h201l-702 -1277q-45 -84 -101.5 -140t-123 -83.5t-142.5 -27.5q-40 0 -72.5 5.5t-49.5 10.5zM537 1267h-176l2 8
l278 268h170l191 -268l-2 -8h-177l-113 176z" />
    <glyph glyph-name="Ydieresis" unicode="&#x178;" horiz-adv-x="1374" 
d="M501 0l101 611l-402 879h204l215 -481q36 -79 63 -152.5t52 -176.5h-76q58 105 110 179t111 150l375 481h230l-694 -879l-101 -611h-188zM1083 1678q-48 0 -77 35t-21 84q8 48 48.5 82.5t89.5 34.5t77.5 -34.5t20.5 -82.5q-8 -49 -48.5 -84t-89.5 -35zM663 1678
q-49 0 -77.5 35t-20.5 84q7 48 48 82.5t90 34.5q48 0 76.5 -34.5t20.5 -82.5q-7 -49 -47.5 -84t-89.5 -35z" />
    <glyph glyph-name="Zacute" unicode="&#x179;" horiz-adv-x="1274" 
d="M32 0l23 133l995 1192h-807l28 165h1035l-23 -135l-996 -1190h807l-28 -165h-1034zM735 1659l186 275h199l-240 -275h-145z" />
    <glyph glyph-name="zacute" unicode="&#x17a;" horiz-adv-x="1097" 
d="M27 0l23 133l740 798l2 10h-593l27 163h827l-24 -141l-722 -790l-2 -9h608l-26 -164h-860zM574 1273l186 275h199l-240 -275h-145z" />
    <glyph glyph-name="Zdotaccent" unicode="&#x17b;" horiz-adv-x="1274" 
d="M32 0l23 133l995 1192h-807l28 165h1035l-23 -135l-996 -1190h807l-28 -165h-1034zM824 1678q-50 0 -80.5 35t-22.5 84t50 83.5t93 34.5t81.5 -34.5t22.5 -83.5t-50.5 -84t-93.5 -35z" />
    <glyph glyph-name="zdotaccent" unicode="&#x17c;" horiz-adv-x="1097" 
d="M27 0l23 133l740 798l2 10h-593l27 163h827l-24 -141l-722 -790l-2 -9h608l-26 -164h-860zM662 1292q-50 0 -80.5 35t-22.5 84t50 83.5t93 34.5t81.5 -34.5t22.5 -83.5t-50.5 -84t-93.5 -35z" />
    <glyph glyph-name="Zcaron" unicode="&#x17d;" horiz-adv-x="1274" 
d="M32 0l23 133l995 1192h-807l28 165h1035l-23 -135l-996 -1190h807l-28 -165h-1034zM721 1929l115 -175l171 175h178l-2 -7l-280 -269h-170l-189 269l2 7h175z" />
    <glyph glyph-name="zcaron" unicode="&#x17e;" horiz-adv-x="1097" 
d="M27 0l23 133l740 798l2 10h-593l27 163h827l-24 -141l-722 -790l-2 -9h608l-26 -164h-860zM560 1543l115 -175l171 175h178l-2 -7l-280 -269h-170l-189 269l2 7h175z" />
    <glyph glyph-name="longs" unicode="&#x17f;" horiz-adv-x="612" 
d="M-144 -441q-20 0 -37.5 1.5t-34.5 4t-38 7.5l41 161q17 -4 44.5 -7t43.5 -3q72 0 111 37.5t53 120.5l219 1325q19 109 69 184.5t128.5 114.5t181.5 39q36 0 69 -4.5t67 -10.5l-44 -152q-18 3 -52 4.5t-62 1.5q-77 0 -120 -44t-59 -137l-219 -1320q-17 -106 -63 -178
t-121 -108.5t-177 -36.5z" />
    <glyph glyph-name="bbar" unicode="&#x180;" horiz-adv-x="1233" 
d="M582 -23q-100 0 -160.5 32t-94 77.5t-52.5 86.5h-14l-30 -173h-172l247 1490h178l-93 -559h12q29 38 72.5 82t109.5 75.5t163 31.5q122 0 211.5 -54t138 -153t48.5 -236q0 -129 -38.5 -254t-111 -225.5t-177 -160.5t-237.5 -60zM559 136q99 0 175 48t128 127t78.5 173.5
t26.5 187.5q0 131 -62 210t-187 79q-100 0 -176 -47t-127 -125t-77 -172.5t-26 -189.5q0 -133 62.5 -212t184.5 -79zM113 1225l23 140h645l-23 -140h-645z" />
    <glyph glyph-name="uni0181" unicode="&#x181;" horiz-adv-x="1613" 
d="M146 1100l16 98q24 144 110.5 218t240.5 74h95l-28 -165h-94q-66 0 -101.5 -30.5t-46.5 -98.5l-16 -96h-176zM361 0l247 1490h524q155 0 250 -53.5t133.5 -145t19.5 -205.5q-14 -89 -57 -150.5t-106 -100t-136 -59.5v-8q73 -6 135 -51t94 -127t13 -198
q-18 -115 -84.5 -203t-185.5 -138.5t-295 -50.5h-552zM577 165h348q175 0 266 72.5t108 178.5q12 75 -16.5 133.5t-92.5 92.5t-160 34h-368zM688 836h331q82 0 153.5 33t120.5 92t62 138q16 97 -40 161.5t-200 64.5h-346z" />
    <glyph glyph-name="uni0182" unicode="&#x182;" horiz-adv-x="1328" 
d="M82 0l246 1490h905l-27 -165h-717l-76 -456h370q162 0 265 -53t145 -149t20 -226t-96.5 -229.5t-195 -155.5t-281.5 -56h-558zM297 163h370q100 0 176.5 40t124 104t59.5 136q19 108 -50 184t-221 76h-370z" />
    <glyph glyph-name="uni0183" unicode="&#x183;" horiz-adv-x="1233" 
d="M373 1337l-67 153h833l-25 -153h-741zM582 -23q-100 0 -160.5 32t-94 77.5t-52.5 86.5h-14l-30 -173h-172l247 1490h178l-93 -559h12q29 38 72.5 82t109.5 75.5t163 31.5q122 0 211.5 -54t138 -153t48.5 -236q0 -129 -38.5 -254t-111 -225.5t-177 -160.5t-237.5 -60z
M559 136q99 0 175 48t128 127t78.5 173.5t26.5 187.5q0 131 -62 210t-187 79q-100 0 -176 -47t-127 -125t-77 -172.5t-26 -189.5q0 -133 62.5 -212t184.5 -79z" />
    <glyph glyph-name="uni0184" unicode="&#x184;" horiz-adv-x="1586" 
d="M266 952l-141 86l329 452h204zM639 901h407q156 0 259 -54t147.5 -153.5t22.5 -234.5q-23 -141 -99 -244t-195 -159t-275 -56h-554l247 1490h188l-220 -1326h356q97 0 174 36t126.5 102t64.5 156q15 86 -11 148.5t-89.5 95.5t-160.5 33h-415z" />
    <glyph glyph-name="uni0185" unicode="&#x185;" horiz-adv-x="1392" 
d="M200 621l-127 77l300 406h193zM593 712h321q130 0 213 -45.5t118 -125t18 -181.5t-78.5 -183.5t-159.5 -129t-226 -47.5h-476l183 1104h178l-156 -939h293q103 0 175.5 53t86.5 136q14 85 -38.5 139t-154.5 54h-326z" />
    <glyph glyph-name="uni0186" unicode="&#x186;" horiz-adv-x="1491" 
d="M858 1511q172 0 299 -73.5t196 -208.5t69 -321q0 -177 -55.5 -343t-160 -298.5t-251.5 -210t-329 -77.5q-116 0 -213 33.5t-168.5 97.5t-111 155t-40.5 207h188q3 -77 31 -136t75 -100t109.5 -62t136.5 -21q141 0 253.5 64t191 172t120.5 242t42 273t-49 236t-136.5 147
t-203.5 50q-78 0 -151 -21t-137 -61.5t-113 -99.5t-78 -136h-190q39 114 106.5 204.5t157.5 155t194.5 98.5t217.5 34z" />
    <glyph glyph-name="uni0187" unicode="&#x187;" horiz-adv-x="1491" 
d="M1291 1018l67 412q21 126 107.5 189.5t223.5 63.5q34 0 60 -2t42 -5l-24 -149q-15 2 -35.5 2.5t-31.5 0.5q-82 0 -121.5 -25t-48.5 -75l-67 -412h-172zM698 -21q-172 0 -299 73.5t-196.5 208.5t-69.5 321q0 177 56 343t160 298.5t251 210t330 77.5q116 0 212.5 -33.5
t168 -97.5t111.5 -155t41 -207h-188q-4 77 -31.5 136t-74.5 100t-110 62t-136 21q-142 0 -254 -64t-191 -172t-120.5 -242t-41.5 -273t49 -236t136.5 -147t203.5 -50q78 0 151 21t136.5 61.5t113 99.5t78.5 136h189q-39 -114 -106.5 -204.5t-157 -155t-194 -98.5t-217.5 -34
z" />
    <glyph glyph-name="uni0188" unicode="&#x188;" horiz-adv-x="1149" 
d="M935 773l-21 214q-23 161 52 235.5t222 74.5q34 0 57 -2t38 -4l-24 -148q-20 2 -45.5 3t-41.5 1q-55 0 -81 -30.5t-18 -95.5l18 -227zM518 -24q-134 0 -230.5 56t-148.5 158t-52 238q0 131 41 254.5t119 222.5t188.5 157t249.5 58q85 0 156 -22.5t124 -65.5t86 -103
t40 -135l-175 -30q-4 44 -21 80t-46.5 62t-71 40.5t-96.5 14.5q-101 0 -178.5 -47t-130.5 -124.5t-80 -171.5t-27 -187q0 -85 27 -152t84 -105.5t146 -38.5q58 0 109 16t93 44.5t73 67t51 84.5l168 -45q-32 -75 -83 -135t-116 -102.5t-141 -65.5t-158 -23z" />
    <glyph glyph-name="Dbar1" unicode="&#x189;" horiz-adv-x="1499" 
d="M612 0h-390l26 166h348q183 0 315 70.5t212.5 201t110.5 310.5t-5.5 309t-138 198t-274.5 69h-383l28 166h366q218 0 363 -89.5t205.5 -256t21.5 -398.5q-39 -234 -143 -401t-270 -256t-392 -89zM552 1490l-247 -1490h-188l247 1490h188zM44 667l25 156h770l-25 -156
h-770z" />
    <glyph glyph-name="uni018A" unicode="&#x18a;" horiz-adv-x="1743" 
d="M147 1100l16 98q23 144 109.5 218t241.5 74h94l-28 -165h-93q-67 0 -102.5 -30.5t-46.5 -98.5l-16 -96h-175zM856 0h-390l26 166h348q183 0 315 70.5t212.5 201t110.5 310.5t-5.5 309t-138 198t-274.5 69h-383l28 166h366q218 0 363 -89.5t205.5 -256t21.5 -398.5
q-39 -234 -143 -401t-270 -256t-392 -89zM796 1490l-247 -1490h-188l247 1490h188z" />
    <glyph glyph-name="uni018B" unicode="&#x18b;" horiz-adv-x="1282" 
d="M1077 0h-556q-160 0 -263.5 55.5t-145.5 155t-21 229.5q22 131 97 228t196.5 151.5t283.5 54.5h341l69 410h-689l27 176h902zM893 171l88 530h-344q-153 0 -233 -75t-97 -183q-11 -72 8.5 -134t76.5 -100t158 -38h343z" />
    <glyph glyph-name="uni018C" unicode="&#x18c;" horiz-adv-x="1233" 
d="M1121 1337h-741l25 153h832zM482 -23q-182 0 -288.5 120t-106.5 324q0 131 38 255t111 224.5t178 160t237 59.5q102 0 163 -33t93.5 -78.5t48.5 -83.5h10l93 565h178l-246 -1490h-173l29 169h-15q-30 -41 -74.5 -85.5t-112 -75.5t-163.5 -31zM514 136q100 0 175.5 47.5
t127 127t78 175t26.5 189.5q0 132 -62 209t-187 77q-99 0 -174.5 -47t-127 -124.5t-78 -171t-26.5 -189.5q0 -131 62 -212t186 -81z" />
    <glyph glyph-name="deltaturn" unicode="&#x18d;" horiz-adv-x="1097" 
d="M743 -376h-716l29 159h440q-10 16 -38.5 49t-63 70.5t-63.5 65.5q-92 92 -158 182.5t-96 188.5t-13 211l2 20q26 169 104 295.5t198 196.5t270 70q155 0 252.5 -71t135.5 -197t14 -292l-3 -20q-17 -119 -86.5 -220.5t-181.5 -169t-255 -85.5q-18 -2 -24 -2.5t-17 -1.5
q36 -39 75.5 -80t78 -82t74 -82t64.5 -83zM830 550l3 20q17 114 2 204t-69.5 141.5t-154.5 51.5q-97 0 -167 -51.5t-113.5 -141.5t-60.5 -204l-3 -20q-18 -120 22 -206.5t100 -131.5q19 -7 38 -9.5t44 -2.5q104 0 178.5 49t119.5 129t61 172z" />
    <glyph glyph-name="Eturn" unicode="&#x18e;" horiz-adv-x="1221" 
d="M1204 1490l-247 -1490h-921l27 165h734l80 487h-683l28 166h684l84 507h-741l27 165h928z" />
    <glyph glyph-name="uni018F" unicode="&#x18f;" horiz-adv-x="1519" 
d="M654 -21q-177 0 -306.5 75.5t-190 212t-31.5 319.5l26 162h1176l-27 -165h-1049l59 10q-22 -134 20.5 -233t134.5 -153t217 -54q141 0 259 70.5t199.5 203t111.5 319.5q31 188 -10.5 320t-137.5 201.5t-231 69.5q-79 0 -150.5 -22.5t-132.5 -64t-108.5 -100t-81.5 -130.5
h-193q38 109 106.5 199t160.5 155t201 101t227 36q194 0 327 -94.5t189 -265.5t18 -404q-28 -176 -98 -317.5t-173 -242t-233 -154.5t-279 -54z" />
    <glyph glyph-name="Epsilon1" unicode="&#x190;" horiz-adv-x="1255" 
d="M531 -21q-146 0 -252.5 56t-157.5 153t-30 220q15 93 64 167.5t125 123.5t173 64l2 10q-111 35 -164 123t-32 211q18 109 89 201t181.5 147.5t249.5 55.5q133 0 233.5 -52t150.5 -144t34 -213h-181q10 78 -21.5 132.5t-93.5 83.5t-142 29q-84 0 -151 -30.5t-110.5 -87
t-56.5 -132.5q-12 -76 16 -132.5t90.5 -87.5t151.5 -31h121l-27 -164h-121q-110 0 -194.5 -34.5t-136 -95.5t-65.5 -142q-12 -79 19.5 -139.5t99.5 -93.5t163 -33q90 0 166 30t128 87t69 135h190q-24 -124 -105.5 -217.5t-204 -146.5t-270.5 -53z" />
    <glyph glyph-name="uni0191" unicode="&#x191;" horiz-adv-x="1193" 
d="M-195 -418l26 158q16 -2 36 -3t32 -1q81 0 114 25.5t41 75.5l48 291h188l-50 -299q-21 -124 -105.5 -189t-225.5 -65q-33 0 -60.5 2t-43.5 5zM81 0l247 1490h909l-28 -165h-721l-84 -507h655l-27 -165h-655l-108 -653h-188z" />
    <glyph glyph-name="florin" unicode="&#x192;" horiz-adv-x="782" 
d="M750 1082l-25 -152h-205l-165 -1000q-19 -114 -70 -191.5t-129 -117t-180 -39.5q-30 0 -56.5 2.5t-55.5 11.5l41 161q16 -6 49.5 -8.5t46.5 -1.5q59 -1 105.5 48t61.5 135l165 1000h-181l27 152h180l18 109q19 118 73.5 199.5t133 123.5t170.5 42q42 0 91 -7.5t76 -18.5
l-70 -160q-13 4 -33 7t-47 3q-85 0 -138 -46.5t-69 -142.5l-18 -109h204z" />
    <glyph glyph-name="uni0193" unicode="&#x193;" horiz-adv-x="1520" 
d="M1343 1054l22 375q4 89 49.5 144.5t118.5 82t160 26.5q33 0 59.5 -2t41.5 -5l-24 -149q-15 2 -35 3t-32 1q-80 0 -120.5 -25t-48.5 -76l-67 -409zM701 -21q-175 0 -302 73.5t-196.5 208t-69.5 319.5q0 176 55.5 342.5t158.5 299.5t249.5 211t327.5 78q120 0 219 -36
t171 -101t111.5 -155t41.5 -199h-193q-9 72 -36.5 130.5t-72.5 100t-107.5 64t-140.5 22.5q-139 0 -249.5 -64.5t-189.5 -172.5t-120.5 -241t-41.5 -271q0 -210 108 -322.5t284 -112.5q128 0 237.5 55.5t183 156t95.5 234.5l53 -16h-444l28 165h571l-28 -168
q-23 -137 -85.5 -247t-156.5 -189.5t-211.5 -122t-249.5 -42.5z" />
    <glyph glyph-name="Gamma1" unicode="&#x194;" horiz-adv-x="1286" 
d="M168 1490h205l307 -1194q33 -128 62.5 -221t45 -159t7.5 -113q-14 -81 -57.5 -135.5t-110 -82t-149.5 -27.5q-126 0 -190.5 62t-44.5 183q4 30 18 62.5t36.5 72.5t54 91.5t72.5 117t91 149.5l707 1194h206l-824 -1374q-52 -88 -88.5 -146.5t-57 -96.5t-24.5 -67
q-5 -36 16 -59.5t58 -23.5q40 0 66.5 26t30.5 58q4 29 -2.5 68t-22 96.5t-39.5 144.5z" />
    <glyph glyph-name="uni0195" unicode="&#x195;" horiz-adv-x="1933" 
d="M59 0l248 1490h178l-91 -550h16q53 90 141 141t219 51q114 0 192.5 -46t111 -139.5t8.5 -236.5l-25 -152h-180l22 138q21 131 -34.5 203.5t-175.5 72.5q-82 0 -153.5 -35t-121 -102t-65.5 -165l-110 -670h-180zM1157 -20q-107 0 -184.5 49.5t-110 151.5t-5.5 260l20 117
h180l-20 -117q-21 -126 2 -192t68 -89.5t89 -23.5q89 0 179.5 80t168 262.5t128.5 489.5l25 150h179l-25 -150q-58 -351 -164 -568.5t-242.5 -318.5t-287.5 -101z" />
    <glyph glyph-name="Iota" unicode="&#x196;" horiz-adv-x="543" 
d="M314 -6q-130 0 -182 64.5t-31 187.5l206 1244h178l-200 -1205q-12 -75 2 -104.5t72 -29.5q24 0 39.5 2t27.5 5l2 -151q-22 -5 -52.5 -9t-61.5 -4z" />
    <glyph glyph-name="uni0197" unicode="&#x197;" horiz-adv-x="678" 
d="M588 1490l-247 -1490h-188l247 1490h188zM44 701l22 136h638l-23 -136h-637z" />
    <glyph glyph-name="uni0198" unicode="&#x198;" horiz-adv-x="1372" 
d="M82 0l246 1490h188l-121 -735h18l691 645q67 63 140 89t141.5 16.5t124.5 -54.5l-98 -138q-40 29 -91.5 22t-117.5 -67l-495 -451l488 -817h-227l-399 686l-220 -209l-80 -477h-188z" />
    <glyph glyph-name="uni0199" unicode="&#x199;" horiz-adv-x="1107" 
d="M211 909l32 195l24 143q20 122 106 188t230 66q34 0 60.5 -2t42.5 -5l-25 -149q-16 2 -35.5 2.5t-32.5 0.5q-77 0 -118 -24t-50 -77l-24 -143l-32 -195h-178zM294 397l36 218h28l562 489h222l-603 -524h-19zM61 0l183 1104h177l-182 -1104h-178zM766 0l-339 541l148 125
l419 -666h-228z" />
    <glyph glyph-name="uni019A" unicode="&#x19a;" horiz-adv-x="480" 
d="M484 1490l-247 -1490h-178l247 1490h178zM-60 698l23 140h645l-23 -140h-645z" />
    <glyph glyph-name="lambdabar" unicode="&#x19b;" horiz-adv-x="1284" 
d="M829 1418l-30 -173l-530 -187l29 170zM649 786l-412 -786h-228l602 1103l142 -8zM497 1512q109 0 157.5 -43.5t65.5 -122.5l247 -1104q8 -33 18 -51t25.5 -25.5t37.5 -7.5h18.5h16.5l-23 -165q-12 -4 -35 -7.5t-46 -3.5q-60 0 -103 13.5t-72 57t-49 133.5l-177 791
l-64 276q-13 55 -37.5 74.5t-61.5 19.5q-10 0 -25 -0.5t-24 -3.5l26 156q14 5 48.5 9t56.5 4z" />
    <glyph glyph-name="mcapturn" unicode="&#x19c;" horiz-adv-x="1843" 
d="M1422 214l212 1276h204l-246 -1490h-196zM1486 504l94 2q-25 -151 -86 -270t-163.5 -187.5t-250.5 -68.5q-109 0 -181.5 44t-99.5 145t0 272l174 1049h204l-174 -1049q-18 -114 -2 -177.5t54.5 -88t86.5 -24.5q106 0 175.5 46t110.5 126t58 181zM828 504l94 2
q-24 -151 -86.5 -270t-166 -187.5t-251.5 -68.5q-108 0 -181 43.5t-99.5 144.5t1.5 273l174 1049h206l-174 -1049q-19 -117 -2.5 -180t55 -86.5t82.5 -23.5q106 0 177 46t112.5 126t58.5 181z" />
    <glyph glyph-name="Nhook" unicode="&#x19d;" horiz-adv-x="1523" 
d="M-195 -418l26 158q16 -2 36 -3t32 -1q81 0 114 25.5t41 75.5l48 291h188l-50 -299q-21 -124 -105.5 -189t-225.5 -65q-33 0 -60.5 2t-43.5 5zM81 0l247 1490h213l451 -957q14 -30 38 -85.5t52 -127t53 -153.5l-21 -8q6 79 15 155t19 141.5t17 109.5l153 925h188
l-247 -1490h-214l-402 851q-23 50 -49.5 111.5t-61.5 147.5t-85 209l26 11q-15 -120 -26.5 -213t-20.5 -158.5t-16 -105.5l-140 -853h-189z" />
    <glyph glyph-name="uni019E" unicode="&#x19e;" horiz-adv-x="1192" 
d="M347 658l-109 -658h-178l183 1104h171l-44 -267h-30q52 102 113 164.5t133.5 90.5t155.5 28q112 0 193 -46.5t117.5 -140t12.5 -235.5l-185 -1116h-179l183 1102q23 132 -27 203.5t-167 71.5q-78 0 -151 -34t-124.5 -100.5t-67.5 -166.5z" />
    <glyph glyph-name="Obar" unicode="&#x19f;" horiz-adv-x="1559" 
d="M1318 824l-6 -160h-1024l6 160h1024zM696 -21q-170 0 -296.5 73.5t-196.5 209t-70 320.5q0 177 56 343.5t161 298t251 209.5t327 78q170 0 296 -73.5t195.5 -208.5t69.5 -321q0 -178 -56 -344t-160.5 -298t-250.5 -209.5t-326 -77.5zM703 153q140 0 252 64t190.5 172
t119.5 241.5t41 273.5q0 141 -49.5 237.5t-136.5 146t-199 49.5q-140 0 -252 -64t-191 -172.5t-120.5 -241.5t-41.5 -273q0 -141 49.5 -237.5t137 -146t200.5 -49.5z" />
    <glyph glyph-name="Ohorn" unicode="&#x1a0;" horiz-adv-x="1554" 
d="M914 1382l21 129q48 0 79.5 -2t60 -5.5t68 -6.5t102 -5t161.5 -2q18 0 21 18l33 197h170l-31 -188q-14 -85 -63.5 -127.5t-135.5 -42.5q-39 0 -72 5t-80.5 12t-125.5 12.5t-208 5.5zM696 -21q-170 0 -296.5 73.5t-196.5 209t-70 320.5q0 177 56 343.5t161 298t251 209.5
t327 78q170 0 296 -73.5t195.5 -208.5t69.5 -321q0 -178 -56 -344t-160.5 -298t-250.5 -209.5t-326 -77.5zM703 153q140 0 252 64t190.5 172t119.5 241.5t41 273.5q0 141 -49.5 237.5t-136.5 146t-199 49.5q-140 0 -252 -64t-191 -172.5t-120.5 -241.5t-41.5 -273
q0 -141 49.5 -237.5t137 -146t200.5 -49.5z" />
    <glyph glyph-name="ohorn" unicode="&#x1a1;" horiz-adv-x="1200" 
d="M674 998l19 122q46 -1 87 -3.5t82.5 -5t87 -4t98.5 -1.5q18 0 21 18l33 195h160l-28 -165q-9 -57 -34 -94.5t-66 -55.5t-98 -18q-88 0 -181 6t-181 6zM518 -24q-134 0 -230.5 56.5t-148.5 158.5t-52 238q0 132 41.5 255.5t119.5 222t188.5 156t248.5 57.5q134 0 231 -56
t149 -158t52 -240q0 -134 -42 -257.5t-120.5 -221t-189 -154.5t-247.5 -57zM522 135q102 0 180 47.5t130.5 125t79 171t26.5 184.5q0 86 -27 153t-84 106t-147 39q-101 0 -178 -47t-130 -125t-80 -172t-27 -187q0 -127 61.5 -211t195.5 -84z" />
    <glyph glyph-name="OI" unicode="&#x1a2;" horiz-adv-x="1768" 
d="M1278 767l-94 -570q-56 -68 -140 -116.5t-187 -74.5t-214 -26q-197 0 -322.5 86t-173 242.5t-12.5 370.5l20 122l214 4l-20 -126q-26 -167 1.5 -285.5t110.5 -180.5t223 -62q89 -1 168.5 25t136.5 77l85 514h204zM1366 1293l-92 -558h-205l83 498q-34 47 -105.5 75.5
t-164.5 28.5q-105 0 -189.5 -33.5t-149.5 -99.5t-108.5 -165t-64.5 -228l-19 -115h-212l18 115q35 221 137.5 377t261 239t358.5 83q106 0 197 -27t157 -76t98 -114zM1747 1490l-316 -1908h-206l283 1701l-254 -88l30 177l305 118h158z" />
    <glyph glyph-name="uni01A3" unicode="&#x1a3;" horiz-adv-x="1289" 
d="M481 145q46 0 82 12t69 32l60 360h207l-67 -409q-47 -46 -105.5 -82t-129 -57t-153.5 -21q-156 0 -249 74t-126.5 197.5t-11.5 269.5l6 40q24 160 98.5 289.5t196.5 205.5t286 76q78 0 140 -19.5t109 -55.5t77 -84l-76 -460l-208 2l69 406q-26 22 -62 34t-81 12
q-105 0 -175 -56t-110.5 -148t-57.5 -202l-6 -40q-18 -120 2.5 -204t75 -128t140.5 -44zM1319 1118l-252 -1536h-205l210 1271l-241 -126l43 256l284 135h161z" />
    <glyph glyph-name="uni01A4" unicode="&#x1a4;" horiz-adv-x="1576" 
d="M147 1100l16 98q23 144 109.5 218t241.5 74h94l-28 -165h-93q-67 0 -102.5 -30.5t-46.5 -98.5l-16 -96h-175zM361 0l247 1490h514q169 0 272 -61.5t142.5 -167.5t17.5 -240q-22 -135 -96 -241.5t-197.5 -168.5t-293.5 -62h-378l28 166h370q118 0 196.5 40t124 110
t59.5 157q14 88 -8.5 156t-89 107.5t-182.5 39.5h-319l-219 -1325h-188z" />
    <glyph glyph-name="uni01A5" unicode="&#x1a5;" horiz-adv-x="1233" 
d="M210 909l32 195l24 143q20 122 106 188t230 66q34 0 60.5 -2t42.5 -5l-25 -149q-16 2 -35.5 2.5t-32.5 0.5q-77 0 -118 -24t-50 -77l-24 -143l-32 -195h-178zM-10 -418l253 1522h172l-29 -173h7q28 40 74 84t115 74.5t166 30.5q122 0 211.5 -54t138 -153t48.5 -236
q0 -129 -38.5 -254t-111 -225.5t-177 -160.5t-237.5 -60q-100 0 -160.5 34t-93 80.5t-48.5 84.5h-14l-98 -594h-178zM559 136q99 0 175 48t128 127t78.5 173.5t26.5 187.5q0 131 -62 210t-187 79q-100 0 -176 -47t-127 -125t-77 -172.5t-26 -189.5q0 -133 62.5 -212
t184.5 -79z" />
    <glyph glyph-name="YR" unicode="&#x1a6;" horiz-adv-x="1470" 
d="M241 1390l34 202h216l-34 -202h-216zM259 1490h491q169 0 275 -51t148.5 -150t17.5 -240q-18 -101 -72 -182.5t-138.5 -139.5t-193.5 -87l-61 -22h-445l27 170h324q103 0 176 35.5t116 95t54 131.5q19 119 -38 193t-221 74h-275l-217 -1317h-216zM986 -359l-373 1022h225
l379 -1012l-2 -10h-229z" />
    <glyph glyph-name="uni01A7" unicode="&#x1a7;" horiz-adv-x="1302" 
d="M554 -26q-171 0 -283 57.5t-160 155.5t-28 220q16 98 66 168t120.5 116.5t150 77t154.5 49.5l160 41q71 19 142 47t122.5 75t63.5 121q11 72 -18 126.5t-93.5 85t-158.5 30.5q-92 0 -172.5 -29.5t-136.5 -84t-76 -130.5h-184q24 119 104 212t201.5 146t269.5 53
t255.5 -52.5t159 -147.5t30.5 -221q-25 -152 -143.5 -246t-311.5 -144l-186 -49q-89 -23 -161 -53t-117.5 -75.5t-56.5 -115.5q-19 -121 64.5 -192.5t235.5 -71.5q95 0 181 29.5t148 89t82 148.5h192q-28 -131 -111 -229t-211.5 -152.5t-293.5 -54.5z" />
    <glyph glyph-name="uni01A8" unicode="&#x1a8;" horiz-adv-x="1056" 
d="M163 834q35 86 96.5 150.5t149.5 100t201 35.5q118 0 203.5 -41t126 -113.5t25.5 -167.5q-19 -112 -104 -189.5t-247 -114.5l-189 -43q-82 -19 -130 -56.5t-58 -95.5q-12 -71 49 -118.5t175 -47.5q103 0 175.5 43.5t107.5 134.5l166 -29q-33 -100 -101.5 -168
t-164.5 -102.5t-211 -34.5q-127 0 -217.5 42t-133 117.5t-26.5 173.5q19 112 103 187t243 112l176 40q94 22 146 58t63 98q13 72 -45.5 117t-156.5 45q-109 0 -172 -50.5t-91 -113.5z" />
    <glyph glyph-name="uni01A9" unicode="&#x1a9;" horiz-adv-x="1278" 
d="M16 0l26 152l519 462q36 32 70 60.5t65 53.5t58 46.5t48 38.5l-13 -78q-18 19 -47 49.5t-63 67.5t-66 77l-338 422l22 139h1098l-28 -165h-600q-86 0 -156.5 1t-132.5 5l-8 30l53 -53t69 -73t80 -95l271 -342l-10 -66l-387 -348q-63 -57 -120 -104t-105.5 -85t-89.5 -69
l18 33q72 4 150.5 5t175.5 1h610l-27 -165h-1142z" />
    <glyph glyph-name="eshlooprev" unicode="&#x1aa;" horiz-adv-x="1101" 
d="M685 1125l221 89l-213 -1282q-16 -100 10 -141t93 -41q14 0 33 3t34 7l-26 -163q-25 -8 -59.5 -12t-63.5 -4q-142 0 -200 89t-29 262zM216 1213q15 95 74 173.5t145.5 125t182.5 46.5t166 -46.5t103.5 -125t17.5 -173.5q-15 -92 -74.5 -170.5t-146 -125.5t-181.5 -48
q-94 1 -164.5 47t-104 124t-18.5 173zM536 1058q43 0 79.5 17.5t62.5 52.5t35 89q14 79 -23.5 119.5t-101.5 40.5q-43 0 -81 -17.5t-64 -53.5t-35 -90q-13 -82 26.5 -120t101.5 -38z" />
    <glyph glyph-name="uni01AB" unicode="&#x1ab;" horiz-adv-x="664" 
d="M67 -419l25 150q15 -2 35 -2.5t34 -0.5q104 0 149 39.5t43 121.5l4 121h173l-2 -120q2 -89 -38.5 -160.5t-121 -113.5t-198.5 -42q-34 0 -60.5 2t-42.5 5zM687 1104l-25 -152h-576l25 152h576zM329 1375h177l-180 -1093q-13 -73 12 -104.5t93 -31.5q19 0 46 3t49 6
l4 -150q-27 -7 -62 -11.5t-70 -4.5q-144 0 -209 73t-44 206z" />
    <glyph glyph-name="uni01AC" unicode="&#x1ac;" horiz-adv-x="1306" 
d="M150 1100l16 98q23 144 109.5 218t241.5 74h94l-28 -165h-93q-67 0 -102.5 -30.5t-46.5 -98.5l-16 -96h-175zM583 1325l28 165h762l-27 -165h-468l-219 -1325h-188l220 1325h-108z" />
    <glyph glyph-name="uni01AD" unicode="&#x1ad;" horiz-adv-x="719" 
d="M427 -11q-133 0 -203 77t-49 202l127 767h170l-120 -726q-13 -82 14.5 -120t103.5 -38q18 0 37.5 1.5t42.5 4.5l3 -152q-25 -7 -59 -11.5t-67 -4.5zM125 958l24 146h569l-24 -146h-569zM282 909l31 195l24 143q20 122 106.5 188t229.5 66q34 0 60.5 -2t43.5 -5l-25 -149
q-16 2 -35.5 2.5t-33.5 0.5q-77 0 -117.5 -24t-49.5 -77l-24 -143l-33 -195h-177z" />
    <glyph glyph-name="Trthook" unicode="&#x1ae;" horiz-adv-x="1308" 
d="M648 0l-20 -120q-14 -87 34 -113t118 -25h55l-27 -160h-98q-61 0 -114 18.5t-90.5 56t-53.5 93t-4 128.5l20 122h180zM216 1325l28 165h1132l-28 -165h-471l-219 -1325h-188l219 1325h-473z" />
    <glyph glyph-name="Uhorn" unicode="&#x1af;" horiz-adv-x="1501" 
d="M1281 1347l24 143h178q18 0 21 18l32 197h170l-30 -188q-14 -85 -63.5 -127.5t-135.5 -42.5h-196zM669 -24q-179 0 -301 70.5t-175.5 192.5t-28.5 275l162 976h188l-161 -974q-18 -109 15 -191.5t111 -128.5t197 -46q123 0 222 49.5t162.5 134.5t81.5 194l159 962h188
l-164 -989q-25 -154 -115 -272.5t-229 -185.5t-312 -67z" />
    <glyph glyph-name="uhorn" unicode="&#x1b0;" horiz-adv-x="1258" 
d="M1010 984l20 120h82q34 0 40 34l35 212h160l-33 -196q-14 -85 -63 -127.5t-135 -42.5h-106zM439 -15q-111 0 -189 46t-111.5 140t-10.5 235l115 698h178l-113 -683q-21 -130 33.5 -203t172.5 -73q78 0 147.5 34t118.5 101t65 166l108 658h179l-183 -1104h-172l44 268h29
q-76 -154 -181.5 -218.5t-229.5 -64.5z" />
    <glyph glyph-name="Upsilon2" unicode="&#x1b1;" horiz-adv-x="1551" 
d="M140 703q34 207 141.5 361t268.5 249l4 12h-311l27 165h534l-37 -211q-101 -41 -195 -124.5t-160.5 -199.5t-88.5 -254q-25 -154 16 -277.5t137 -196.5t234 -73q139 0 259 73t202 198t107 280q23 140 -6.5 255t-95.5 197.5t-155 121.5l37 211h533l-26 -165h-311l-3 -12
q130 -91 187 -245.5t22 -366.5q-26 -158 -96 -290t-174.5 -228.5t-234 -149.5t-274.5 -53t-257 53t-184.5 149.5t-99 229t-0.5 291.5z" />
    <glyph glyph-name="Vcursive" unicode="&#x1b2;" horiz-adv-x="1282" 
d="M545 -20q-149 0 -261 54t-164 164t-25 276l168 1016h214l-170 -1016q-28 -170 48 -247t217 -76q144 -1 245 76.5t129 246.5l113 682q16 101 -19 139t-112 38q-16 0 -35.5 -1.5t-35.5 -4.5l29 165q24 7 56.5 12.5t67.5 5.5q136 0 215 -91.5t51 -262.5l-114 -682
q-27 -165 -119.5 -275t-223.5 -164.5t-274 -54.5z" />
    <glyph glyph-name="uni01B3" unicode="&#x1b3;" horiz-adv-x="1443" 
d="M699 763l6 34h35l-5 -34h-36zM204 1490h214l305 -707l423 557q63 83 134.5 124t143.5 44t137 -30l-72 -151q-49 22 -99.5 9.5t-100.5 -77.5l-503 -647l-101 -612h-188l102 612z" />
    <glyph glyph-name="uni01B4" unicode="&#x1b4;" horiz-adv-x="1384" 
d="M976 1104l79 152q30 57 59.5 102.5t64.5 77.5t83.5 48.5t115.5 16.5q38 0 68.5 -2t51.5 -5l-15 -143q-15 1 -32.5 1.5t-26.5 0.5q-55 0 -88 -13.5t-54 -38.5t-40 -60l-78 -137h-188zM-20 -408l62 155l36 -3q50 -10 92.5 -2t80.5 43t74 107l55 105l-240 1107h186l128 -651
q19 -97 30 -193.5t24 -187.5h-62q44 91 86 187.5t94 193.5l344 651h201l-702 -1277q-45 -84 -101.5 -140t-123 -83.5t-142.5 -27.5q-40 0 -72.5 5.5t-49.5 10.5z" />
    <glyph glyph-name="Zbar" unicode="&#x1b5;" horiz-adv-x="1274" 
d="M32 0l23 133l995 1192h-807l28 165h1035l-23 -135l-996 -1190h807l-28 -165h-1034zM250 667l25 156h812l-25 -156h-812z" />
    <glyph glyph-name="zbar" unicode="&#x1b6;" horiz-adv-x="1097" 
d="M27 0l23 133l740 798l2 10h-593l27 163h827l-24 -141l-722 -790l-2 -9h608l-26 -164h-860zM216 490l22 136h638l-23 -136h-637z" />
    <glyph glyph-name="uni01B7" unicode="&#x1b7;" horiz-adv-x="1383" 
d="M9 66h190q-10 -100 33 -176.5t125.5 -119t187.5 -42.5q125 0 226 60t167.5 161.5t87.5 227.5q24 144 -21 250t-146 164t-245 58h-113l27 154l575 506v12h-804l29 169h1063l-23 -137l-615 -545l-2 -14q166 -7 279.5 -88t162.5 -216.5t20 -310.5q-23 -135 -85 -248
t-155 -196.5t-210 -129t-251 -45.5q-159 0 -279 64t-180.5 178.5t-43.5 263.5z" />
    <glyph glyph-name="uni01B8" unicode="&#x1b8;" horiz-adv-x="1383" 
d="M1214 66q-33 -149 -132.5 -263.5t-240.5 -178.5t-302 -64q-134 0 -235.5 46t-166.5 129.5t-88.5 197.5t-1.5 249q29 175 123 310t234 215t307 87l2 14l-435 545l23 137h1065l-30 -169h-806v-12l408 -506l-25 -154h-112q-143 0 -263.5 -57.5t-200.5 -163t-104 -251.5
q-21 -127 12 -228.5t114 -161t205 -59.5q107 0 203 43t164 119.5t91 175.5h192z" />
    <glyph glyph-name="uni01B9" unicode="&#x1b9;" horiz-adv-x="1260" 
d="M470 -407q-151 0 -257.5 57t-156 157t-28.5 227q21 124 97 222t190 156.5t246 64.5l2 10l-323 480l22 137h890l-28 -165h-636l-2 -10l299 -444l-26 -151h-120q-131 0 -220.5 -40t-140 -107.5t-63.5 -150.5q-15 -90 17 -151.5t101 -94t163 -32.5q90 0 165.5 29.5
t127.5 86.5t71 137h191q-28 -129 -112.5 -222.5t-206.5 -144.5t-262 -51z" />
    <glyph glyph-name="uni01BA" unicode="&#x1ba;" horiz-adv-x="1095" 
d="M231 1104h872l-21 -127l-648 -488h-108l22 129l428 322h-572zM175 -131q-11 -70 40 -110t148 -40q61 0 121 17.5t104.5 61t61.5 117.5h203q-15 -90 -80 -172t-173.5 -134.5t-254.5 -52.5q-128 0 -216.5 41t-128.5 114.5t-24 169.5q12 69 48.5 122t96.5 92.5t139 68
t177 48.5q83 17 135.5 35t80 46.5t34.5 74.5q10 57 -32.5 89t-150.5 32h-80l40 163h67q125 0 211 -36t126 -100.5t25 -151.5q-12 -70 -47.5 -121.5t-94 -88t-136 -63t-172.5 -46.5q-101 -21 -157 -49t-80.5 -60.5t-30.5 -66.5z" />
    <glyph glyph-name="uni01BB" unicode="&#x1bb;" horiz-adv-x="1226" 
d="M46 0l23 140l589 525q102 90 169.5 158.5t105.5 130.5t49 132q13 82 -11 140.5t-80 89.5t-138 31q-87 0 -161 -36.5t-124 -101.5t-65 -155h-178q23 136 99 238.5t189 160.5t248 58q136 0 232.5 -56.5t141.5 -152.5t24 -217q-10 -63 -37 -123t-75.5 -124t-124 -140
t-184.5 -172l-401 -351l-2 -10h693l-26 -165h-956zM282 550l25 156h812l-25 -156h-812z" />
    <glyph glyph-name="uni01BC" unicode="&#x1bc;" horiz-adv-x="1250" 
d="M533 1490l-28 -165h-289l28 165h289zM549 -20q-133 0 -231.5 53.5t-148 145.5t-34.5 209h183q-7 -104 59.5 -173.5t186.5 -69.5q90 0 170.5 42.5t136 118t70.5 173.5q16 98 -11.5 173.5t-90.5 118.5t-155 43q-79 0 -163 -28t-134 -76l-174 17l206 763h801l-28 -165h-640
l-122 -446h7q59 46 135.5 73.5t159.5 27.5q136 0 233 -65t140.5 -178t18.5 -259q-24 -144 -105.5 -257t-203 -177t-266.5 -64z" />
    <glyph glyph-name="uni01BD" unicode="&#x1bd;" horiz-adv-x="1098" 
d="M365 471l-174 14l169 597h683l-29 -176h-510l-66 -233q35 23 98 41t121 20q180 5 266 -93t57 -281q-17 -108 -76.5 -193.5t-163 -135t-254.5 -49.5q-72 0 -142 20t-126 60t-83.5 101.5t-13.5 143.5l200 16q-13 -79 40.5 -126t150.5 -46q117 -1 183 58t81 153
q16 95 -30.5 152.5t-155.5 57.5q-84 0 -137 -30.5t-88 -70.5zM476 1082l-29 -176h-303l29 176h303z" />
    <glyph glyph-name="glottalstopbarinv" unicode="&#x1be;" horiz-adv-x="1096" 
d="M737 292q7 48 -14.5 80.5t-58.5 58.5t-78.5 54.5t-76.5 66.5t-52 94t-3 138l93 559h207l-92 -553q-10 -62 9.5 -102t56.5 -67.5t79.5 -52.5t78.5 -57t54.5 -80t5.5 -123q-15 -96 -80.5 -170t-168 -116t-230.5 -42q-146 0 -238 52t-130 134.5t-22 173.5h207
q-10 -73 20 -116.5t81.5 -62t108.5 -18.5q70 0 122 19.5t83.5 53t37.5 76.5zM908 1082l-27 -152h-598l29 152h596z" />
    <glyph glyph-name="uni01BF" unicode="&#x1bf;" horiz-adv-x="1282" 
d="M435 910l-196 -1326h-206l226 1534h190zM350 680l-110 -79q42 168 113 286.5t174.5 181.5t240.5 63q136 0 220 -68.5t115 -193.5t7 -292l-8 -48q-30 -209 -145.5 -341.5t-305.5 -217.5t-444 -152l25 165q173 39 314.5 105t233.5 173t115 268l7 48q15 103 -1 190.5
t-70 140t-152 52.5q-87 0 -151 -39t-108 -103t-70 -139z" />
    <glyph glyph-name="pipe" unicode="&#x1c0;" horiz-adv-x="531" 
d="M500 1488l-248 -1488h-161l248 1488h161z" />
    <glyph glyph-name="pipedbl" unicode="&#x1c1;" horiz-adv-x="720" 
d="M460 1488l-248 -1488h-161l248 1488h161zM730 1488l-248 -1488h-161l248 1488h161z" />
    <glyph glyph-name="pipedblbar" unicode="&#x1c2;" horiz-adv-x="480" 
d="M471 1488l-248 -1488h-161l248 1488h161zM-18 951l23 140h645l-23 -140h-645zM-100 457l23 140h645l-23 -140h-645z" />
    <glyph glyph-name="exclam1" unicode="&#x1c3;" horiz-adv-x="558" 
d="M174 461l159 1029h200l-184 -1029h-175zM196 -14q-58 0 -93.5 42.5t-26.5 102.5q9 52 50.5 86t90.5 34q60 0 94.5 -42.5t25.5 -99.5q-7 -51 -48 -87t-93 -36z" />
    <glyph glyph-name="Dzcaron_" unicode="&#x1c5;" horiz-adv-x="2560" 
d="M576 0h-390l26 166h348q183 0 315 70.5t212.5 201t110.5 310.5t-5.5 309t-138 198t-274.5 69h-383l28 166h366q218 0 363 -89.5t205.5 -256t21.5 -398.5q-39 -234 -143 -401t-270 -256t-392 -89zM516 1490l-247 -1490h-188l247 1490h188zM1490 0l23 133l740 798l2 10
h-593l27 163h827l-24 -141l-722 -790l-2 -9h608l-26 -164h-860zM2022 1543l115 -175l171 175h178l-2 -7l-280 -269h-170l-189 269l2 7h175z" />
    <glyph glyph-name="uni01C6" unicode="&#x1c6;" horiz-adv-x="2155" 
d="M482 -23q-182 0 -288.5 120t-106.5 324q0 131 38 255t111 224.5t178 160t237 59.5q102 0 163 -33t93.5 -78.5t48.5 -83.5h10l93 565h178l-246 -1490h-173l29 169h-15q-30 -41 -74.5 -85.5t-112 -75.5t-163.5 -31zM514 136q100 0 175.5 47.5t127 127t78 175t26.5 189.5
q0 132 -62 209t-187 77q-99 0 -174.5 -47t-127 -124.5t-78 -171t-26.5 -189.5q0 -131 62 -212t186 -81zM1085 0l23 133l740 798l2 10h-593l27 163h827l-24 -141l-722 -790l-2 -9h608l-26 -164h-860zM1618 1543l115 -175l171 175h178l-2 -7l-280 -269h-170l-189 269l2 7h175z
" />
    <glyph glyph-name="uni01C7" unicode="&#x1c7;" horiz-adv-x="2297" 
d="M81 0l247 1490h188l-219 -1324h696l-28 -166h-884zM1598 -20q-174 0 -281 91.5t-107 261.5q0 15 1.5 33t6 51t12.5 89h188q-8 -52 -12.5 -81t-5.5 -43.5t-1 -25.5q0 -102 57.5 -156.5t157.5 -54.5q113 0 196.5 71t106.5 210l177 1064h188l-177 -1064
q-35 -213 -172 -329.5t-335 -116.5z" />
    <glyph glyph-name="uni01C8" unicode="&#x1c8;" horiz-adv-x="1624" 
d="M81 0l247 1490h188l-219 -1324h696l-28 -166h-884zM1386 1104h178l-199 -1199q-16 -99 -63.5 -171.5t-124.5 -112t-181 -39.5h-45l27 162h38q75 0 117 42t55 125zM1507 1292q-50 0 -80.5 35t-22.5 84t50 83.5t93 34.5t81.5 -34.5t22.5 -83.5t-50.5 -84t-93.5 -35z" />
    <glyph glyph-name="uni01C9" unicode="&#x1c9;" horiz-adv-x="959" 
d="M484 1490l-247 -1490h-178l247 1490h178zM722 1104h178l-199 -1199q-16 -99 -63.5 -171.5t-124.5 -112t-181 -39.5h-45l27 162h38q75 0 117 42t55 125zM842 1292q-50 0 -80.5 35t-22.5 84t50 83.5t93 34.5t81.5 -34.5t22.5 -83.5t-50.5 -84t-93.5 -35z" />
    <glyph glyph-name="uni01CA" unicode="&#x1ca;" horiz-adv-x="2676" 
d="M81 0l247 1490h213l451 -957q14 -30 38 -85.5t52 -127t53 -153.5l-21 -8q6 79 15 155t19 141.5t17 109.5l153 925h188l-247 -1490h-214l-402 851q-23 50 -49.5 111.5t-61.5 147.5t-85 209l26 11q-15 -120 -26.5 -213t-20.5 -158.5t-16 -105.5l-140 -853h-189zM1977 -20
q-174 0 -281 91.5t-107 261.5q0 15 1.5 33t6 51t12.5 89h188q-8 -52 -12.5 -81t-5.5 -43.5t-1 -25.5q0 -102 57.5 -156.5t157.5 -54.5q113 0 196.5 71t106.5 210l177 1064h188l-177 -1064q-35 -213 -172 -329.5t-335 -116.5z" />
    <glyph glyph-name="uni01CB" unicode="&#x1cb;" horiz-adv-x="2003" 
d="M81 0l247 1490h213l451 -957q14 -30 38 -85.5t52 -127t53 -153.5l-21 -8q6 79 15 155t19 141.5t17 109.5l153 925h188l-247 -1490h-214l-402 851q-23 50 -49.5 111.5t-61.5 147.5t-85 209l26 11q-15 -120 -26.5 -213t-20.5 -158.5t-16 -105.5l-140 -853h-189zM1765 1104
h178l-199 -1199q-16 -99 -63.5 -171.5t-124.5 -112t-181 -39.5h-45l27 162h38q75 0 117 42t55 125zM1886 1292q-50 0 -80.5 35t-22.5 84t50 83.5t93 34.5t81.5 -34.5t22.5 -83.5t-50.5 -84t-93.5 -35z" />
    <glyph glyph-name="uni01CC" unicode="&#x1cc;" horiz-adv-x="1670" 
d="M346 652l-109 -652h-178l184 1104h171l-44 -267l-31 5q76 150 177.5 214t225.5 64q114 0 195 -48t115.5 -143t10.5 -237l-115 -692h-178l115 690q22 132 -31 200.5t-167 68.5q-81 0 -153 -35.5t-122 -104t-66 -167.5zM1433 1104h178l-199 -1199q-16 -99 -63.5 -171.5
t-124.5 -112t-181 -39.5h-45l27 162h38q75 0 117 42t55 125zM1553 1292q-50 0 -80.5 35t-22.5 84t50 83.5t93 34.5t81.5 -34.5t22.5 -83.5t-50.5 -84t-93.5 -35z" />
    <glyph glyph-name="uni01CD" unicode="&#x1cd;" horiz-adv-x="1396" 
d="M-47 0l790 1490h217l300 -1490h-190l-168 887q-14 75 -34 200t-44 314h39q-83 -182 -142.5 -306t-102.5 -208l-458 -887h-207zM297 416l27 165h757l-27 -165h-757zM782 1929l115 -175l171 175h178l-2 -7l-280 -269h-170l-189 269l2 7h175z" />
    <glyph glyph-name="uni01CE" unicode="&#x1ce;" horiz-adv-x="1235" 
d="M472 -23q-139 0 -233.5 71t-132.5 200t-9 303t110 301.5t199 197.5t257 70q99 0 157.5 -32t89.5 -76t47 -82h12l28 174h178l-183 -1104h-173l28 170h-17q-30 -39 -76.5 -84t-115.5 -77t-166 -32zM527 136q101 0 179.5 53t131 146.5t72.5 216.5q21 123 -0.5 215t-83.5 143
t-163 51q-103 0 -183 -53.5t-131.5 -145.5t-71.5 -210q-19 -120 2 -214t83.5 -148t164.5 -54zM633 1543l115 -175l171 175h178l-2 -7l-280 -269h-170l-189 269l2 7h175z" />
    <glyph glyph-name="uni01CF" unicode="&#x1cf;" horiz-adv-x="534" 
d="M516 1490l-247 -1490h-188l247 1490h188zM351 1929l115 -175l171 175h178l-2 -7l-280 -269h-170l-189 269l2 7h175z" />
    <glyph glyph-name="uni01D0" unicode="&#x1d0;" horiz-adv-x="481" 
d="M60 0l183 1104h178l-183 -1104h-178zM261 1543l115 -175l171 175h178l-2 -7l-280 -269h-170l-189 269l2 7h175z" />
    <glyph glyph-name="uni01D1" unicode="&#x1d1;" horiz-adv-x="1559" 
d="M696 -21q-170 0 -296.5 73.5t-196.5 209t-70 320.5q0 177 56 343.5t161 298t251 209.5t327 78q170 0 296 -73.5t195.5 -208.5t69.5 -321q0 -178 -56 -344t-160.5 -298t-250.5 -209.5t-326 -77.5zM703 153q140 0 252 64t190.5 172t119.5 241.5t41 273.5q0 141 -49.5 237.5
t-136.5 146t-199 49.5q-140 0 -252 -64t-191 -172.5t-120.5 -241.5t-41.5 -273q0 -141 49.5 -237.5t137 -146t200.5 -49.5zM864 1929l115 -175l171 175h178l-2 -7l-280 -269h-170l-189 269l2 7h175z" />
    <glyph glyph-name="uni01D2" unicode="&#x1d2;" horiz-adv-x="1205" 
d="M518 -24q-134 0 -230.5 56.5t-148.5 158.5t-52 238q0 132 41.5 255.5t119.5 222t188.5 156t248.5 57.5q134 0 231 -56t149 -158t52 -240q0 -134 -42 -257.5t-120.5 -221t-189 -154.5t-247.5 -57zM522 135q102 0 180 47.5t130.5 125t79 171t26.5 184.5q0 86 -27 153
t-84 106t-147 39q-101 0 -178 -47t-130 -125t-80 -172t-27 -187q0 -127 61.5 -211t195.5 -84zM622 1543l115 -175l171 175h178l-2 -7l-280 -269h-170l-189 269l2 7h175z" />
    <glyph glyph-name="uni01D3" unicode="&#x1d3;" horiz-adv-x="1505" 
d="M669 -24q-179 0 -301 70.5t-175.5 192.5t-28.5 275l162 976h188l-161 -974q-18 -109 15 -191.5t111 -128.5t197 -46q123 0 222 49.5t162.5 134.5t81.5 194l159 962h188l-164 -989q-25 -154 -115 -272.5t-229 -185.5t-312 -67zM836 1929l115 -175l171 175h178l-2 -7
l-280 -269h-170l-189 269l2 7h175z" />
    <glyph glyph-name="uni01D4" unicode="&#x1d4;" horiz-adv-x="1192" 
d="M439 -15q-111 0 -189 46t-111.5 140t-10.5 235l115 698h178l-113 -683q-21 -130 33.5 -203t172.5 -73q78 0 147.5 34t118.5 101t65 166l108 658h179l-183 -1104h-172l44 268h29q-76 -154 -181.5 -218.5t-229.5 -64.5zM615 1543l115 -175l171 175h178l-2 -7l-280 -269
h-170l-189 269l2 7h175z" />
    <glyph glyph-name="uni01D5" unicode="&#x1d5;" horiz-adv-x="1505" 
d="M669 -24q-179 0 -301 70.5t-175.5 192.5t-28.5 275l162 976h188l-161 -974q-18 -109 15 -191.5t111 -128.5t197 -46q123 0 222 49.5t162.5 134.5t81.5 194l159 962h188l-164 -989q-25 -154 -115 -272.5t-229 -185.5t-312 -67zM1146 1645q-48 0 -77 35t-21 84t48.5 83
t89.5 34t77.5 -34t20.5 -83t-48.5 -84t-89.5 -35zM726 1645q-49 0 -77.5 35t-20.5 84t48.5 83t89.5 34t77 -34t20 -83q-7 -49 -47.5 -84t-89.5 -35zM1319 2146l-24 -127h-554l24 127h554z" />
    <glyph glyph-name="uni01D6" unicode="&#x1d6;" horiz-adv-x="1192" 
d="M439 -15q-111 0 -189 46t-111.5 140t-10.5 235l115 698h178l-113 -683q-21 -130 33.5 -203t172.5 -73q78 0 147.5 34t118.5 101t65 166l108 658h179l-183 -1104h-172l44 268h29q-76 -154 -181.5 -218.5t-229.5 -64.5zM925 1259q-48 0 -77 35t-21 84t48.5 83t89.5 34
t77.5 -34t20.5 -83t-48.5 -84t-89.5 -35zM505 1259q-49 0 -77.5 35t-20.5 84t48.5 83t89.5 34t77 -34t20 -83q-7 -49 -47.5 -84t-89.5 -35zM1098 1760l-24 -127h-554l24 127h554z" />
    <glyph glyph-name="uni01D7" unicode="&#x1d7;" horiz-adv-x="1505" 
d="M669 -24q-179 0 -301 70.5t-175.5 192.5t-28.5 275l162 976h188l-161 -974q-18 -109 15 -191.5t111 -128.5t197 -46q123 0 222 49.5t162.5 134.5t81.5 194l159 962h188l-164 -989q-25 -154 -115 -272.5t-229 -185.5t-312 -67zM1146 1645q-48 0 -77 35t-21 84t48.5 83
t89.5 34t77.5 -34t20.5 -83t-48.5 -84t-89.5 -35zM726 1645q-49 0 -77.5 35t-20.5 84t48.5 83t89.5 34t77 -34t20 -83q-7 -49 -47.5 -84t-89.5 -35zM916 1980l186 275h199l-239 -275h-146z" />
    <glyph glyph-name="uni01D8" unicode="&#x1d8;" horiz-adv-x="1192" 
d="M439 -15q-111 0 -189 46t-111.5 140t-10.5 235l115 698h178l-113 -683q-21 -130 33.5 -203t172.5 -73q78 0 147.5 34t118.5 101t65 166l108 658h179l-183 -1104h-172l44 268h29q-76 -154 -181.5 -218.5t-229.5 -64.5zM925 1259q-48 0 -77 35t-21 84t48.5 83t89.5 34
t77.5 -34t20.5 -83t-48.5 -84t-89.5 -35zM505 1259q-49 0 -77.5 35t-20.5 84t48.5 83t89.5 34t77 -34t20 -83q-7 -49 -47.5 -84t-89.5 -35zM695 1594l186 275h199l-239 -275h-146z" />
    <glyph glyph-name="uni01D9" unicode="&#x1d9;" horiz-adv-x="1505" 
d="M669 -24q-179 0 -301 70.5t-175.5 192.5t-28.5 275l162 976h188l-161 -974q-18 -109 15 -191.5t111 -128.5t197 -46q123 0 222 49.5t162.5 134.5t81.5 194l159 962h188l-164 -989q-25 -154 -115 -272.5t-229 -185.5t-312 -67zM1146 1645q-48 0 -77 35t-21 84t48.5 83
t89.5 34t77.5 -34t20.5 -83t-48.5 -84t-89.5 -35zM726 1645q-49 0 -77.5 35t-20.5 84t48.5 83t89.5 34t77 -34t20 -83q-7 -49 -47.5 -84t-89.5 -35zM896 2250l115 -175l171 175h177l-1 -7l-281 -269h-170l-188 269l1 7h176z" />
    <glyph glyph-name="uni01DA" unicode="&#x1da;" horiz-adv-x="1192" 
d="M439 -15q-111 0 -189 46t-111.5 140t-10.5 235l115 698h178l-113 -683q-21 -130 33.5 -203t172.5 -73q78 0 147.5 34t118.5 101t65 166l108 658h179l-183 -1104h-172l44 268h29q-76 -154 -181.5 -218.5t-229.5 -64.5zM925 1259q-48 0 -77 35t-21 84t48.5 83t89.5 34
t77.5 -34t20.5 -83t-48.5 -84t-89.5 -35zM505 1259q-49 0 -77.5 35t-20.5 84t48.5 83t89.5 34t77 -34t20 -83q-7 -49 -47.5 -84t-89.5 -35zM675 1864l115 -175l171 175h177l-1 -7l-281 -269h-170l-188 269l1 7h176z" />
    <glyph glyph-name="uni01DB" unicode="&#x1db;" horiz-adv-x="1505" 
d="M669 -24q-179 0 -301 70.5t-175.5 192.5t-28.5 275l162 976h188l-161 -974q-18 -109 15 -191.5t111 -128.5t197 -46q123 0 222 49.5t162.5 134.5t81.5 194l159 962h188l-164 -989q-25 -154 -115 -272.5t-229 -185.5t-312 -67zM1146 1645q-48 0 -77 35t-21 84t48.5 83
t89.5 34t77.5 -34t20.5 -83t-48.5 -84t-89.5 -35zM726 1645q-49 0 -77.5 35t-20.5 84t48.5 83t89.5 34t77 -34t20 -83q-7 -49 -47.5 -84t-89.5 -35zM910 1980l-147 275h200l93 -275h-146z" />
    <glyph glyph-name="uni01DC" unicode="&#x1dc;" horiz-adv-x="1192" 
d="M439 -15q-111 0 -189 46t-111.5 140t-10.5 235l115 698h178l-113 -683q-21 -130 33.5 -203t172.5 -73q78 0 147.5 34t118.5 101t65 166l108 658h179l-183 -1104h-172l44 268h29q-76 -154 -181.5 -218.5t-229.5 -64.5zM925 1259q-48 0 -77 35t-21 84t48.5 83t89.5 34
t77.5 -34t20.5 -83t-48.5 -84t-89.5 -35zM505 1259q-49 0 -77.5 35t-20.5 84t48.5 83t89.5 34t77 -34t20 -83q-7 -49 -47.5 -84t-89.5 -35zM689 1594l-147 275h200l93 -275h-146z" />
    <glyph glyph-name="eturn" unicode="&#x1dd;" horiz-adv-x="1157" 
d="M634 1128q135 0 232.5 -52.5t150 -152.5t52.5 -246q0 -147 -46 -274.5t-129 -223t-193 -149.5t-236 -54q-108 0 -188.5 37t-124.5 105t-44 161q0 94 49 160.5t151 108t260 61t376 19.5l-24 -138q-183 0 -305.5 -11t-194.5 -35.5t-103 -66t-31 -101.5q0 -65 53 -103
t143 -38q112 0 190.5 51.5t128.5 134t73 177.5t23 181q0 80 -25.5 146.5t-85.5 106t-163 39.5q-108 0 -191.5 -48t-125.5 -128l-167 36q60 137 192.5 217t302.5 80z" />
    <glyph glyph-name="uni01DE" unicode="&#x1de;" horiz-adv-x="1396" 
d="M-47 0l790 1490h217l300 -1490h-190l-168 887q-14 75 -34 200t-44 314h39q-83 -182 -142.5 -306t-102.5 -208l-458 -887h-207zM297 416l27 165h757l-27 -165h-757zM1092 1645q-48 0 -77 35t-21 84t48.5 83t89.5 34t77.5 -34t20.5 -83t-48.5 -84t-89.5 -35zM672 1645
q-49 0 -77.5 35t-20.5 84t48.5 83t89.5 34t77 -34t20 -83q-7 -49 -47.5 -84t-89.5 -35zM1265 2146l-24 -127h-554l24 127h554z" />
    <glyph glyph-name="uni01DF" unicode="&#x1df;" horiz-adv-x="1235" 
d="M472 -23q-139 0 -233.5 71t-132.5 200t-9 303t110 301.5t199 197.5t257 70q99 0 157.5 -32t89.5 -76t47 -82h12l28 174h178l-183 -1104h-173l28 170h-17q-30 -39 -76.5 -84t-115.5 -77t-166 -32zM527 136q101 0 179.5 53t131 146.5t72.5 216.5q21 123 -0.5 215t-83.5 143
t-163 51q-103 0 -183 -53.5t-131.5 -145.5t-71.5 -210q-19 -120 2 -214t83.5 -148t164.5 -54zM943 1259q-48 0 -77 35t-21 84t48.5 83t89.5 34t77.5 -34t20.5 -83t-48.5 -84t-89.5 -35zM523 1259q-49 0 -77.5 35t-20.5 84t48.5 83t89.5 34t77 -34t20 -83q-7 -49 -47.5 -84
t-89.5 -35zM1116 1760l-24 -127h-554l24 127h554z" />
    <glyph glyph-name="uni01E0" unicode="&#x1e0;" horiz-adv-x="1396" 
d="M-47 0l790 1490h217l300 -1490h-190l-168 887q-14 75 -34 200t-44 314h39q-83 -182 -142.5 -306t-102.5 -208l-458 -887h-207zM297 416l27 165h757l-27 -165h-757zM882 1645q-50 0 -80.5 35t-22.5 84t50.5 83.5t92.5 34.5q51 0 81.5 -34.5t22.5 -83.5t-50.5 -84
t-93.5 -35zM1265 2146l-24 -127h-553l23 127h554z" />
    <glyph glyph-name="uni01E1" unicode="&#x1e1;" horiz-adv-x="1235" 
d="M472 -23q-139 0 -233.5 71t-132.5 200t-9 303t110 301.5t199 197.5t257 70q99 0 157.5 -32t89.5 -76t47 -82h12l28 174h178l-183 -1104h-173l28 170h-17q-30 -39 -76.5 -84t-115.5 -77t-166 -32zM527 136q101 0 179.5 53t131 146.5t72.5 216.5q21 123 -0.5 215t-83.5 143
t-163 51q-103 0 -183 -53.5t-131.5 -145.5t-71.5 -210q-19 -120 2 -214t83.5 -148t164.5 -54zM733 1259q-50 0 -80.5 35t-22.5 84t50.5 83.5t92.5 34.5q51 0 81.5 -34.5t22.5 -83.5t-50.5 -84t-93.5 -35zM1116 1760l-24 -127h-553l23 127h554z" />
    <glyph glyph-name="uni01E2" unicode="&#x1e2;" horiz-adv-x="2010" 
d="M-47 0l954 1490h1128l-28 -165h-717l-81 -495h669l-27 -166h-670l-83 -499h728l-28 -165h-915l219 1321h-115l-829 -1321h-205zM364 423l27 165h685l-27 -165h-685zM1812 1860l-24 -141h-554l24 141h554z" />
    <glyph glyph-name="uni01E3" unicode="&#x1e3;" horiz-adv-x="1837" 
d="M384 -16q-173 0 -262 92t-63 246q13 81 61 148.5t141 108t241 40.5q55 0 103 -0.5t104.5 -1t134.5 -0.5l-12 -138q-78 0 -161.5 0.5t-156.5 0.5q-110 0 -188 -38.5t-92 -123.5q-14 -89 32 -134t148 -45q106 0 178 38.5t113 100t53 128.5l64 352q20 108 -29 161t-177 53
q-70 0 -127.5 -22.5t-96 -64t-53.5 -98.5l-180 2q21 101 87.5 177t167 118.5t224.5 42.5q125 0 210.5 -45t123.5 -124.5t20 -185.5l-86 -520l-17 -1q-40 -77 -109 -137.5t-167.5 -95t-228.5 -34.5zM1205 -24q-135 0 -230 52.5t-144.5 153.5t-49.5 246q0 148 44.5 275.5
t125 223t187 148.5t232.5 53q108 0 189 -37.5t125.5 -106t44.5 -163.5q0 -92 -49 -157.5t-151 -106.5t-260 -59.5t-376 -18.5l22 135q183 0 306 11t195 36t103.5 67t31.5 104q0 65 -53 101.5t-140 36.5q-97 0 -179 -47t-137.5 -128.5t-72.5 -184.5q-10 -57 -15.5 -92.5
t-8 -58t-2.5 -40.5q0 -138 67.5 -211.5t200.5 -73.5q110 0 194 48.5t125 128.5l169 -35q-61 -141 -193 -220.5t-301 -79.5zM1318 1474l-24 -141h-554l24 141h554z" />
    <glyph glyph-name="Gbar" unicode="&#x1e4;" horiz-adv-x="1520" 
d="M701 -21q-175 0 -302 73.5t-196.5 208t-69.5 319.5q0 176 55.5 342.5t158.5 299.5t249.5 211t327.5 78q120 0 219 -36t171 -101t111.5 -155t41.5 -199h-193q-9 72 -36.5 130.5t-72.5 100t-107.5 64t-140.5 22.5q-139 0 -249.5 -64.5t-189.5 -172.5t-120.5 -241
t-41.5 -271q0 -210 108 -322.5t284 -112.5q128 0 237.5 55.5t183 156t95.5 234.5l53 -16h-444l28 165h571l-28 -168q-23 -137 -85.5 -247t-156.5 -189.5t-211.5 -122t-249.5 -42.5zM791 324l23 135h644l-22 -135h-645z" />
    <glyph glyph-name="gbar" unicode="&#x1e5;" horiz-adv-x="1234" 
d="M448 -440q-127 0 -215 34.5t-140 92t-69 126.5l158 65q15 -36 43 -73.5t82 -63t145 -25.5q139 0 238.5 69.5t122.5 205.5l34 204l-13 -3q-30 -39 -74.5 -81.5t-110 -71.5t-162.5 -29q-119 0 -209 50t-140 145.5t-50 229.5q0 128 39 249.5t112 219.5t177.5 157t235.5 59
q76 0 129 -19.5t87 -50.5t55 -64.5t33 -61.5l16 4l30 176h173l-188 -1133q-25 -146 -103 -236.5t-191.5 -132.5t-244.5 -42zM519 168q102 0 177 44.5t125.5 118.5t75.5 164.5t25 182.5q0 130 -62.5 206.5t-186.5 76.5q-97 0 -172.5 -45t-127.5 -120t-79 -167t-27 -186
q0 -127 64 -201t188 -74zM671 496l22 136h638l-23 -136h-637z" />
    <glyph glyph-name="Gcaron" unicode="&#x1e6;" horiz-adv-x="1520" 
d="M701 -21q-175 0 -302 73.5t-196.5 208t-69.5 319.5q0 176 55.5 342.5t158.5 299.5t249.5 211t327.5 78q120 0 219 -36t171 -101t111.5 -155t41.5 -199h-193q-9 72 -36.5 130.5t-72.5 100t-107.5 64t-140.5 22.5q-139 0 -249.5 -64.5t-189.5 -172.5t-120.5 -241
t-41.5 -271q0 -210 108 -322.5t284 -112.5q128 0 237.5 55.5t183 156t95.5 234.5l53 -16h-444l28 165h571l-28 -168q-23 -137 -85.5 -247t-156.5 -189.5t-211.5 -122t-249.5 -42.5zM856 1929l115 -175l171 175h178l-2 -7l-280 -269h-170l-189 269l2 7h175z" />
    <glyph glyph-name="gcaron" unicode="&#x1e7;" horiz-adv-x="1234" 
d="M448 -440q-127 0 -215 34.5t-140 92t-69 126.5l158 65q15 -36 43 -73.5t82 -63t145 -25.5q139 0 238.5 69.5t122.5 205.5l34 204l-13 -3q-30 -39 -74.5 -81.5t-110 -71.5t-162.5 -29q-119 0 -209 50t-140 145.5t-50 229.5q0 128 39 249.5t112 219.5t177.5 157t235.5 59
q76 0 129 -19.5t87 -50.5t55 -64.5t33 -61.5l16 4l30 176h173l-188 -1133q-25 -146 -103 -236.5t-191.5 -132.5t-244.5 -42zM519 168q102 0 177 44.5t125.5 118.5t75.5 164.5t25 182.5q0 130 -62.5 206.5t-186.5 76.5q-97 0 -172.5 -45t-127.5 -120t-79 -167t-27 -186
q0 -127 64 -201t188 -74zM614 1543l115 -175l171 175h178l-2 -7l-280 -269h-170l-189 269l2 7h175z" />
    <glyph glyph-name="uni01E8" unicode="&#x1e8;" horiz-adv-x="1359" 
d="M280 426l27 210q63 68 124 130t124 122.5t127 119.5l527 482h255l-749 -681l-11 1zM81 0l247 1490h189l-85 -512l-57 -320l-12 -92l-93 -566h-189zM1010 0l-413 760l124 146l496 -906h-207zM779 1929l115 -175l171 175h178l-2 -7l-280 -269h-170l-189 269l2 7h175z" />
    <glyph glyph-name="uni01E9" unicode="&#x1e9;" horiz-adv-x="1106" 
d="M292 397l36 218h29l561 489h223l-604 -524h-19zM59 0l247 1490h178l-247 -1490h-178zM765 0l-339 541l147 125l420 -666h-228zM324 1929l115 -175l171 175h178l-2 -7l-280 -269h-170l-189 269l2 7h175z" />
    <glyph glyph-name="uni01EA" unicode="&#x1ea;" horiz-adv-x="1559" 
d="M696 -21q-170 0 -296.5 73.5t-196.5 209t-70 320.5q0 177 56 343.5t161 298t251 209.5t327 78q170 0 296 -73.5t195.5 -208.5t69.5 -321q0 -178 -56 -344t-160.5 -298t-250.5 -209.5t-326 -77.5zM703 153q140 0 252 64t190.5 172t119.5 241.5t41 273.5q0 141 -49.5 237.5
t-136.5 146t-199 49.5q-140 0 -252 -64t-191 -172.5t-120.5 -241.5t-41.5 -273q0 -141 49.5 -237.5t137 -146t200.5 -49.5zM675 -432q-95 0 -154.5 50t-42.5 147q15 80 69 137.5t133 105t170.5 97.5t182.5 114.5t169 155.5t130.5 221t64.5 312h92q-10 -197 -58.5 -341.5
t-120.5 -246t-156 -171t-167.5 -117t-154 -84.5t-116 -72.5t-53.5 -81.5q-6 -37 12 -56.5t59 -19.5q26 0 49.5 7t40.5 15l24 -133q-32 -13 -75 -26t-98 -13z" />
    <glyph glyph-name="uni01EB" unicode="&#x1eb;" horiz-adv-x="1205" 
d="M518 -24q-134 0 -230.5 56.5t-148.5 158.5t-52 238q0 132 41.5 255.5t119.5 222t188.5 156t248.5 57.5q134 0 231 -56t149 -158t52 -240q0 -134 -42 -257.5t-120.5 -221t-189 -154.5t-247.5 -57zM522 135q102 0 180 47.5t130.5 125t79 171t26.5 184.5q0 86 -27 153
t-84 106t-147 39q-101 0 -178 -47t-130 -125t-80 -172t-27 -187q0 -127 61.5 -211t195.5 -84zM503 -432q-102 0 -158.5 50t-41.5 142q13 74 62 127t119.5 97t149 92t152.5 109.5t128 149t75 212.5h118q-24 -142 -76 -239t-119 -162.5t-137.5 -109.5t-133 -79.5t-104.5 -72.5
t-50 -90q-6 -37 12 -56.5t63 -19.5q24 0 45 6.5t39 15.5l24 -133q-31 -13 -72.5 -26t-94.5 -13z" />
    <glyph glyph-name="uni01EC" unicode="&#x1ec;" horiz-adv-x="1559" 
d="M696 -21q-170 0 -296.5 73.5t-196.5 209t-70 320.5q0 177 56 343.5t161 298t251 209.5t327 78q170 0 296 -73.5t195.5 -208.5t69.5 -321q0 -178 -56 -344t-160.5 -298t-250.5 -209.5t-326 -77.5zM703 153q140 0 252 64t190.5 172t119.5 241.5t41 273.5q0 141 -49.5 237.5
t-136.5 146t-199 49.5q-140 0 -252 -64t-191 -172.5t-120.5 -241.5t-41.5 -273q0 -141 49.5 -237.5t137 -146t200.5 -49.5zM675 -432q-95 0 -154.5 50t-42.5 147q15 80 69 137.5t133 105t170.5 97.5t182.5 114.5t169 155.5t130.5 221t64.5 312h92q-10 -197 -58.5 -341.5
t-120.5 -246t-156 -171t-167.5 -117t-154 -84.5t-116 -72.5t-53.5 -81.5q-6 -37 12 -56.5t59 -19.5q26 0 49.5 7t40.5 15l24 -133q-32 -13 -75 -26t-98 -13zM1274 1860l-24 -141h-554l24 141h554z" />
    <glyph glyph-name="uni01ED" unicode="&#x1ed;" horiz-adv-x="1205" 
d="M518 -24q-134 0 -230.5 56.5t-148.5 158.5t-52 238q0 132 41.5 255.5t119.5 222t188.5 156t248.5 57.5q134 0 231 -56t149 -158t52 -240q0 -134 -42 -257.5t-120.5 -221t-189 -154.5t-247.5 -57zM522 135q102 0 180 47.5t130.5 125t79 171t26.5 184.5q0 86 -27 153
t-84 106t-147 39q-101 0 -178 -47t-130 -125t-80 -172t-27 -187q0 -127 61.5 -211t195.5 -84zM503 -432q-102 0 -158.5 50t-41.5 142q13 74 62 127t119.5 97t149 92t152.5 109.5t128 149t75 212.5h118q-24 -142 -76 -239t-119 -162.5t-137.5 -109.5t-133 -79.5t-104.5 -72.5
t-50 -90q-6 -37 12 -56.5t63 -19.5q24 0 45 6.5t39 15.5l24 -133q-31 -13 -72.5 -26t-94.5 -13zM1032 1474l-24 -141h-554l24 141h554z" />
    <glyph glyph-name="uni01EE" unicode="&#x1ee;" horiz-adv-x="1383" 
d="M9 66h190q-10 -100 33 -176.5t125.5 -119t187.5 -42.5q125 0 226 60t167.5 161.5t87.5 227.5q24 144 -21 250t-146 164t-245 58h-113l27 154l575 506v12h-804l29 169h1063l-23 -137l-615 -545l-2 -14q166 -7 279.5 -88t162.5 -216.5t20 -310.5q-23 -135 -85 -248
t-155 -196.5t-210 -129t-251 -45.5q-159 0 -279 64t-180.5 178.5t-43.5 263.5zM805 2115l115 -175l171 175h178l-2 -7l-280 -269h-170l-189 269l2 7h175z" />
    <glyph glyph-name="uni01EF" unicode="&#x1ef;" horiz-adv-x="1257" 
d="M489 -407q-139 0 -248.5 50.5t-168 144.5t-43.5 222h191q-7 -80 25 -136.5t96.5 -86t152.5 -29.5q92 0 172 32.5t135.5 95.5t70.5 154q14 84 -9 152.5t-94.5 110t-204.5 41.5h-162l25 150l461 435l2 10h-636l29 165h889l-24 -144l-562 -527l4 33q166 16 277.5 -38
t161.5 -156t29 -232q-22 -129 -99 -230t-198 -159t-272 -58zM643 1543l115 -175l171 175h178l-2 -7l-280 -269h-170l-189 269l2 7h175z" />
    <glyph glyph-name="uni01F0" unicode="&#x1f0;" horiz-adv-x="480" 
d="M242 1104h178l-199 -1199q-16 -99 -63.5 -171.5t-124.5 -112t-181 -39.5h-45l27 162h38q75 0 117 42t55 125zM260 1543l115 -175l171 175h178l-2 -7l-280 -269h-170l-189 269l2 7h175z" />
    <glyph glyph-name="uni01F1" unicode="&#x1f1;" horiz-adv-x="2736" 
d="M576 0h-390l26 166h348q183 0 315 70.5t212.5 201t110.5 310.5t-5.5 309t-138 198t-274.5 69h-383l28 166h366q218 0 363 -89.5t205.5 -256t21.5 -398.5q-39 -234 -143 -401t-270 -256t-392 -89zM516 1490l-247 -1490h-188l247 1490h188zM1495 0l23 133l995 1192h-807
l28 165h1035l-23 -135l-996 -1190h807l-28 -165h-1034z" />
    <glyph glyph-name="uni01F2" unicode="&#x1f2;" horiz-adv-x="2560" 
d="M576 0h-390l26 166h348q183 0 315 70.5t212.5 201t110.5 310.5t-5.5 309t-138 198t-274.5 69h-383l28 166h366q218 0 363 -89.5t205.5 -256t21.5 -398.5q-39 -234 -143 -401t-270 -256t-392 -89zM516 1490l-247 -1490h-188l247 1490h188zM1490 0l23 133l740 798l2 10
h-593l27 163h827l-24 -141l-722 -790l-2 -9h608l-26 -164h-860z" />
    <glyph glyph-name="uni01F3" unicode="&#x1f3;" horiz-adv-x="2155" 
d="M482 -23q-182 0 -288.5 120t-106.5 324q0 131 38 255t111 224.5t178 160t237 59.5q102 0 163 -33t93.5 -78.5t48.5 -83.5h10l93 565h178l-246 -1490h-173l29 169h-15q-30 -41 -74.5 -85.5t-112 -75.5t-163.5 -31zM514 136q100 0 175.5 47.5t127 127t78 175t26.5 189.5
q0 132 -62 209t-187 77q-99 0 -174.5 -47t-127 -124.5t-78 -171t-26.5 -189.5q0 -131 62 -212t186 -81zM1085 0l23 133l740 798l2 10h-593l27 163h827l-24 -141l-722 -790l-2 -9h608l-26 -164h-860z" />
    <glyph glyph-name="uni01F4" unicode="&#x1f4;" horiz-adv-x="1520" 
d="M701 -21q-175 0 -302 73.5t-196.5 208t-69.5 319.5q0 176 55.5 342.5t158.5 299.5t249.5 211t327.5 78q120 0 219 -36t171 -101t111.5 -155t41.5 -199h-193q-9 72 -36.5 130.5t-72.5 100t-107.5 64t-140.5 22.5q-139 0 -249.5 -64.5t-189.5 -172.5t-120.5 -241
t-41.5 -271q0 -210 108 -322.5t284 -112.5q128 0 237.5 55.5t183 156t95.5 234.5l53 -16h-444l28 165h571l-28 -168q-23 -137 -85.5 -247t-156.5 -189.5t-211.5 -122t-249.5 -42.5zM870 1659l186 275h199l-240 -275h-145z" />
    <glyph glyph-name="uni01F5" unicode="&#x1f5;" horiz-adv-x="1234" 
d="M448 -440q-127 0 -215 34.5t-140 92t-69 126.5l158 65q15 -36 43 -73.5t82 -63t145 -25.5q139 0 238.5 69.5t122.5 205.5l34 204l-13 -3q-30 -39 -74.5 -81.5t-110 -71.5t-162.5 -29q-119 0 -209 50t-140 145.5t-50 229.5q0 128 39 249.5t112 219.5t177.5 157t235.5 59
q76 0 129 -19.5t87 -50.5t55 -64.5t33 -61.5l16 4l30 176h173l-188 -1133q-25 -146 -103 -236.5t-191.5 -132.5t-244.5 -42zM519 168q102 0 177 44.5t125.5 118.5t75.5 164.5t25 182.5q0 130 -62.5 206.5t-186.5 76.5q-97 0 -172.5 -45t-127.5 -120t-79 -167t-27 -186
q0 -127 64 -201t188 -74zM628 1273l186 275h199l-240 -275h-145z" />
    <glyph glyph-name="uni01F6" unicode="&#x1f6;" horiz-adv-x="2253" 
d="M1544 -20q-147 0 -249 56.5t-146 164.5t-18 263l33 203h-784l-111 -667h-188l247 1490h188l-109 -657h785l108 657h190l-172 -1037q-26 -158 35.5 -231t196.5 -73q96 0 169 35t119.5 105.5t63.5 175.5l105 638h186l-108 -651q-25 -157 -101.5 -262t-189 -157.5
t-250.5 -52.5z" />
    <glyph glyph-name="uni01F7" unicode="&#x1f7;" horiz-adv-x="1285" 
d="M473 1490l-312 -1908h-214l310 1908h216zM88 -181l26 172q171 26 322.5 100t271.5 185.5t198 252t104 301.5l11 70q18 112 7.5 194.5t-48 136t-102 80t-154.5 26.5q-106 0 -182 -35t-129 -106.5t-89 -181.5l66 392q75 53 162 78.5t196 25.5q182 0 300.5 -71.5t167 -208
t18.5 -334.5l-10 -66q-29 -194 -130 -365.5t-255 -307.5t-346 -223.5t-405 -114.5z" />
    <glyph glyph-name="uni01F8" unicode="&#x1f8;" horiz-adv-x="1523" 
d="M81 0l247 1490h213l451 -957q14 -30 38 -85.5t52 -127t53 -153.5l-21 -8q6 79 15 155t19 141.5t17 109.5l153 925h188l-247 -1490h-214l-402 851q-23 50 -49.5 111.5t-61.5 147.5t-85 209l26 11q-15 -120 -26.5 -213t-20.5 -158.5t-16 -105.5l-140 -853h-189zM870 1634
l-143 295h199l90 -295h-146z" />
    <glyph glyph-name="uni01F9" unicode="&#x1f9;" horiz-adv-x="1191" 
d="M346 652l-109 -652h-178l184 1104h171l-44 -267l-31 5q76 150 177.5 214t225.5 64q114 0 195 -48t115.5 -143t10.5 -237l-115 -692h-178l115 690q22 132 -31 200.5t-167 68.5q-81 0 -153 -35.5t-122 -104t-66 -167.5zM639 1248l-143 295h199l90 -295h-146z" />
    <glyph glyph-name="Aringacute" unicode="&#x1fa;" horiz-adv-x="1396" 
d="M-47 0l790 1490h217l300 -1490h-190l-168 887q-14 75 -34 200t-44 314h39q-83 -182 -142.5 -306t-102.5 -208l-458 -887h-207zM297 416l27 165h757l-27 -165h-757zM880 2092l176 180h182l-218 -180h-140zM874 1550q-74 0 -129.5 35t-82 94t-14.5 129q11 65 52.5 118.5
t102.5 84.5t131 31q75 0 130.5 -34.5t82 -93t14.5 -129.5q-11 -66 -53 -119.5t-103.5 -84.5t-130.5 -31zM884 1674q49 0 91 34.5t52 85.5q9 52 -20.5 88.5t-81.5 36.5q-51 0 -92.5 -35.5t-50.5 -86.5q-8 -50 21.5 -86.5t80.5 -36.5z" />
    <glyph glyph-name="aringacute" unicode="&#x1fb;" horiz-adv-x="1235" 
d="M472 -23q-139 0 -233.5 71t-132.5 200t-9 303t110 301.5t199 197.5t257 70q99 0 157.5 -32t89.5 -76t47 -82h12l28 174h178l-183 -1104h-173l28 170h-17q-30 -39 -76.5 -84t-115.5 -77t-166 -32zM527 136q101 0 179.5 53t131 146.5t72.5 216.5q21 123 -0.5 215t-83.5 143
t-163 51q-103 0 -183 -53.5t-131.5 -145.5t-71.5 -210q-19 -120 2 -214t83.5 -148t164.5 -54zM731 1706l176 180h182l-218 -180h-140zM725 1164q-74 0 -129.5 35t-82 94t-14.5 129q11 65 52.5 118.5t102.5 84.5t131 31q75 0 130.5 -34.5t82 -93t14.5 -129.5
q-11 -66 -53 -119.5t-103.5 -84.5t-130.5 -31zM735 1288q49 0 91 34.5t52 85.5q9 52 -20.5 88.5t-81.5 36.5q-51 0 -92.5 -35.5t-50.5 -86.5q-8 -50 21.5 -86.5t80.5 -36.5z" />
    <glyph glyph-name="AEacute" unicode="&#x1fc;" horiz-adv-x="2010" 
d="M-47 0l954 1490h1128l-28 -165h-717l-81 -495h669l-27 -166h-670l-83 -499h728l-28 -165h-915l219 1321h-115l-829 -1321h-205zM364 423l27 165h685l-27 -165h-685zM1415 1659l186 275h199l-240 -275h-145z" />
    <glyph glyph-name="aeacute" unicode="&#x1fd;" horiz-adv-x="1837" 
d="M384 -16q-173 0 -262 92t-63 246q13 81 61 148.5t141 108t241 40.5q55 0 103 -0.5t104.5 -1t134.5 -0.5l-12 -138q-78 0 -161.5 0.5t-156.5 0.5q-110 0 -188 -38.5t-92 -123.5q-14 -89 32 -134t148 -45q106 0 178 38.5t113 100t53 128.5l64 352q20 108 -29 161t-177 53
q-70 0 -127.5 -22.5t-96 -64t-53.5 -98.5l-180 2q21 101 87.5 177t167 118.5t224.5 42.5q125 0 210.5 -45t123.5 -124.5t20 -185.5l-86 -520l-17 -1q-40 -77 -109 -137.5t-167.5 -95t-228.5 -34.5zM1205 -24q-135 0 -230 52.5t-144.5 153.5t-49.5 246q0 148 44.5 275.5
t125 223t187 148.5t232.5 53q108 0 189 -37.5t125.5 -106t44.5 -163.5q0 -92 -49 -157.5t-151 -106.5t-260 -59.5t-376 -18.5l22 135q183 0 306 11t195 36t103.5 67t31.5 104q0 65 -53 101.5t-140 36.5q-97 0 -179 -47t-137.5 -128.5t-72.5 -184.5q-10 -57 -15.5 -92.5
t-8 -58t-2.5 -40.5q0 -138 67.5 -211.5t200.5 -73.5q110 0 194 48.5t125 128.5l169 -35q-61 -141 -193 -220.5t-301 -79.5zM922 1273l186 275h199l-240 -275h-145z" />
    <glyph glyph-name="Oslashacute" unicode="&#x1fe;" horiz-adv-x="1559" 
d="M696 -21q-170 0 -296.5 73.5t-196.5 209t-70 320.5q0 177 56 343.5t161 298t251 209.5t327 78q170 0 296 -73.5t195.5 -208.5t69.5 -321q0 -178 -56 -344t-160.5 -298t-250.5 -209.5t-326 -77.5zM703 153q140 0 252 64t190.5 172t119.5 241.5t41 273.5q0 141 -49.5 237.5
t-136.5 146t-199 49.5q-140 0 -252 -64t-191 -172.5t-120.5 -241.5t-41.5 -273q0 -141 49.5 -237.5t137 -146t200.5 -49.5zM204 -48l-115 94l1333 1492l114 -95zM878 1659l186 275h199l-240 -275h-145z" />
    <glyph glyph-name="oslashacute" unicode="&#x1ff;" horiz-adv-x="1205" 
d="M518 -24q-134 0 -230.5 56.5t-148.5 158.5t-52 238q0 132 41.5 255.5t119.5 222t188.5 156t248.5 57.5q134 0 231 -56t149 -158t52 -240q0 -134 -42 -257.5t-120.5 -221t-189 -154.5t-247.5 -57zM522 135q102 0 180 47.5t130.5 125t79 171t26.5 184.5q0 86 -27 153
t-84 106t-147 39q-101 0 -178 -47t-130 -125t-80 -172t-27 -187q0 -127 61.5 -211t195.5 -84zM83 -45l-92 90l1130 1104l92 -90zM636 1273l186 275h199l-240 -275h-145z" />
    <glyph glyph-name="uni0200" unicode="&#x200;" horiz-adv-x="1396" 
d="M-47 0l790 1490h217l300 -1490h-190l-168 887q-14 75 -34 200t-44 314h39q-83 -182 -142.5 -306t-102.5 -208l-458 -887h-207zM297 416l27 165h757l-27 -165h-757zM964 1634l-120 295h199l68 -295h-147zM646 1634l-171 295h199l119 -295h-147z" />
    <glyph glyph-name="uni0201" unicode="&#x201;" horiz-adv-x="1235" 
d="M472 -23q-139 0 -233.5 71t-132.5 200t-9 303t110 301.5t199 197.5t257 70q99 0 157.5 -32t89.5 -76t47 -82h12l28 174h178l-183 -1104h-173l28 170h-17q-30 -39 -76.5 -84t-115.5 -77t-166 -32zM527 136q101 0 179.5 53t131 146.5t72.5 216.5q21 123 -0.5 215t-83.5 143
t-163 51q-103 0 -183 -53.5t-131.5 -145.5t-71.5 -210q-19 -120 2 -214t83.5 -148t164.5 -54zM816 1248l-120 295h199l68 -295h-147zM498 1248l-171 295h199l119 -295h-147z" />
    <glyph glyph-name="uni0202" unicode="&#x202;" horiz-adv-x="1396" 
d="M-47 0l790 1490h217l300 -1490h-190l-168 887q-14 75 -34 200t-44 314h39q-83 -182 -142.5 -306t-102.5 -208l-458 -887h-207zM297 416l27 165h757l-27 -165h-757zM929 1948q87 0 148.5 -39.5t89.5 -106t14 -149.5h-131q12 72 -30.5 117.5t-111.5 45.5t-127 -45.5
t-70 -117.5h-131q13 83 63 149.5t124.5 106t161.5 39.5z" />
    <glyph glyph-name="uni0203" unicode="&#x203;" horiz-adv-x="1235" 
d="M472 -23q-139 0 -233.5 71t-132.5 200t-9 303t110 301.5t199 197.5t257 70q99 0 157.5 -32t89.5 -76t47 -82h12l28 174h178l-183 -1104h-173l28 170h-17q-30 -39 -76.5 -84t-115.5 -77t-166 -32zM527 136q101 0 179.5 53t131 146.5t72.5 216.5q21 123 -0.5 215t-83.5 143
t-163 51q-103 0 -183 -53.5t-131.5 -145.5t-71.5 -210q-19 -120 2 -214t83.5 -148t164.5 -54zM780 1562q87 0 148.5 -39.5t89.5 -106t14 -149.5h-131q12 72 -30.5 117.5t-111.5 45.5t-127 -45.5t-70 -117.5h-131q13 83 63 149.5t124.5 106t161.5 39.5z" />
    <glyph glyph-name="uni0204" unicode="&#x204;" horiz-adv-x="1221" 
d="M81 0l247 1490h922l-28 -165h-734l-80 -487h683l-28 -166h-683l-84 -507h741l-27 -165h-929zM903 1634l-120 295h199l68 -295h-147zM585 1634l-171 295h199l119 -295h-147z" />
    <glyph glyph-name="uni0205" unicode="&#x205;" horiz-adv-x="1157" 
d="M523 -24q-135 0 -232 52.5t-150 153t-53 245.5q0 147 46 274.5t129 223t193 149.5t236 54q108 0 188.5 -36.5t124.5 -104.5t44 -162t-49 -160.5t-151 -108t-260 -61t-376 -19.5l24 138q183 0 305.5 11t194.5 36t103 66t31 101q0 65 -53 103.5t-143 38.5
q-112 0 -190.5 -52t-128.5 -134.5t-73 -177t-23 -180.5q0 -81 25.5 -147t86 -105.5t162.5 -39.5q109 0 192 47.5t125 128.5l167 -37q-60 -136 -192.5 -216.5t-302.5 -80.5zM802 1248l-120 295h199l68 -295h-147zM484 1248l-171 295h199l119 -295h-147z" />
    <glyph glyph-name="uni0206" unicode="&#x206;" horiz-adv-x="1221" 
d="M81 0l247 1490h922l-28 -165h-734l-80 -487h683l-28 -166h-683l-84 -507h741l-27 -165h-929zM868 1948q87 0 148.5 -39.5t89.5 -106t14 -149.5h-131q12 72 -30.5 117.5t-111.5 45.5t-127 -45.5t-70 -117.5h-131q13 83 63 149.5t124.5 106t161.5 39.5z" />
    <glyph glyph-name="uni0207" unicode="&#x207;" horiz-adv-x="1157" 
d="M523 -24q-135 0 -232 52.5t-150 153t-53 245.5q0 147 46 274.5t129 223t193 149.5t236 54q108 0 188.5 -36.5t124.5 -104.5t44 -162t-49 -160.5t-151 -108t-260 -61t-376 -19.5l24 138q183 0 305.5 11t194.5 36t103 66t31 101q0 65 -53 103.5t-143 38.5
q-112 0 -190.5 -52t-128.5 -134.5t-73 -177t-23 -180.5q0 -81 25.5 -147t86 -105.5t162.5 -39.5q109 0 192 47.5t125 128.5l167 -37q-60 -136 -192.5 -216.5t-302.5 -80.5zM767 1562q87 0 148.5 -39.5t89.5 -106t14 -149.5h-131q12 72 -30.5 117.5t-111.5 45.5t-127 -45.5
t-70 -117.5h-131q13 83 63 149.5t124.5 106t161.5 39.5z" />
    <glyph glyph-name="uni0208" unicode="&#x208;" horiz-adv-x="534" 
d="M516 1490l-247 -1490h-188l247 1490h188zM533 1634l-120 295h199l68 -295h-147zM215 1634l-171 295h199l119 -295h-147z" />
    <glyph glyph-name="uni0209" unicode="&#x209;" horiz-adv-x="481" 
d="M60 0l183 1104h178l-183 -1104h-178zM443 1248l-120 295h199l68 -295h-147zM125 1248l-171 295h199l119 -295h-147z" />
    <glyph glyph-name="uni020A" unicode="&#x20a;" horiz-adv-x="534" 
d="M516 1490l-247 -1490h-188l247 1490h188zM498 1948q87 0 148.5 -39.5t89.5 -106t14 -149.5h-131q12 72 -30.5 117.5t-111.5 45.5t-127 -45.5t-70 -117.5h-131q13 83 63 149.5t124.5 106t161.5 39.5z" />
    <glyph glyph-name="uni020B" unicode="&#x20b;" horiz-adv-x="481" 
d="M60 0l183 1104h178l-183 -1104h-178zM408 1562q87 0 148.5 -39.5t89.5 -106t14 -149.5h-131q12 72 -30.5 117.5t-111.5 45.5t-127 -45.5t-70 -117.5h-131q13 83 63 149.5t124.5 106t161.5 39.5z" />
    <glyph glyph-name="uni020C" unicode="&#x20c;" horiz-adv-x="1559" 
d="M696 -21q-170 0 -296.5 73.5t-196.5 209t-70 320.5q0 177 56 343.5t161 298t251 209.5t327 78q170 0 296 -73.5t195.5 -208.5t69.5 -321q0 -178 -56 -344t-160.5 -298t-250.5 -209.5t-326 -77.5zM703 153q140 0 252 64t190.5 172t119.5 241.5t41 273.5q0 141 -49.5 237.5
t-136.5 146t-199 49.5q-140 0 -252 -64t-191 -172.5t-120.5 -241.5t-41.5 -273q0 -141 49.5 -237.5t137 -146t200.5 -49.5zM1046 1634l-120 295h199l68 -295h-147zM728 1634l-171 295h199l119 -295h-147z" />
    <glyph glyph-name="uni020D" unicode="&#x20d;" horiz-adv-x="1205" 
d="M518 -24q-134 0 -230.5 56.5t-148.5 158.5t-52 238q0 132 41.5 255.5t119.5 222t188.5 156t248.5 57.5q134 0 231 -56t149 -158t52 -240q0 -134 -42 -257.5t-120.5 -221t-189 -154.5t-247.5 -57zM522 135q102 0 180 47.5t130.5 125t79 171t26.5 184.5q0 86 -27 153
t-84 106t-147 39q-101 0 -178 -47t-130 -125t-80 -172t-27 -187q0 -127 61.5 -211t195.5 -84zM804 1248l-120 295h199l68 -295h-147zM486 1248l-171 295h199l119 -295h-147z" />
    <glyph glyph-name="uni020E" unicode="&#x20e;" horiz-adv-x="1559" 
d="M696 -21q-170 0 -296.5 73.5t-196.5 209t-70 320.5q0 177 56 343.5t161 298t251 209.5t327 78q170 0 296 -73.5t195.5 -208.5t69.5 -321q0 -178 -56 -344t-160.5 -298t-250.5 -209.5t-326 -77.5zM703 153q140 0 252 64t190.5 172t119.5 241.5t41 273.5q0 141 -49.5 237.5
t-136.5 146t-199 49.5q-140 0 -252 -64t-191 -172.5t-120.5 -241.5t-41.5 -273q0 -141 49.5 -237.5t137 -146t200.5 -49.5zM1011 1948q87 0 148.5 -39.5t89.5 -106t14 -149.5h-131q12 72 -30.5 117.5t-111.5 45.5t-127 -45.5t-70 -117.5h-131q13 83 63 149.5t124.5 106
t161.5 39.5z" />
    <glyph glyph-name="uni020F" unicode="&#x20f;" horiz-adv-x="1205" 
d="M518 -24q-134 0 -230.5 56.5t-148.5 158.5t-52 238q0 132 41.5 255.5t119.5 222t188.5 156t248.5 57.5q134 0 231 -56t149 -158t52 -240q0 -134 -42 -257.5t-120.5 -221t-189 -154.5t-247.5 -57zM522 135q102 0 180 47.5t130.5 125t79 171t26.5 184.5q0 86 -27 153
t-84 106t-147 39q-101 0 -178 -47t-130 -125t-80 -172t-27 -187q0 -127 61.5 -211t195.5 -84zM769 1562q87 0 148.5 -39.5t89.5 -106t14 -149.5h-131q12 72 -30.5 117.5t-111.5 45.5t-127 -45.5t-70 -117.5h-131q13 83 63 149.5t124.5 106t161.5 39.5z" />
    <glyph glyph-name="uni0210" unicode="&#x210;" horiz-adv-x="1313" 
d="M81 0l247 1490h518q172 0 275 -59t142 -162.5t17 -236.5q-23 -134 -96.5 -236t-196.5 -159t-292 -57h-413l28 167h407q115 0 193.5 35t123.5 100t59 152q23 138 -45.5 214.5t-236.5 76.5h-323l-219 -1325h-188zM944 0l-249 671h207l255 -671h-213zM913 1634l-120 295h199
l68 -295h-147zM595 1634l-171 295h199l119 -295h-147z" />
    <glyph glyph-name="uni0211" unicode="&#x211;" horiz-adv-x="747" 
d="M60 0l183 1104h171l-28 -170h10q44 84 128.5 135t184.5 51q21 0 46 -1t40 -2l-30 -179q-11 2 -41 6t-64 4q-75 0 -140.5 -32t-110 -90t-57.5 -137l-114 -689h-178zM616 1248l-120 295h199l68 -295h-147zM298 1248l-171 295h199l119 -295h-147z" />
    <glyph glyph-name="uni0212" unicode="&#x212;" horiz-adv-x="1313" 
d="M81 0l247 1490h518q172 0 275 -59t142 -162.5t17 -236.5q-23 -134 -96.5 -236t-196.5 -159t-292 -57h-413l28 167h407q115 0 193.5 35t123.5 100t59 152q23 138 -45.5 214.5t-236.5 76.5h-323l-219 -1325h-188zM944 0l-249 671h207l255 -671h-213zM878 1948
q87 0 148.5 -39.5t89.5 -106t14 -149.5h-131q12 72 -30.5 117.5t-111.5 45.5t-127 -45.5t-70 -117.5h-131q13 83 63 149.5t124.5 106t161.5 39.5z" />
    <glyph glyph-name="uni0213" unicode="&#x213;" horiz-adv-x="747" 
d="M60 0l183 1104h171l-28 -170h10q44 84 128.5 135t184.5 51q21 0 46 -1t40 -2l-30 -179q-11 2 -41 6t-64 4q-75 0 -140.5 -32t-110 -90t-57.5 -137l-114 -689h-178zM581 1562q87 0 148.5 -39.5t89.5 -106t14 -149.5h-131q12 72 -30.5 117.5t-111.5 45.5t-127 -45.5
t-70 -117.5h-131q13 83 63 149.5t124.5 106t161.5 39.5z" />
    <glyph glyph-name="uni0214" unicode="&#x214;" horiz-adv-x="1505" 
d="M669 -24q-179 0 -301 70.5t-175.5 192.5t-28.5 275l162 976h188l-161 -974q-18 -109 15 -191.5t111 -128.5t197 -46q123 0 222 49.5t162.5 134.5t81.5 194l159 962h188l-164 -989q-25 -154 -115 -272.5t-229 -185.5t-312 -67zM1018 1634l-120 295h199l68 -295h-147z
M700 1634l-171 295h199l119 -295h-147z" />
    <glyph glyph-name="uni0215" unicode="&#x215;" horiz-adv-x="1192" 
d="M439 -15q-111 0 -189 46t-111.5 140t-10.5 235l115 698h178l-113 -683q-21 -130 33.5 -203t172.5 -73q78 0 147.5 34t118.5 101t65 166l108 658h179l-183 -1104h-172l44 268h29q-76 -154 -181.5 -218.5t-229.5 -64.5zM798 1248l-120 295h199l68 -295h-147zM480 1248
l-171 295h199l119 -295h-147z" />
    <glyph glyph-name="uni0216" unicode="&#x216;" horiz-adv-x="1505" 
d="M669 -24q-179 0 -301 70.5t-175.5 192.5t-28.5 275l162 976h188l-161 -974q-18 -109 15 -191.5t111 -128.5t197 -46q123 0 222 49.5t162.5 134.5t81.5 194l159 962h188l-164 -989q-25 -154 -115 -272.5t-229 -185.5t-312 -67zM983 1948q87 0 148.5 -39.5t89.5 -106
t14 -149.5h-131q12 72 -30.5 117.5t-111.5 45.5t-127 -45.5t-70 -117.5h-131q13 83 63 149.5t124.5 106t161.5 39.5z" />
    <glyph glyph-name="uni0217" unicode="&#x217;" horiz-adv-x="1192" 
d="M439 -15q-111 0 -189 46t-111.5 140t-10.5 235l115 698h178l-113 -683q-21 -130 33.5 -203t172.5 -73q78 0 147.5 34t118.5 101t65 166l108 658h179l-183 -1104h-172l44 268h29q-76 -154 -181.5 -218.5t-229.5 -64.5zM762 1562q87 0 148.5 -39.5t89.5 -106t14 -149.5
h-131q12 72 -30.5 117.5t-111.5 45.5t-127 -45.5t-70 -117.5h-131q13 83 63 149.5t124.5 106t161.5 39.5z" />
    <glyph glyph-name="uni0218" unicode="&#x218;" horiz-adv-x="1300" 
d="M571 -26q-163 0 -278 54t-169.5 152t-40.5 230h193q-9 -89 29 -148.5t110.5 -89t166.5 -29.5q104 0 190.5 33.5t143.5 93t70 140.5q11 69 -18.5 113.5t-91 74.5t-144.5 54l-170 49q-173 49 -262.5 141.5t-64.5 248.5q20 126 99 221t200 147t268 52q148 0 256 -52.5
t162 -145.5t38 -213h-183q7 115 -73 179.5t-217 64.5q-97 0 -175.5 -32t-128.5 -87.5t-62 -126.5q-12 -72 23.5 -118.5t97.5 -74.5t126 -46l147 -41q66 -19 135 -49t125 -77t83.5 -117.5t11.5 -170.5q-20 -123 -97 -220t-203 -153.5t-297 -56.5zM304 -493l144 375h183
l-188 -375h-139z" />
    <glyph glyph-name="uni0219" unicode="&#x219;" horiz-adv-x="1056" 
d="M443 -24q-112 0 -195.5 32t-133 94t-56.5 153q-1 8 -1.5 15.5t0.5 15.5l172 22q5 -92 61 -134.5t155 -42.5q79 0 142.5 25t103.5 66.5t46 92.5q7 52 -26 85.5t-108 51.5l-176 44q-141 34 -205 110t-48 193q12 96 75 168.5t160.5 112.5t212.5 40q160 0 247.5 -68
t108.5 -177q2 -11 3.5 -21.5t2.5 -22.5l-166 -23q-7 67 -52 114t-147 47q-70 0 -128.5 -24t-95.5 -64t-44 -91q-7 -55 29.5 -88t124.5 -54l162 -40q142 -35 205 -110t47 -189q-9 -74 -49 -135t-104 -105.5t-146.5 -68.5t-176.5 -24zM183 -493l144 375h183l-188 -375h-139z
" />
    <glyph glyph-name="uni021A.1" unicode="&#x21a;" horiz-adv-x="1308" 
d="M216 1325l28 165h1132l-28 -165h-471l-219 -1325h-188l219 1325h-473zM309 -493l144 375h183l-188 -375h-139z" />
    <glyph glyph-name="uni021B" unicode="&#x21b;" horiz-adv-x="664" 
d="M687 1104l-25 -152h-576l25 152h576zM329 1375h177l-180 -1093q-13 -73 12 -104.5t93 -31.5q19 0 46 3t49 6l4 -150q-27 -7 -62 -11.5t-70 -4.5q-144 0 -209 73t-44 206zM33 -493l144 375h183l-188 -375h-139z" />
    <glyph glyph-name="uni021C" unicode="&#x21c;" horiz-adv-x="1282" 
d="M181 337l27 155q182 52 324 109.5t243 125t160.5 150t76.5 185.5q22 131 -44 203t-205 72q-92 0 -163 -29.5t-114.5 -81.5t-55.5 -121h-213q20 124 99.5 214.5t202.5 140.5t273 50q144 0 251 -50t157.5 -146t25.5 -237q-24 -134 -111.5 -250t-227 -210.5t-319 -165
t-387.5 -114.5zM806 643l121 118q82 -29 133 -85.5t68.5 -144.5t-4.5 -211q-31 -174 -122 -299.5t-232 -212.5t-323 -145t-394 -99l29 171q179 35 322.5 82.5t249 117t171 168.5t88.5 237q21 130 -4.5 202t-102.5 101z" />
    <glyph glyph-name="uni021D" unicode="&#x21d;" horiz-adv-x="1095" 
d="M150 207l27 152q179 42 308 104.5t204.5 143.5t90.5 176q14 87 -30 136t-142 49q-66 0 -117.5 -22.5t-84.5 -65t-43 -101.5h-204q18 107 80 186.5t162 123t232 43.5q182 0 281.5 -91t73.5 -247q-22 -137 -133.5 -254.5t-292 -203.5t-412.5 -129zM615 451l125 103
q104 -43 148 -138.5t17 -243.5q-45 -255 -260 -406t-600 -202l27 160q206 45 338 107.5t202 150.5t90 209q16 95 -6 164t-81 96z" />
    <glyph glyph-name="uni021E" unicode="&#x21e;" horiz-adv-x="1506" 
d="M81 0l247 1490h188l-107 -645h785l107 645h187l-247 -1490h-187l113 679h-786l-112 -679h-188zM836 1929l115 -175l171 175h178l-2 -7l-280 -269h-170l-189 269l2 7h175z" />
    <glyph glyph-name="uni021F" unicode="&#x21f;" horiz-adv-x="1191" 
d="M346 658l-109 -658h-178l247 1490h178l-109 -653h-35q51 102 113.5 164.5t135 90.5t155.5 28q112 0 192.5 -46.5t116 -140t11.5 -235.5l-116 -698h-178l114 684q22 132 -34.5 203.5t-173.5 71.5q-78 0 -147.5 -34t-118 -100.5t-64.5 -166.5zM324 1929l115 -175l171 175
h178l-2 -7l-280 -269h-170l-189 269l2 7h175z" />
    <glyph glyph-name="uni0220" unicode="&#x220;" horiz-adv-x="1281" 
d="M1011 -416h-208l237 1436q27 166 -46.5 242.5t-240.5 76.5q-108 0 -205.5 -30.5t-177.5 -81.5l28 167q50 31 113.5 57.5t136.5 42.5t151 16q140 0 251 -54.5t167 -163.5t29 -272zM471 1490l-248 -1490h-204l248 1490h204z" />
    <glyph glyph-name="uni0221" unicode="&#x221;" horiz-adv-x="1553" 
d="M1057 -418q-114 0 -175 47.5t-79.5 121t-6.5 148.5l56 343h179l-60 -362q-12 -73 23 -110.5t88 -37.5q51 0 88.5 32.5t45.5 81.5q7 42 -12.5 73.5t-65.5 38.5q-33 6 -65 -1t-62 -23.5t-59 -41.5l-321 -276l-93 118l270 234q81 70 174 107t176 37q125 0 192.5 -74
t48.5 -191t-111 -191t-231 -74zM482 -23q-182 0 -288.5 120t-106.5 324q0 131 38 255t111 224.5t178 160t237 59.5q102 0 163 -33t93.5 -78.5t48.5 -83.5h10l93 565h178l-246 -1490h-173l29 169h-15q-30 -41 -74.5 -85.5t-112 -75.5t-163.5 -31zM514 136q100 0 175.5 47.5
t127 127t78 175t26.5 189.5q0 132 -62 209t-187 77q-99 0 -174.5 -47t-127 -124.5t-78 -171t-26.5 -189.5q0 -131 62 -212t186 -81z" />
    <glyph glyph-name="uni0222" unicode="&#x222;" horiz-adv-x="1279" 
d="M682 884h24q154 0 270 -49t174.5 -146.5t35.5 -243.5q-23 -156 -113.5 -259t-224.5 -154.5t-292 -51.5h-24q-155 0 -272 50t-174 151.5t-31 255.5q25 149 115 248t223.5 149t288.5 50zM680 722h-24q-157 0 -261 -71t-128 -217q-23 -143 56.5 -210.5t236.5 -66.5h24
q156 -1 260.5 66.5t127.5 215.5q23 144 -58 213.5t-234 69.5zM674 900h42q93 0 171 16t131 65t68 148q15 91 -22 143t-127 75l27 163q110 -5 193 -47.5t122.5 -124.5t19.5 -208q-24 -151 -113.5 -236t-219.5 -120.5t-277 -35.5h-41q-111 0 -206 19.5t-163 64t-98.5 120
t-11.5 188.5q21 126 88.5 208t164.5 124.5t207 47.5l-27 -163q-95 -22 -150 -73.5t-71 -147.5q-16 -97 21 -145.5t109.5 -64.5t162.5 -16z" />
    <glyph glyph-name="uni0223" unicode="&#x223;" horiz-adv-x="1279" 
d="M680 880h24q156 0 272 -49t172.5 -147.5t31.5 -246.5q-25 -154 -114.5 -255.5t-221.5 -151.5t-288 -50h-24q-154 0 -271 49.5t-173.5 150.5t-30.5 256q26 150 115 248.5t221.5 147.5t286.5 48zM679 726h-22q-157 -1 -263.5 -74t-130.5 -219q-22 -145 60 -216.5t235 -71.5
h24q153 0 260.5 72t131.5 220q23 143 -58.5 215.5t-236.5 73.5zM716 890q92 0 171 21.5t133.5 77t70.5 154.5q18 105 -19 164t-127 96l27 153q109 -3 190.5 -52t119.5 -140.5t16 -221.5q-25 -149 -115 -238t-219.5 -128t-274.5 -39h-41q-146 0 -263 39.5t-176.5 129
t-35.5 237.5q22 131 90 221.5t165.5 139t208.5 52.5l-27 -153q-94 -35 -152.5 -93.5t-76.5 -165.5q-17 -101 21 -156t111.5 -76.5t160.5 -21.5h42z" />
    <glyph glyph-name="uni0224" unicode="&#x224;" horiz-adv-x="1274" 
d="M602 -418l26 158q16 -2 36 -3t32 -1q76 0 111 23.5t44 77.5l27 163h188l-29 -171q-21 -126 -107 -190t-224 -64q-33 0 -60.5 2t-43.5 5zM32 0l23 133l995 1192h-807l28 165h1035l-23 -135l-996 -1190h807l-28 -165h-1034z" />
    <glyph glyph-name="uni0225" unicode="&#x225;" horiz-adv-x="1097" 
d="M739 -229l9 53q12 71 -7 123.5t-106 52.5h-608l23 133l748 798l2 10h-601l27 163h827l-24 -141l-730 -790l-2 -9h368q140 0 206 -83.5t46 -214.5l-15 -95h-163z" />
    <glyph glyph-name="uni0226" unicode="&#x226;" horiz-adv-x="1396" 
d="M-47 0l790 1490h217l300 -1490h-190l-168 887q-14 75 -34 200t-44 314h39q-83 -182 -142.5 -306t-102.5 -208l-458 -887h-207zM297 416l27 165h757l-27 -165h-757zM885 1678q-50 0 -80.5 35t-22.5 84t50 83.5t93 34.5t81.5 -34.5t22.5 -83.5t-50.5 -84t-93.5 -35z" />
    <glyph glyph-name="uni0227" unicode="&#x227;" horiz-adv-x="1235" 
d="M472 -23q-139 0 -233.5 71t-132.5 200t-9 303t110 301.5t199 197.5t257 70q99 0 157.5 -32t89.5 -76t47 -82h12l28 174h178l-183 -1104h-173l28 170h-17q-30 -39 -76.5 -84t-115.5 -77t-166 -32zM527 136q101 0 179.5 53t131 146.5t72.5 216.5q21 123 -0.5 215t-83.5 143
t-163 51q-103 0 -183 -53.5t-131.5 -145.5t-71.5 -210q-19 -120 2 -214t83.5 -148t164.5 -54zM736 1292q-50 0 -80.5 35t-22.5 84t50 83.5t93 34.5t81.5 -34.5t22.5 -83.5t-50.5 -84t-93.5 -35z" />
    <glyph glyph-name="uni0228" unicode="&#x228;" horiz-adv-x="1221" 
d="M81 0l247 1490h922l-28 -165h-734l-80 -487h683l-28 -166h-683l-84 -507h741l-27 -165h-929zM368 -418l17 105h118q54 0 78.5 15t30.5 50t-13 50.5t-74 15.5h-82l68 230h95l-8 -48l-14 -86q93 -4 133.5 -43t27.5 -117q-14 -88 -77 -130t-181 -42h-119z" />
    <glyph glyph-name="uni0229" unicode="&#x229;" horiz-adv-x="1157" 
d="M523 -24q-135 0 -232 52.5t-150 153t-53 245.5q0 147 46 274.5t129 223t193 149.5t236 54q108 0 188.5 -36.5t124.5 -104.5t44 -162t-49 -160.5t-151 -108t-260 -61t-376 -19.5l24 138q183 0 305.5 11t194.5 36t103 66t31 101q0 65 -53 103.5t-143 38.5
q-112 0 -190.5 -52t-128.5 -134.5t-73 -177t-23 -180.5q0 -81 25.5 -147t86 -105.5t162.5 -39.5q109 0 192 47.5t125 128.5l167 -37q-60 -136 -192.5 -216.5t-302.5 -80.5zM330 -418l17 105h118q54 0 78.5 15t30.5 50t-13 50.5t-74 15.5h-82l68 230h95l-8 -48l-14 -86
q93 -4 133.5 -43t27.5 -117q-14 -88 -77 -130t-181 -42h-119z" />
    <glyph glyph-name="uni022A" unicode="&#x22a;" horiz-adv-x="1559" 
d="M696 -21q-170 0 -296.5 73.5t-196.5 209t-70 320.5q0 177 56 343.5t161 298t251 209.5t327 78q170 0 296 -73.5t195.5 -208.5t69.5 -321q0 -178 -56 -344t-160.5 -298t-250.5 -209.5t-326 -77.5zM703 153q140 0 252 64t190.5 172t119.5 241.5t41 273.5q0 141 -49.5 237.5
t-136.5 146t-199 49.5q-140 0 -252 -64t-191 -172.5t-120.5 -241.5t-41.5 -273q0 -141 49.5 -237.5t137 -146t200.5 -49.5zM1174 1645q-48 0 -77 35t-21 84t48.5 83t89.5 34t77.5 -34t20.5 -83t-48.5 -84t-89.5 -35zM754 1645q-49 0 -77.5 35t-20.5 84t48.5 83t89.5 34
t77 -34t20 -83q-7 -49 -47.5 -84t-89.5 -35zM1347 2146l-24 -127h-554l24 127h554z" />
    <glyph glyph-name="uni022B" unicode="&#x22b;" horiz-adv-x="1205" 
d="M518 -24q-134 0 -230.5 56.5t-148.5 158.5t-52 238q0 132 41.5 255.5t119.5 222t188.5 156t248.5 57.5q134 0 231 -56t149 -158t52 -240q0 -134 -42 -257.5t-120.5 -221t-189 -154.5t-247.5 -57zM522 135q102 0 180 47.5t130.5 125t79 171t26.5 184.5q0 86 -27 153
t-84 106t-147 39q-101 0 -178 -47t-130 -125t-80 -172t-27 -187q0 -127 61.5 -211t195.5 -84zM932 1259q-48 0 -77 35t-21 84t48.5 83t89.5 34t77.5 -34t20.5 -83t-48.5 -84t-89.5 -35zM512 1259q-49 0 -77.5 35t-20.5 84t48.5 83t89.5 34t77 -34t20 -83q-7 -49 -47.5 -84
t-89.5 -35zM1105 1760l-24 -127h-554l24 127h554z" />
    <glyph glyph-name="uni022C" unicode="&#x22c;" horiz-adv-x="1559" 
d="M696 -21q-170 0 -296.5 73.5t-196.5 209t-70 320.5q0 177 56 343.5t161 298t251 209.5t327 78q170 0 296 -73.5t195.5 -208.5t69.5 -321q0 -178 -56 -344t-160.5 -298t-250.5 -209.5t-326 -77.5zM703 153q140 0 252 64t190.5 172t119.5 241.5t41 273.5q0 141 -49.5 237.5
t-136.5 146t-199 49.5q-140 0 -252 -64t-191 -172.5t-120.5 -241.5t-41.5 -273q0 -141 49.5 -237.5t137 -146t200.5 -49.5zM1098 1655q-37 0 -70.5 12.5t-62.5 29t-53 29t-43 12.5q-27 0 -43.5 -25.5t-22.5 -53.5h-126q19 91 68 149t128 58q39 0 70 -13t57.5 -29.5
t50.5 -29.5t49 -13q26 0 41.5 19.5t27.5 61.5h122q-19 -96 -70 -151.5t-123 -55.5zM1346 2146l-24 -127h-554l24 127h554z" />
    <glyph glyph-name="uni022D" unicode="&#x22d;" horiz-adv-x="1205" 
d="M518 -24q-134 0 -230.5 56.5t-148.5 158.5t-52 238q0 132 41.5 255.5t119.5 222t188.5 156t248.5 57.5q134 0 231 -56t149 -158t52 -240q0 -134 -42 -257.5t-120.5 -221t-189 -154.5t-247.5 -57zM522 135q102 0 180 47.5t130.5 125t79 171t26.5 184.5q0 86 -27 153
t-84 106t-147 39q-101 0 -178 -47t-130 -125t-80 -172t-27 -187q0 -127 61.5 -211t195.5 -84zM856 1269q-37 0 -70.5 12.5t-62.5 29t-53 29t-43 12.5q-27 0 -43.5 -25.5t-22.5 -53.5h-126q19 91 68 149t128 58q39 0 70 -13t57.5 -29.5t50.5 -29.5t49 -13q26 0 41.5 19.5
t27.5 61.5h122q-19 -96 -70 -151.5t-123 -55.5zM1104 1760l-24 -127h-554l24 127h554z" />
    <glyph glyph-name="uni022E" unicode="&#x22e;" horiz-adv-x="1559" 
d="M696 -21q-170 0 -296.5 73.5t-196.5 209t-70 320.5q0 177 56 343.5t161 298t251 209.5t327 78q170 0 296 -73.5t195.5 -208.5t69.5 -321q0 -178 -56 -344t-160.5 -298t-250.5 -209.5t-326 -77.5zM703 153q140 0 252 64t190.5 172t119.5 241.5t41 273.5q0 141 -49.5 237.5
t-136.5 146t-199 49.5q-140 0 -252 -64t-191 -172.5t-120.5 -241.5t-41.5 -273q0 -141 49.5 -237.5t137 -146t200.5 -49.5zM966 1678q-50 0 -80.5 35t-22.5 84t50 83.5t93 34.5t81.5 -34.5t22.5 -83.5t-50.5 -84t-93.5 -35z" />
    <glyph glyph-name="uni022F" unicode="&#x22f;" horiz-adv-x="1205" 
d="M518 -24q-134 0 -230.5 56.5t-148.5 158.5t-52 238q0 132 41.5 255.5t119.5 222t188.5 156t248.5 57.5q134 0 231 -56t149 -158t52 -240q0 -134 -42 -257.5t-120.5 -221t-189 -154.5t-247.5 -57zM522 135q102 0 180 47.5t130.5 125t79 171t26.5 184.5q0 86 -27 153
t-84 106t-147 39q-101 0 -178 -47t-130 -125t-80 -172t-27 -187q0 -127 61.5 -211t195.5 -84zM724 1292q-50 0 -80.5 35t-22.5 84t50 83.5t93 34.5t81.5 -34.5t22.5 -83.5t-50.5 -84t-93.5 -35z" />
    <glyph glyph-name="uni0230" unicode="&#x230;" horiz-adv-x="1559" 
d="M696 -21q-170 0 -296.5 73.5t-196.5 209t-70 320.5q0 177 56 343.5t161 298t251 209.5t327 78q170 0 296 -73.5t195.5 -208.5t69.5 -321q0 -178 -56 -344t-160.5 -298t-250.5 -209.5t-326 -77.5zM703 153q140 0 252 64t190.5 172t119.5 241.5t41 273.5q0 141 -49.5 237.5
t-136.5 146t-199 49.5q-140 0 -252 -64t-191 -172.5t-120.5 -241.5t-41.5 -273q0 -141 49.5 -237.5t137 -146t200.5 -49.5zM963 1645q-50 0 -80.5 35t-22.5 84t50.5 83.5t92.5 34.5q51 0 81.5 -34.5t22.5 -83.5t-50.5 -84t-93.5 -35zM1346 2146l-24 -127h-553l23 127h554z
" />
    <glyph glyph-name="uni0231" unicode="&#x231;" horiz-adv-x="1205" 
d="M518 -24q-134 0 -230.5 56.5t-148.5 158.5t-52 238q0 132 41.5 255.5t119.5 222t188.5 156t248.5 57.5q134 0 231 -56t149 -158t52 -240q0 -134 -42 -257.5t-120.5 -221t-189 -154.5t-247.5 -57zM522 135q102 0 180 47.5t130.5 125t79 171t26.5 184.5q0 86 -27 153
t-84 106t-147 39q-101 0 -178 -47t-130 -125t-80 -172t-27 -187q0 -127 61.5 -211t195.5 -84zM721 1259q-50 0 -80.5 35t-22.5 84t50.5 83.5t92.5 34.5q51 0 81.5 -34.5t22.5 -83.5t-50.5 -84t-93.5 -35zM1104 1760l-24 -127h-553l23 127h554z" />
    <glyph glyph-name="uni0232" unicode="&#x232;" horiz-adv-x="1374" 
d="M501 0l101 611l-402 879h204l215 -481q36 -79 63 -152.5t52 -176.5h-76q58 105 110 179t111 150l375 481h230l-694 -879l-101 -611h-188zM1181 1860l-24 -141h-554l24 141h554z" />
    <glyph glyph-name="uni0233" unicode="&#x233;" horiz-adv-x="1128" 
d="M-20 -408l62 155l36 -3q50 -10 92.5 -2t80.5 43t74 107l55 105l-240 1107h186l128 -651q19 -97 30 -193.5t24 -187.5h-62q44 91 86 187.5t94 193.5l344 651h201l-702 -1277q-45 -84 -101.5 -140t-123 -83.5t-142.5 -27.5q-40 0 -72.5 5.5t-49.5 10.5zM993 1474l-24 -141
h-554l24 141h554z" />
    <glyph glyph-name="uni0234" unicode="&#x234;" horiz-adv-x="800" 
d="M304 -418q-115 0 -176 47.5t-79.5 121t-6.5 148.5l56 343h179l-60 -362q-12 -73 23 -110.5t88 -37.5q51 0 88.5 32.5t45.5 81.5q7 42 -12 73.5t-66 38.5q-33 6 -65 -1t-62 -23.5t-59 -41.5l-321 -276l-93 118l271 234q80 70 173.5 107t175.5 37q125 0 193 -74t49 -191
t-111 -191t-231 -74zM484 1490l-247 -1490h-178l247 1490h178z" />
    <glyph glyph-name="uni0235" unicode="&#x235;" horiz-adv-x="1511" 
d="M1015 -418q-114 0 -175.5 47.5t-80 121t-6.5 148.5l57 343h178l-60 -362q-12 -73 23 -110.5t89 -37.5q50 0 87.5 32.5t45.5 81.5q8 42 -11.5 73.5t-65.5 38.5q-34 6 -66 -1t-62 -23.5t-59 -41.5l-320 -276l-94 118l271 234q80 70 173.5 107t175.5 37q126 0 193.5 -74
t48.5 -191t-111 -191t-231 -74zM346 652l-109 -652h-178l184 1104h171l-44 -267l-31 5q76 150 177.5 214t225.5 64q114 0 195 -48t115.5 -143t10.5 -237l-115 -692h-178l115 690q22 132 -31 200.5t-167 68.5q-81 0 -153 -35.5t-122 -104t-66 -167.5z" />
    <glyph glyph-name="uni0236" unicode="&#x236;" horiz-adv-x="830" 
d="M402 -20q-114 0 -175 47.5t-79.5 121t-6.5 149.5l56 343h179l-60 -363q-12 -73 23 -110t88 -37q51 0 88.5 32t45.5 81q7 43 -12.5 74.5t-65.5 38.5q-33 6 -65 -1t-62 -23.5t-59 -41.5l-321 -276l-93 118l270 234q81 69 174 106t176 37q125 0 192.5 -73.5t48.5 -191.5
q-19 -117 -111 -191t-231 -74zM158 398l161 977h178l-161 -977h-178zM86 953l25 151h574l-25 -151h-574z" />
    <glyph glyph-name="uni0237" unicode="&#x237;" horiz-adv-x="480" 
d="M242 1104h178l-199 -1199q-16 -99 -63.5 -171.5t-124.5 -112t-181 -39.5h-45l27 162h38q75 0 117 42t55 125z" />
    <glyph glyph-name="uni0238" unicode="&#x238;" horiz-adv-x="1838" 
d="M1744 564l-3 -20q-27 -164 -101.5 -291.5t-185 -200t-248.5 -72.5q-96 0 -164 37t-109.5 107t-57 171t-6.5 230l12 61q43 172 115.5 294t174.5 187t233 65q136 0 220 -71t114.5 -198.5t5.5 -298.5zM1534 544l3 20q19 112 6 202t-64.5 142.5t-150.5 52.5
q-129 0 -212 -86.5t-124 -208.5l-37 -221q6 -81 30 -148t74.5 -106.5t137.5 -39.5q100 0 168.5 52t110.5 141.5t58 199.5zM758 212l212 1278h208l-248 -1490h-188zM93 544l3 20q26 171 99 298.5t183.5 198.5t247.5 71q131 0 211 -65t111.5 -187t18.5 -294l-12 -61
q-42 -172 -114.5 -294t-173 -186.5t-229.5 -64.5q-135 0 -221.5 72.5t-118.5 200t-5 291.5zM303 564l-3 -20q-16 -110 -5 -199.5t61 -141.5t150 -52q129 -1 209 84.5t130 209.5l38 221q-1 80 -24.5 147.5t-75.5 107.5t-139 40q-99 0 -168.5 -52.5t-111.5 -142.5t-61 -202z
" />
    <glyph glyph-name="uni0239" unicode="&#x239;" horiz-adv-x="1838" 
d="M655 -416l218 1325l54 209h171l-18 -208l-218 -1326h-207zM93 544l3 20q26 171 99 298.5t183.5 198.5t247.5 71q129 0 209 -63.5t113 -185t19 -297.5l-12 -61q-42 -172 -114.5 -294t-173 -186.5t-229.5 -64.5q-135 0 -221.5 72.5t-118.5 200t-5 291.5zM303 564l-3 -20
q-16 -110 -5 -199.5t61 -141.5t150 -52q128 -1 207.5 83.5t131.5 210.5l38 221q-1 83 -25.5 150t-76.5 106t-137 39q-101 0 -170 -53.5t-111 -143.5t-60 -200zM1744 564l-3 -20q-27 -164 -101.5 -291.5t-185 -200t-248.5 -72.5q-96 0 -164 37t-109.5 107t-57 171t-6.5 230
l12 61q43 171 115 293t174 187.5t234 65.5q136 0 220 -71t114.5 -198.5t5.5 -298.5zM1534 544l3 20q19 112 6 202t-64.5 142.5t-150.5 52.5q-130 0 -212.5 -86.5t-123.5 -208.5l-37 -221q6 -84 30.5 -150.5t75.5 -105t136 -38.5q100 0 168.5 52t110.5 141.5t58 199.5z" />
    <glyph glyph-name="uni023A" unicode="&#x23a;" horiz-adv-x="1396" 
d="M1328 1678l-973 -1868h-166l973 1868h166zM-47 0l790 1490h217l300 -1490h-190l-168 887q-14 75 -34 200t-44 314h39q-83 -182 -142.5 -306t-102.5 -208l-458 -887h-207zM297 416l27 165h757l-27 -165h-757z" />
    <glyph glyph-name="uni023B" unicode="&#x23b;" horiz-adv-x="1491" 
d="M208 -190l971 1868h166l-971 -1868h-166zM698 -21q-172 0 -299 73.5t-196.5 208.5t-69.5 321q0 177 56 343t160 298.5t251 210t330 77.5q116 0 212.5 -33.5t168 -97.5t111.5 -155t41 -207h-188q-4 77 -31.5 136t-74.5 100t-110 62t-136 21q-142 0 -254 -64t-191 -172
t-120.5 -242t-41.5 -273t49 -236t136.5 -147t203.5 -50q78 0 151 21t136.5 61.5t113 99.5t78.5 136h189q-39 -114 -106.5 -204.5t-157 -155t-194 -98.5t-217.5 -34z" />
    <glyph glyph-name="uni023C" unicode="&#x23c;" horiz-adv-x="1149" 
d="M-1 -418l1041 1908h139l-1041 -1908h-139zM518 -24q-134 0 -230.5 56t-148.5 158t-52 238q0 131 41 254.5t119 222.5t188.5 157t249.5 58q85 0 156 -22.5t124 -65.5t86 -103t40 -135l-175 -30q-4 44 -21 80t-46.5 62t-71 40.5t-96.5 14.5q-101 0 -178.5 -47
t-130.5 -124.5t-80 -171.5t-27 -187q0 -85 27 -152t84 -105.5t146 -38.5q58 0 109 16t93 44.5t73 67t51 84.5l168 -45q-32 -75 -83 -135t-116 -102.5t-141 -65.5t-158 -23z" />
    <glyph glyph-name="uni023D" unicode="&#x23d;" horiz-adv-x="1181" 
d="M117 0l247 1490h188l-219 -1324h696l-28 -166h-884zM40 667l25 156h770l-25 -156h-770z" />
    <glyph glyph-name="uni023E" unicode="&#x23e;" horiz-adv-x="1308" 
d="M130 -190l976 1868h165l-975 -1868h-166zM216 1325l28 165h1132l-28 -165h-471l-219 -1325h-188l219 1325h-473z" />
    </font>
</defs>
</svg>
